STARTFONT 2.1
FONT -Japanese
SIZE 16 75 75
FONTBOUNDINGBOX 16 16 0 -2
STARTPROPERTIES 7
PIXEL_SIZE 16
POINT_SIZE 160
FONT_ASCENT 14
FONT_DESCENT 2
CHARSET_REGISTRY "iso10646"
CHARSET_ENCODING "1"
DEFAULT_CHAR 12288
ENDPROPERTIES
CHARS 6953
STARTCHAR U+8000
ENCODING 32768
SWIDTH 1000 0
DWIDTH 16 0
BBX 16 16 0 -2
BITMAP
13DC
1244
9554
54CC
1154
FEC4
2920
29FC
2B20
2DFC
2920
2BFC
5D20
4920
81FE
0100
ENDCHAR
STARTCHAR U+8001
ENCODING 32769
SWIDTH 1000 0
DWIDTH 16 0
BBX 16 16 0 -2
BITMAP
0200
0208
7FFC
0208
0210
0220
FFFE
0180
0200
0C30
34C0
C700
0404
0404
03FC
0000
ENDCHAR
STARTCHAR U+8003
ENCODING 32771
SWIDTH 1000 0
DWIDTH 16 0
BBX 16 16 0 -2
BITMAP
0200
0210
3FD8
0220
0240
7FFE
0100
0200
07FC
1A00
E7F8
0208
0008
0008
0050
0020
ENDCHAR
STARTCHAR U+8004
ENCODING 32772
SWIDTH 1000 0
DWIDTH 16 0
BBX 16 16 0 -2
BITMAP
0200
1FD0
0220
FFFE
0280
0500
1FC8
6408
07F8
7A00
0270
3F80
0200
FFF8
0202
01FE
ENDCHAR
STARTCHAR U+8005
ENCODING 32773
SWIDTH 1000 0
DWIDTH 16 0
BBX 16 16 0 -2
BITMAP
0100
0108
3FEC
0110
0120
7FFE
0080
0300
07F8
1C08
E408
07F8
0408
0408
07F8
0408
ENDCHAR
STARTCHAR U+8006
ENCODING 32774
SWIDTH 1000 0
DWIDTH 16 0
BBX 16 16 0 -2
BITMAP
0100
1FE8
0110
7FFE
00C0
0300
1FE8
E408
07F8
0000
0FF8
0808
0FF8
0808
0FF8
0808
ENDCHAR
STARTCHAR U+800B
ENCODING 32779
SWIDTH 1000 0
DWIDTH 16 0
BBX 16 16 0 -2
BITMAP
0100
1FEC
0130
7FFE
0200
1FE8
E808
07F8
0000
1FF8
0810
1FFC
0088
3FF8
0080
7FFE
ENDCHAR
STARTCHAR U+800C
ENCODING 32780
SWIDTH 1000 0
DWIDTH 16 0
BBX 16 16 0 -2
BITMAP
0000
7FFE
0200
0400
3FFC
2444
2444
2444
2444
2444
2444
2444
2444
2454
2408
0000
ENDCHAR
STARTCHAR U+8010
ENCODING 32784
SWIDTH 1000 0
DWIDTH 16 0
BBX 16 16 0 -2
BITMAP
0008
FF08
0808
0808
7FFE
5508
5508
5548
5528
5528
5528
5508
5108
5728
4210
0000
ENDCHAR
STARTCHAR U+8012
ENCODING 32786
SWIDTH 1000 0
DWIDTH 16 0
BBX 16 16 0 -2
BITMAP
0100
0100
3FFC
0100
1FF0
0100
0100
7FFE
0380
0540
0520
0918
110E
2104
4100
0100
ENDCHAR
STARTCHAR U+8015
ENCODING 32789
SWIDTH 1000 0
DWIDTH 16 0
BBX 16 16 0 -2
BITMAP
1088
1088
FE88
1088
7DFE
1088
1088
FC88
13FE
3888
3488
5688
9488
1108
1108
1208
ENDCHAR
STARTCHAR U+8017
ENCODING 32791
SWIDTH 1000 0
DWIDTH 16 0
BBX 16 16 0 -2
BITMAP
1008
101C
FDE0
1020
7C3C
11E0
1020
FE20
103E
3BE0
3420
5620
5422
9022
101E
1000
ENDCHAR
STARTCHAR U+8018
ENCODING 32792
SWIDTH 1000 0
DWIDTH 16 0
BBX 16 16 0 -2
BITMAP
0800
0800
FEFC
0800
7E00
0800
09FE
FE20
1820
1C20
2A48
2A44
489E
89E6
0884
0800
ENDCHAR
STARTCHAR U+8019
ENCODING 32793
SWIDTH 1000 0
DWIDTH 16 0
BBX 16 16 0 -2
BITMAP
1000
1000
7DFC
1124
7D24
1124
1124
FDFC
3900
3500
5700
5500
9102
1102
10FE
1000
ENDCHAR
STARTCHAR U+801C
ENCODING 32796
SWIDTH 1000 0
DWIDTH 16 0
BBX 16 16 0 -2
BITMAP
0800
08FC
FF84
0884
7E84
08FC
0880
FF80
08FE
1C82
2A82
4A82
8882
0882
08FE
0882
ENDCHAR
STARTCHAR U+8021
ENCODING 32801
SWIDTH 1000 0
DWIDTH 16 0
BBX 16 16 0 -2
BITMAP
1010
13D0
FE50
127E
7BD2
1252
1252
FFD2
1252
3A52
3672
53D2
5E12
9022
102E
1044
ENDCHAR
STARTCHAR U+8028
ENCODING 32808
SWIDTH 1000 0
DWIDTH 16 0
BBX 16 16 0 -2
BITMAP
11FE
1100
FDFC
1100
7DFE
1154
1158
FF6E
1144
3908
55FE
5208
9288
1488
1028
1010
ENDCHAR
STARTCHAR U+8033
ENCODING 32819
SWIDTH 1000 0
DWIDTH 16 0
BBX 16 16 0 -2
BITMAP
0000
7FFE
0810
0810
0FF0
0810
0810
0FF0
0810
0810
08FE
FF90
0010
0010
0010
0010
ENDCHAR
STARTCHAR U+8036
ENCODING 32822
SWIDTH 1000 0
DWIDTH 16 0
BBX 16 16 0 -2
BITMAP
0000
7F7E
2244
2244
3E48
2250
2248
3E44
2244
2242
2F42
F254
0248
0240
0240
0240
ENDCHAR
STARTCHAR U+803B
ENCODING 32827
SWIDTH 1000 0
DWIDTH 16 0
BBX 16 16 0 -2
BITMAP
0010
FE10
4410
4410
7C90
449E
4490
7C90
4490
4490
4690
7C90
C490
07FE
0400
0400
ENDCHAR
STARTCHAR U+803D
ENCODING 32829
SWIDTH 1000 0
DWIDTH 16 0
BBX 16 16 0 -2
BITMAP
0020
FE20
4420
45FE
7D22
4624
4420
4420
7C50
4450
4650
5C90
E492
0512
050E
0600
ENDCHAR
STARTCHAR U+803F
ENCODING 32831
SWIDTH 1000 0
DWIDTH 16 0
BBX 16 16 0 -2
BITMAP
0020
FE20
4420
4424
7CA6
44A4
44A8
7D20
4420
4420
4E50
F448
0448
0486
0484
0500
ENDCHAR
STARTCHAR U+8046
ENCODING 32838
SWIDTH 1000 0
DWIDTH 16 0
BBX 16 16 0 -2
BITMAP
0040
FE40
4440
44A0
7C98
454E
4624
7C00
45FC
4408
4E10
F4A0
0460
0430
0420
0400
ENDCHAR
STARTCHAR U+804A
ENCODING 32842
SWIDTH 1000 0
DWIDTH 16 0
BBX 16 16 0 -2
BITMAP
0060
FF80
4A1E
4A52
7A52
4A52
4A52
7A52
4A52
4ADA
4F54
F850
0890
0890
0910
0A10
ENDCHAR
STARTCHAR U+8052
ENCODING 32850
SWIDTH 1000 0
DWIDTH 16 0
BBX 16 16 0 -2
BITMAP
0000
FE1C
45E0
4420
7C20
47FE
4420
7C20
4420
45FC
4F04
7504
C504
05FC
0504
0400
ENDCHAR
STARTCHAR U+8056
ENCODING 32854
SWIDTH 1000 0
DWIDTH 16 0
BBX 16 16 0 -2
BITMAP
FF7C
2244
3E44
2244
3E44
2244
3F7C
E244
0200
3FFC
0100
0100
3FF8
0100
0100
7FFE
ENDCHAR
STARTCHAR U+8058
ENCODING 32856
SWIDTH 1000 0
DWIDTH 16 0
BBX 16 16 0 -2
BITMAP
0020
FE20
45FC
4524
7DFC
4524
45FC
7C00
47FE
4440
44FC
7E44
C404
0404
0414
0408
ENDCHAR
STARTCHAR U+805A
ENCODING 32858
SWIDTH 1000 0
DWIDTH 16 0
BBX 16 16 0 -2
BITMAP
7F00
22FC
3E08
22C8
3E30
2248
3F86
C238
3FC0
0118
19A0
6140
0530
190E
6104
0100
ENDCHAR
STARTCHAR U+805E
ENCODING 32862
SWIDTH 1000 0
DWIDTH 16 0
BBX 16 16 0 -2
BITMAP
7C7C
4444
7C7C
4444
7C7C
4004
5FF4
4444
47C4
4444
47C4
4444
5FF4
4044
4054
4048
ENDCHAR
STARTCHAR U+805F
ENCODING 32863
SWIDTH 1000 0
DWIDTH 16 0
BBX 16 16 0 -2
BITMAP
2000
3F7C
4844
FF44
0844
147C
2200
5FFC
0810
0FF0
0810
0FF0
0810
7FFE
0010
0010
ENDCHAR
STARTCHAR U+8061
ENCODING 32865
SWIDTH 1000 0
DWIDTH 16 0
BBX 16 16 0 -2
BITMAP
00A0
FEA0
4890
4908
7946
4A54
4888
79FC
4808
4848
5EA4
EAA2
0A8A
0C88
0878
0800
ENDCHAR
STARTCHAR U+8062
ENCODING 32866
SWIDTH 1000 0
DWIDTH 16 0
BBX 16 16 0 -2
BITMAP
0040
FC20
4BFE
4A02
7800
49FC
4820
7820
4920
493C
4920
FD20
0920
0AA0
0A7E
0C00
ENDCHAR
STARTCHAR U+7FE1
ENCODING 32737
SWIDTH 1000 0
DWIDTH 16 0
BBX 16 16 0 -2
BITMAP
0440
7C7E
0440
3C7C
0440
7C7E
0440
0000
7EFC
2204
1244
0A24
1244
6284
0A14
0408
ENDCHAR
STARTCHAR U+8068
ENCODING 32872
SWIDTH 1000 0
DWIDTH 16 0
BBX 16 16 0 -2
BITMAP
0088
FEA8
45F2
445E
7C84
454A
47FE
7C42
4488
4488
5FFE
E488
0488
0488
0508
0508
ENDCHAR
STARTCHAR U+806F
ENCODING 32879
SWIDTH 1000 0
DWIDTH 16 0
BBX 16 16 0 -2
BITMAP
0108
FD08
4A52
4FFE
7884
494A
4FFE
7842
4800
4A52
4E52
7BDE
C890
0890
0910
0A10
ENDCHAR
STARTCHAR U+8070
ENCODING 32880
SWIDTH 1000 0
DWIDTH 16 0
BBX 16 16 0 -2
BITMAP
0020
FC40
49FC
4924
797C
49D4
4924
7954
4984
49FC
5E40
E8A4
0AAA
0A8A
0878
0800
ENDCHAR
STARTCHAR U+8072
ENCODING 32882
SWIDTH 1000 0
DWIDTH 16 0
BBX 16 16 0 -2
BITMAP
0878
7F48
084E
3E80
00FC
3F48
2D30
3F28
2046
4084
FFFE
0CA0
0A60
0820
7FFE
0020
ENDCHAR
STARTCHAR U+8073
ENCODING 32883
SWIDTH 1000 0
DWIDTH 16 0
BBX 16 16 0 -2
BITMAP
1110
3110
CAA8
1A44
3440
5278
1240
15FE
1400
7FFC
0820
0FE0
0820
0FFC
7C20
0020
ENDCHAR
STARTCHAR U+8074
ENCODING 32884
SWIDTH 1000 0
DWIDTH 16 0
BBX 16 16 0 -2
BITMAP
0020
FC20
4BFE
4820
79FC
4954
4954
7954
49FC
4800
5C24
EAA2
0A8A
0A8C
0878
0800
ENDCHAR
STARTCHAR U+8076
ENCODING 32886
SWIDTH 1000 0
DWIDTH 16 0
BBX 16 16 0 -2
BITMAP
7FFC
0C20
0AA0
0860
0820
7FFE
0020
FFFE
2248
3E78
2248
3E78
2348
FEFE
0208
0208
ENDCHAR
STARTCHAR U+8077
ENCODING 32887
SWIDTH 1000 0
DWIDTH 16 0
BBX 16 16 0 -2
BITMAP
0110
FC90
4BD4
4A54
7990
4FFE
4810
4BD4
7A56
4BD4
4A48
7E58
CBEA
0A46
0882
0000
ENDCHAR
STARTCHAR U+8079
ENCODING 32889
SWIDTH 1000 0
DWIDTH 16 0
BBX 16 16 0 -2
BITMAP
0040
FC20
4BFE
4C22
7A94
4AFA
4C02
79FC
4954
4BFE
4C00
7BFC
C820
0820
08A0
0840
ENDCHAR
STARTCHAR U+807D
ENCODING 32893
SWIDTH 1000 0
DWIDTH 16 0
BBX 16 16 0 -2
BITMAP
0020
FE20
25FC
3C20
25FC
3D54
2554
FFFC
0400
F7FE
2420
F554
2542
3544
C67C
0400
ENDCHAR
STARTCHAR U+807E
ENCODING 32894
SWIDTH 1000 0
DWIDTH 16 0
BBX 16 16 0 -2
BITMAP
1080
7EFC
2480
FEFC
0004
7EFC
4280
7EFA
4282
FFFE
0C20
0AA0
0860
0820
FFFE
0020
ENDCHAR
STARTCHAR U+807F
ENCODING 32895
SWIDTH 1000 0
DWIDTH 16 0
BBX 16 16 0 -2
BITMAP
0100
0100
1FF8
0108
7FFE
0108
0108
1FF8
0100
3FF8
0100
0100
7FFE
0100
0100
0100
ENDCHAR
STARTCHAR U+8084
ENCODING 32900
SWIDTH 1000 0
DWIDTH 16 0
BBX 16 16 0 -2
BITMAP
2020
2420
39FC
2424
3FFE
0024
21FC
3E20
49FC
0820
7E20
0BFE
1420
2220
4220
8020
ENDCHAR
STARTCHAR U+8085
ENCODING 32901
SWIDTH 1000 0
DWIDTH 16 0
BBX 16 16 0 -2
BITMAP
0100
3FF8
0108
7FFE
0108
3FF8
4544
7D7C
4104
7FFC
4104
7D7C
4544
4544
4544
8104
ENDCHAR
STARTCHAR U+8086
ENCODING 32902
SWIDTH 1000 0
DWIDTH 16 0
BBX 16 16 0 -2
BITMAP
0020
3E20
21FC
3C24
21FE
2024
3DFC
2020
FE20
21FC
2820
27FE
5E20
E420
4020
0020
ENDCHAR
STARTCHAR U+8087
ENCODING 32903
SWIDTH 1000 0
DWIDTH 16 0
BBX 16 16 0 -2
BITMAP
1040
0840
3EFE
2348
3E30
40C8
4106
9FF0
0110
7FFC
0110
3FF0
0100
FFFE
0100
0100
ENDCHAR
STARTCHAR U+8089
ENCODING 32905
SWIDTH 1000 0
DWIDTH 16 0
BBX 16 16 0 -2
BITMAP
0100
0100
0100
3FFC
2104
2284
2464
2924
3104
2284
2244
2434
2824
2004
2014
2008
ENDCHAR
STARTCHAR U+808B
ENCODING 32907
SWIDTH 1000 0
DWIDTH 16 0
BBX 16 16 0 -2
BITMAP
0040
3C40
2440
2440
3DFC
2444
2444
2444
3C44
2444
2444
2444
4484
5484
8914
0208
ENDCHAR
STARTCHAR U+808C
ENCODING 32908
SWIDTH 1000 0
DWIDTH 16 0
BBX 16 16 0 -2
BITMAP
3CF0
2490
2490
2490
3C90
2490
2490
2490
3C90
2490
2490
2492
4512
5512
8A0E
0000
ENDCHAR
STARTCHAR U+8093
ENCODING 32915
SWIDTH 1000 0
DWIDTH 16 0
BBX 16 16 0 -2
BITMAP
0100
0080
FFFE
1000
1FF8
0000
1FF8
1008
1FF8
1008
1008
1FF8
1008
1008
1028
1010
ENDCHAR
STARTCHAR U+8096
ENCODING 32918
SWIDTH 1000 0
DWIDTH 16 0
BBX 16 16 0 -2
BITMAP
0100
2108
1110
0920
0100
1FF8
1008
1FF8
1008
1008
1FF8
1008
1008
1008
1028
1010
ENDCHAR
STARTCHAR U+8098
ENCODING 32920
SWIDTH 1000 0
DWIDTH 16 0
BBX 16 16 0 -2
BITMAP
0010
3C10
2410
2410
3DFE
2410
2510
2490
3CD0
2490
2410
2410
2410
4410
5450
8820
ENDCHAR
STARTCHAR U+809A
ENCODING 32922
SWIDTH 1000 0
DWIDTH 16 0
BBX 16 16 0 -2
BITMAP
0020
3C20
2420
2420
3C20
25FC
2420
2420
3C20
2420
2420
2420
4420
57FE
8800
0000
ENDCHAR
STARTCHAR U+809B
ENCODING 32923
SWIDTH 1000 0
DWIDTH 16 0
BBX 16 16 0 -2
BITMAP
0000
3C00
27FE
2420
3C20
2420
2420
2420
3C20
2420
2420
4420
4420
57FE
8800
0000
ENDCHAR
STARTCHAR U+809D
ENCODING 32925
SWIDTH 1000 0
DWIDTH 16 0
BBX 16 16 0 -2
BITMAP
0000
3C00
25FC
2420
2420
3C20
2420
27FE
3C20
2420
2420
2420
4420
4420
5420
8820
ENDCHAR
STARTCHAR U+80A1
ENCODING 32929
SWIDTH 1000 0
DWIDTH 16 0
BBX 16 16 0 -2
BITMAP
3CF0
2490
2490
2490
3D10
260E
2400
3DFC
2488
2488
2450
2450
4420
5450
888E
0104
ENDCHAR
STARTCHAR U+80A2
ENCODING 32930
SWIDTH 1000 0
DWIDTH 16 0
BBX 16 16 0 -2
BITMAP
0020
7C20
4420
47FE
7C20
4420
45FC
4508
7C88
4490
4450
4420
4450
448E
5504
8A00
ENDCHAR
STARTCHAR U+80A5
ENCODING 32933
SWIDTH 1000 0
DWIDTH 16 0
BBX 16 16 0 -2
BITMAP
0000
3DFC
2524
2524
3D24
2524
25FC
2504
3D00
2500
2500
2500
4502
5502
88FE
0000
ENDCHAR
STARTCHAR U+00A7
ENCODING 167
SWIDTH 1000 0
DWIDTH 16 0
BBX 16 16 0 -2
BITMAP
0000
07C0
0820
0860
0400
0380
0440
0820
0820
0440
0380
0040
0C20
0820
07C0
0000
ENDCHAR
STARTCHAR U+00A8
ENCODING 168
SWIDTH 1000 0
DWIDTH 16 0
BBX 16 16 0 -2
BITMAP
1860
1860
0000
0000
0000
0000
0000
0000
0000
0000
0000
0000
0000
0000
0000
0000
ENDCHAR
STARTCHAR U+80A9
ENCODING 32937
SWIDTH 1000 0
DWIDTH 16 0
BBX 16 16 0 -2
BITMAP
0100
0080
1FF8
1008
1008
1FF8
1000
17F8
1408
17F8
2408
27F8
2408
4428
8410
0000
ENDCHAR
STARTCHAR U+80AA
ENCODING 32938
SWIDTH 1000 0
DWIDTH 16 0
BBX 16 16 0 -2
BITMAP
0040
3C20
2410
27FE
3C40
2440
247C
2444
3C44
2444
2484
4484
4484
5504
8914
0208
ENDCHAR
STARTCHAR U+80AC
ENCODING 32940
SWIDTH 1000 0
DWIDTH 16 0
BBX 16 16 0 -2
BITMAP
0040
3C50
244C
2448
3FFE
2450
2450
2450
3C50
2450
2490
2490
4492
5512
890E
0200
ENDCHAR
STARTCHAR U+80AD
ENCODING 32941
SWIDTH 1000 0
DWIDTH 16 0
BBX 16 16 0 -2
BITMAP
0020
7820
4820
49FC
4924
7924
4924
4954
794C
498C
4904
4904
4904
4904
A914
1108
ENDCHAR
STARTCHAR U+80AF
ENCODING 32943
SWIDTH 1000 0
DWIDTH 16 0
BBX 16 16 0 -2
BITMAP
0100
1100
11F8
1100
FFFE
0000
1FF0
1010
1FF0
1010
1010
1FF0
1010
1010
1050
1020
ENDCHAR
STARTCHAR U+00B0
ENCODING 176
SWIDTH 1000 0
DWIDTH 16 0
BBX 16 16 0 -2
BITMAP
0000
3000
4800
4800
3000
0000
0000
0000
0000
0000
0000
0000
0000
0000
0000
0000
ENDCHAR
STARTCHAR U+00B1
ENCODING 177
SWIDTH 1000 0
DWIDTH 16 0
BBX 16 16 0 -2
BITMAP
0000
0000
0000
0100
0100
0100
1FF0
0100
0100
0100
0000
0000
1FF0
0000
0000
0000
ENDCHAR
STARTCHAR U+80B2
ENCODING 32946
SWIDTH 1000 0
DWIDTH 16 0
BBX 16 16 0 -2
BITMAP
0200
0100
FFFE
0420
0810
3FF8
1010
1FF0
1010
1FF0
1010
1FF0
1010
1010
1050
1020
ENDCHAR
STARTCHAR U+00B4
ENCODING 180
SWIDTH 1000 0
DWIDTH 16 0
BBX 16 16 0 -2
BITMAP
0180
0200
0000
0000
0000
0000
0000
0000
0000
0000
0000
0000
0000
0000
0000
0000
ENDCHAR
STARTCHAR U+00B6
ENCODING 182
SWIDTH 1000 0
DWIDTH 16 0
BBX 16 16 0 -2
BITMAP
07F0
0E20
1E20
1E20
1E20
0E20
0620
0220
0220
0220
0220
0220
0220
0220
0220
0000
ENDCHAR
STARTCHAR U+80BA
ENCODING 32954
SWIDTH 1000 0
DWIDTH 16 0
BBX 16 16 0 -2
BITMAP
0020
3C20
27FE
2420
3C20
25FC
2524
2524
3D24
2524
2524
2534
4528
5420
8820
0020
ENDCHAR
STARTCHAR U+80C3
ENCODING 32963
SWIDTH 1000 0
DWIDTH 16 0
BBX 16 16 0 -2
BITMAP
0000
3FF8
2108
3FF8
2108
3FF8
2008
1FF0
1010
1FF0
1010
1FF0
1010
1010
1050
1020
ENDCHAR
STARTCHAR U+80C4
ENCODING 32964
SWIDTH 1000 0
DWIDTH 16 0
BBX 16 16 0 -2
BITMAP
0100
3FF8
2108
3FF8
2108
3FF8
0000
1FF0
1010
1FF0
1010
1FF0
1010
1010
1050
1020
ENDCHAR
STARTCHAR U+80C6
ENCODING 32966
SWIDTH 1000 0
DWIDTH 16 0
BBX 16 16 0 -2
BITMAP
0000
79F8
4908
4908
7908
49F8
4908
4908
7908
4908
49F8
4800
4800
4800
4BFE
9800
ENDCHAR
STARTCHAR U+80CC
ENCODING 32972
SWIDTH 1000 0
DWIDTH 16 0
BBX 16 16 0 -2
BITMAP
0480
0498
7CE0
0484
1C84
E47C
4000
1FF0
1010
1FF0
1010
1010
1FF0
1010
1050
1020
ENDCHAR
STARTCHAR U+80CE
ENCODING 32974
SWIDTH 1000 0
DWIDTH 16 0
BBX 16 16 0 -2
BITMAP
0040
3C60
2440
2488
3D04
27FE
2504
2400
3DFC
2504
2504
2504
2504
45FC
5504
8800
ENDCHAR
STARTCHAR U+80D6
ENCODING 32982
SWIDTH 1000 0
DWIDTH 16 0
BBX 16 16 0 -2
BITMAP
0040
3C40
2648
254C
2550
3C40
27FC
2440
3C40
2440
27FE
2440
4440
4440
5440
8840
ENDCHAR
STARTCHAR U+00D7
ENCODING 215
SWIDTH 1000 0
DWIDTH 16 0
BBX 16 16 0 -2
BITMAP
0000
0000
0000
1010
0820
0440
0280
0100
0280
0440
0820
1010
0000
0000
0000
0000
ENDCHAR
STARTCHAR U+80D9
ENCODING 32985
SWIDTH 1000 0
DWIDTH 16 0
BBX 16 16 0 -2
BITMAP
0080
3C80
2500
25FE
3E40
2440
247C
2440
3C40
2440
247C
4440
4440
5440
8840
0000
ENDCHAR
STARTCHAR U+80DA
ENCODING 32986
SWIDTH 1000 0
DWIDTH 16 0
BBX 16 16 0 -2
BITMAP
0000
3DFE
2410
2420
3C20
2440
24C8
3D44
2646
2444
2440
2440
4440
57FE
8800
0000
ENDCHAR
STARTCHAR U+80DB
ENCODING 32987
SWIDTH 1000 0
DWIDTH 16 0
BBX 16 16 0 -2
BITMAP
0000
3DFC
2524
2524
3DFC
2524
2524
2524
3DFC
2524
2420
2420
4420
5420
8820
0020
ENDCHAR
STARTCHAR U+80DD
ENCODING 32989
SWIDTH 1000 0
DWIDTH 16 0
BBX 16 16 0 -2
BITMAP
0008
79FC
4920
4920
7920
4920
49FE
4920
7920
4920
4910
4952
498A
AB2A
9126
0000
ENDCHAR
STARTCHAR U+80DE
ENCODING 32990
SWIDTH 1000 0
DWIDTH 16 0
BBX 16 16 0 -2
BITMAP
0080
78C0
4900
49FC
7A04
4C04
49E4
4924
7924
49E4
4904
491C
490A
4902
48FE
9800
ENDCHAR
STARTCHAR U+80E1
ENCODING 32993
SWIDTH 1000 0
DWIDTH 16 0
BBX 16 16 0 -2
BITMAP
0800
087C
0844
FF44
087C
0844
0844
7E44
427C
4244
4244
4244
7E44
4244
0294
0108
ENDCHAR
STARTCHAR U+80E4
ENCODING 32996
SWIDTH 1000 0
DWIDTH 16 0
BBX 16 16 0 -2
BITMAP
2210
2490
2F90
2110
2210
2FD0
2010
2FD0
2850
2FD0
2850
2FD2
4852
4952
888E
0000
ENDCHAR
STARTCHAR U+80E5
ENCODING 32997
SWIDTH 1000 0
DWIDTH 16 0
BBX 16 16 0 -2
BITMAP
0000
7FFE
0104
11F8
1100
2900
47FC
8000
1FF0
1010
1FF0
1010
1FF0
1010
1050
1020
ENDCHAR
STARTCHAR U+80EF
ENCODING 33007
SWIDTH 1000 0
DWIDTH 16 0
BBX 16 16 0 -2
BITMAP
0040
7840
4BFE
48A0
7918
4BF6
4C04
4800
7BFE
4880
49F8
4888
4808
A808
9050
0020
ENDCHAR
STARTCHAR U+80F1
ENCODING 33009
SWIDTH 1000 0
DWIDTH 16 0
BBX 16 16 0 -2
BITMAP
0040
3C40
2448
264C
3D48
2450
27FE
24A0
3CA0
24A0
24A0
24A0
44A2
5522
891E
0200
ENDCHAR
STARTCHAR U+80F4
ENCODING 33012
SWIDTH 1000 0
DWIDTH 16 0
BBX 16 16 0 -2
BITMAP
0000
3DFC
2504
25FC
3D04
2504
2574
2554
3D54
2554
2574
2554
4504
5514
8908
0000
ENDCHAR
STARTCHAR U+00F7
ENCODING 247
SWIDTH 1000 0
DWIDTH 16 0
BBX 16 16 0 -2
BITMAP
0000
0000
0000
0180
0180
0000
0000
1FF8
0000
0000
0180
0180
0000
0000
0000
0000
ENDCHAR
STARTCHAR U+80F8
ENCODING 33016
SWIDTH 1000 0
DWIDTH 16 0
BBX 16 16 0 -2
BITMAP
0100
7900
49FE
4902
7A22
4932
4AAA
4A4A
7AAA
4B1A
4A0A
4BFA
4A0A
4802
A814
9008
ENDCHAR
STARTCHAR U+80FC
ENCODING 33020
SWIDTH 1000 0
DWIDTH 16 0
BBX 16 16 0 -2
BITMAP
0108
78CC
4890
4800
7BFE
4890
4890
4890
7BFE
4890
4890
4890
4910
4910
6A10
9410
ENDCHAR
STARTCHAR U+80FD
ENCODING 33021
SWIDTH 1000 0
DWIDTH 16 0
BBX 16 16 0 -2
BITMAP
2040
3040
244C
4270
FF44
4246
007C
7E00
4240
7E4C
4270
7E40
4244
4246
4A3C
4400
ENDCHAR
STARTCHAR U+8102
ENCODING 33026
SWIDTH 1000 0
DWIDTH 16 0
BBX 16 16 0 -2
BITMAP
3C80
2488
249C
24E0
3C84
2484
24FC
3C00
25FC
2504
2504
45FC
4504
5504
89FC
0104
ENDCHAR
STARTCHAR U+8105
ENCODING 33029
SWIDTH 1000 0
DWIDTH 16 0
BBX 16 16 0 -2
BITMAP
0100
3FF0
0210
1420
7EFC
1224
2224
4A54
8488
1FF0
1010
1FF0
1010
1FF0
1010
1030
ENDCHAR
STARTCHAR U+8106
ENCODING 33030
SWIDTH 1000 0
DWIDTH 16 0
BBX 16 16 0 -2
BITMAP
7880
4880
48FC
4904
7A08
4DFE
4900
497C
7944
4944
4954
4948
4942
4A42
AA7E
9400
ENDCHAR
STARTCHAR U+8107
ENCODING 33031
SWIDTH 1000 0
DWIDTH 16 0
BBX 16 16 0 -2
BITMAP
0040
7840
4BFC
4844
7884
491C
4A08
4910
7910
4FFE
4952
4952
4A52
4A52
ADAA
9044
ENDCHAR
STARTCHAR U+8108
ENCODING 33032
SWIDTH 1000 0
DWIDTH 16 0
BBX 16 16 0 -2
BITMAP
003C
7BE0
4A00
4A1C
7AF0
4AA0
4AA4
4AA6
7AA8
4A90
4A90
4A88
4AAC
AAC6
9484
8800
ENDCHAR
STARTCHAR U+8109
ENCODING 33033
SWIDTH 1000 0
DWIDTH 16 0
BBX 16 16 0 -2
BITMAP
0080
7860
4840
4BC8
784C
4848
4B50
4960
7950
4948
494C
4A46
4C44
8840
A940
1080
ENDCHAR
STARTCHAR U+810A
ENCODING 33034
SWIDTH 1000 0
DWIDTH 16 0
BBX 16 16 0 -2
BITMAP
2110
1110
0120
1290
2248
4430
180E
6FF4
0810
0FF0
0810
0FF0
0810
0810
0850
0820
ENDCHAR
STARTCHAR U+842A
ENCODING 33834
SWIDTH 1000 0
DWIDTH 16 0
BBX 16 16 0 -2
BITMAP
0420
0420
FFFE
0420
0428
0E88
7868
0848
7E88
1868
1C4E
2BF8
4A08
8808
0808
0808
ENDCHAR
STARTCHAR U+811A
ENCODING 33050
SWIDTH 1000 0
DWIDTH 16 0
BBX 16 16 0 -2
BITMAP
0100
791E
4912
4BD2
7912
4912
4FD2
4912
7912
4A12
4A52
4FFE
4A54
4810
A810
9010
ENDCHAR
STARTCHAR U+811B
ENCODING 33051
SWIDTH 1000 0
DWIDTH 16 0
BBX 16 16 0 -2
BITMAP
0000
7FFE
4948
496C
7948
4A90
4948
48AC
78A8
4BFE
4820
4820
4820
A820
93FE
0000
ENDCHAR
STARTCHAR U+8123
ENCODING 33059
SWIDTH 1000 0
DWIDTH 16 0
BBX 16 16 0 -2
BITMAP
3FFC
2000
3FF0
2000
3FFC
2890
2860
2C30
280E
3FF4
5010
5FF0
5010
5FF0
9010
1030
ENDCHAR
STARTCHAR U+8129
ENCODING 33065
SWIDTH 1000 0
DWIDTH 16 0
BBX 16 16 0 -2
BITMAP
0880
0C80
18FC
1088
2550
6630
A4C8
2706
25F8
2508
25F8
2508
21F8
2108
2128
2110
ENDCHAR
STARTCHAR U+812F
ENCODING 33071
SWIDTH 1000 0
DWIDTH 16 0
BBX 16 16 0 -2
BITMAP
0020
3C28
2424
27FE
3C20
25FC
2524
25FC
3D24
2524
25FC
2524
2524
4524
5534
8928
ENDCHAR
STARTCHAR U+8131
ENCODING 33073
SWIDTH 1000 0
DWIDTH 16 0
BBX 16 16 0 -2
BITMAP
0108
3CCC
2490
25FC
3D04
2504
2504
25FC
3C50
2450
2450
4450
4492
5492
890E
0200
ENDCHAR
STARTCHAR U+8133
ENCODING 33075
SWIDTH 1000 0
DWIDTH 16 0
BBX 16 16 0 -2
BITMAP
0004
7A46
4924
48A8
78A8
4A04
4B0C
4A94
7A64
4A94
4B0C
4A04
4BFC
AA04
9000
0000
ENDCHAR
STARTCHAR U+8139
ENCODING 33081
SWIDTH 1000 0
DWIDTH 16 0
BBX 16 16 0 -2
BITMAP
0000
3CFC
2480
24FC
3C80
24FC
2480
27FE
3D48
254C
2550
2520
2510
454E
5584
8900
ENDCHAR
STARTCHAR U+813E
ENCODING 33086
SWIDTH 1000 0
DWIDTH 16 0
BBX 16 16 0 -2
BITMAP
0020
3C40
25FC
2524
2524
3DFC
2524
2524
25FC
3C60
24A0
27FE
2420
4420
5420
8820
ENDCHAR
STARTCHAR U+8146
ENCODING 33094
SWIDTH 1000 0
DWIDTH 16 0
BBX 16 16 0 -2
BITMAP
00A0
78A0
4BF8
4AA8
7AA8
4AA8
4BF8
7AA8
4AA8
4FFE
4800
4920
4990
4908
AA08
9400
ENDCHAR
STARTCHAR U+814B
ENCODING 33099
SWIDTH 1000 0
DWIDTH 16 0
BBX 16 16 0 -2
BITMAP
0040
7820
4FFE
48A0
78A0
493E
4924
4B74
7DAC
4924
4924
4918
4924
4924
A942
9142
ENDCHAR
STARTCHAR U+814E
ENCODING 33102
SWIDTH 1000 0
DWIDTH 16 0
BBX 16 16 0 -2
BITMAP
7EF8
4888
7E88
4250
7E20
4850
7E8E
4104
1FF0
1010
1FF0
1010
1FF0
1010
1050
1020
ENDCHAR
STARTCHAR U+8150
ENCODING 33104
SWIDTH 1000 0
DWIDTH 16 0
BBX 16 16 0 -2
BITMAP
0100
0080
3FFE
2410
27FE
2C90
3490
2450
24A0
2FFC
2944
2AA4
2884
4944
4A34
8808
ENDCHAR
STARTCHAR U+8151
ENCODING 33105
SWIDTH 1000 0
DWIDTH 16 0
BBX 16 16 0 -2
BITMAP
0040
7820
4BFE
4A44
7A64
4A44
4AFE
4B44
4A64
7A54
4A54
4A44
4A44
4A44
AA54
9448
ENDCHAR
STARTCHAR U+8153
ENCODING 33107
SWIDTH 1000 0
DWIDTH 16 0
BBX 16 16 0 -2
BITMAP
0090
7890
4890
4F9E
7890
4890
4B9E
4890
7890
4890
4F9E
4890
4890
4890
B890
9090
ENDCHAR
STARTCHAR U+8154
ENCODING 33108
SWIDTH 1000 0
DWIDTH 16 0
BBX 16 16 0 -2
BITMAP
0040
3C20
25FE
2604
3C90
24C8
2486
2504
3E00
25FC
2420
2420
2420
4420
57FE
8800
ENDCHAR
STARTCHAR U+8155
ENCODING 33109
SWIDTH 1000 0
DWIDTH 16 0
BBX 16 16 0 -2
BITMAP
0040
7820
4BFE
4A04
7C08
4900
49DC
4954
7A54
4D54
489C
4890
4912
4912
6A1E
9400
ENDCHAR
STARTCHAR U+815F
ENCODING 33119
SWIDTH 1000 0
DWIDTH 16 0
BBX 16 16 0 -2
BITMAP
0040
3C20
25FE
2504
3E08
25FE
2450
2488
3DFC
2428
2420
25FC
2420
4420
57FE
8800
ENDCHAR
STARTCHAR U+8165
ENCODING 33125
SWIDTH 1000 0
DWIDTH 16 0
BBX 16 16 0 -2
BITMAP
0000
79FC
4904
49FC
7904
49FC
4820
4920
79FC
4920
4A20
49FC
4820
4820
4BFE
9800
ENDCHAR
STARTCHAR U+8166
ENCODING 33126
SWIDTH 1000 0
DWIDTH 16 0
BBX 16 16 0 -2
BITMAP
7924
4924
4A48
4C90
7A48
4924
4880
4BFC
7B0C
4A94
4A64
4A94
4B0C
4BFC
AA04
9000
ENDCHAR
STARTCHAR U+816B
ENCODING 33131
SWIDTH 1000 0
DWIDTH 16 0
BBX 16 16 0 -2
BITMAP
781C
4BE0
4840
4BFC
7840
4BFC
4A44
4BFC
7A44
4BFC
4840
4BFC
4840
4840
BFFE
9000
ENDCHAR
STARTCHAR U+816E
ENCODING 33134
SWIDTH 1000 0
DWIDTH 16 0
BBX 16 16 0 -2
BITMAP
0000
7BF8
4A48
4A48
7BF8
4A48
4A48
4BF8
7800
48A8
4A94
4A92
4A82
4C88
A878
9000
ENDCHAR
STARTCHAR U+8170
ENCODING 33136
SWIDTH 1000 0
DWIDTH 16 0
BBX 16 16 0 -2
BITMAP
0000
7BFE
4850
4BFE
7A52
4A52
4BFE
4880
7BFE
4888
4908
49D0
4820
4850
A88C
9304
ENDCHAR
STARTCHAR U+8171
ENCODING 33137
SWIDTH 1000 0
DWIDTH 16 0
BBX 16 16 0 -2
BITMAP
0020
7820
4F7C
4924
7AFE
4A24
4BFC
7920
49FC
4D20
4AFE
4A20
4A20
4D20
A8FE
9000
ENDCHAR
STARTCHAR U+8174
ENCODING 33140
SWIDTH 1000 0
DWIDTH 16 0
BBX 16 16 0 -2
BITMAP
0020
78A0
4B2E
4A22
7A22
4BAE
4A22
4A22
7BFE
4A20
4820
4850
4848
488C
6906
9204
ENDCHAR
STARTCHAR U+8178
ENCODING 33144
SWIDTH 1000 0
DWIDTH 16 0
BBX 16 16 0 -2
BITMAP
79F8
4908
49F8
4908
79F8
4800
4BFE
4900
79FC
4A54
4C94
4924
4A44
4884
A928
9210
ENDCHAR
STARTCHAR U+8179
ENCODING 33145
SWIDTH 1000 0
DWIDTH 16 0
BBX 16 16 0 -2
BITMAP
0100
3DFE
2500
27FC
3D04
25FC
2504
25FC
3C80
24FC
2488
2550
2620
4450
548E
8B04
ENDCHAR
STARTCHAR U+817A
ENCODING 33146
SWIDTH 1000 0
DWIDTH 16 0
BBX 16 16 0 -2
BITMAP
0020
3C40
25FC
2504
3DFC
2504
25FC
2424
3FA6
24A8
24B0
2528
2526
4624
54A0
8840
ENDCHAR
STARTCHAR U+817F
ENCODING 33151
SWIDTH 1000 0
DWIDTH 16 0
BBX 16 16 0 -2
BITMAP
0000
7CF8
4A88
4AF8
7888
4888
4EF8
4AA2
7A94
4A98
4AA8
4BCC
4A88
4A00
ADFE
9000
ENDCHAR
STARTCHAR U+8180
ENCODING 33152
SWIDTH 1000 0
DWIDTH 16 0
BBX 16 16 0 -2
BITMAP
0040
7820
4BFE
4888
7850
4BFE
4A44
4820
7BFC
4880
48F8
4888
4888
4908
A928
9210
ENDCHAR
STARTCHAR U+8182
ENCODING 33154
SWIDTH 1000 0
DWIDTH 16 0
BBX 16 16 0 -2
BITMAP
1080
FCFE
2100
3E30
25C4
2528
55D0
8906
1FF0
1010
1FF0
1010
1FF0
1010
1050
1020
ENDCHAR
STARTCHAR U+8183
ENCODING 33155
SWIDTH 1000 0
DWIDTH 16 0
BBX 16 16 0 -2
BITMAP
0000
79FC
4924
4924
7954
498C
49FC
7800
4BFC
4A94
4A94
4A94
4A94
AA94
97FE
0000
ENDCHAR
STARTCHAR U+8188
ENCODING 33160
SWIDTH 1000 0
DWIDTH 16 0
BBX 16 16 0 -2
BITMAP
0000
7BFC
4800
49F8
7908
49F8
4800
4BFC
7A04
4B14
4AA4
4BF4
4A44
4A44
6A44
924C
ENDCHAR
STARTCHAR U+818A
ENCODING 33162
SWIDTH 1000 0
DWIDTH 16 0
BBX 16 16 0 -2
BITMAP
0028
7824
4BFE
4820
49FC
7924
49FC
4924
49FC
7924
4810
4BFE
4910
4910
A850
9020
ENDCHAR
STARTCHAR U+818F
ENCODING 33167
SWIDTH 1000 0
DWIDTH 16 0
BBX 16 16 0 -2
BITMAP
0200
FFFE
0000
1FF0
1010
1FF0
0000
7FFC
4004
1FF0
1010
1FF0
1010
1FF0
1010
1030
ENDCHAR
STARTCHAR U+8193
ENCODING 33171
SWIDTH 1000 0
DWIDTH 16 0
BBX 16 16 0 -2
BITMAP
0100
79FC
4A00
4DF8
7908
49F8
4908
49F8
7900
49FC
4A54
4C94
4924
4A44
A894
9108
ENDCHAR
STARTCHAR U+8195
ENCODING 33173
SWIDTH 1000 0
DWIDTH 16 0
BBX 16 16 0 -2
BITMAP
0000
7BFE
4A2A
4A2A
7BFE
4A22
4BE6
4B56
7BDA
4A12
4BD2
4A2A
4A4A
4A06
ABFE
9000
ENDCHAR
STARTCHAR U+9599
ENCODING 38297
SWIDTH 1000 0
DWIDTH 16 0
BBX 16 16 0 -2
BITMAP
7EFC
4284
7EFC
4284
7EFC
4104
5FF4
4104
4FE4
4924
4924
49A4
4144
4104
4114
4008
ENDCHAR
STARTCHAR U+819A
ENCODING 33178
SWIDTH 1000 0
DWIDTH 16 0
BBX 16 16 0 -2
BITMAP
0100
01F8
0100
3FFE
2104
2FF0
2104
2FF8
2888
2FF8
2888
2FF8
2808
4FF8
4808
8818
ENDCHAR
STARTCHAR U+819C
ENCODING 33180
SWIDTH 1000 0
DWIDTH 16 0
BBX 16 16 0 -2
BITMAP
0110
7910
4FFC
4910
7BF8
4A08
4BF8
4A08
7BF8
4840
4FFE
4840
48A0
4918
AA0E
9404
ENDCHAR
STARTCHAR U+819D
ENCODING 33181
SWIDTH 1000 0
DWIDTH 16 0
BBX 16 16 0 -2
BITMAP
7840
4840
4BFE
48D0
794C
4A44
4C40
48A0
7958
4E46
4954
48E0
4950
4A4C
AC44
90C0
ENDCHAR
STARTCHAR U+81A0
ENCODING 33184
SWIDTH 1000 0
DWIDTH 16 0
BBX 16 16 0 -2
BITMAP
7BBC
48A4
4A94
4994
7AA4
4844
48A0
7918
4E46
4890
4B20
48C8
4B0C
4830
A8C0
9300
ENDCHAR
STARTCHAR U+81A3
ENCODING 33187
SWIDTH 1000 0
DWIDTH 16 0
BBX 16 16 0 -2
BITMAP
0040
7820
4BFE
4A92
7CC8
4904
4BFC
4888
79FC
4844
4840
4BFC
4840
4840
4FFE
9800
ENDCHAR
STARTCHAR U+81A4
ENCODING 33188
SWIDTH 1000 0
DWIDTH 16 0
BBX 16 16 0 -2
BITMAP
0000
7BFE
4820
4BFE
7A22
49AC
4820
49AC
7800
4BFC
4804
49FC
4804
4804
ABFC
9000
ENDCHAR
STARTCHAR U+81A8
ENCODING 33192
SWIDTH 1000 0
DWIDTH 16 0
BBX 16 16 0 -2
BITMAP
0080
7884
4FF6
4888
7BF0
4804
4BE6
7A28
4BF0
4804
4A26
4944
48E8
4F10
A820
9040
ENDCHAR
STARTCHAR U+81A9
ENCODING 33193
SWIDTH 1000 0
DWIDTH 16 0
BBX 16 16 0 -2
BITMAP
0014
7814
4FFE
4810
7BD0
4810
4BD0
7808
4BE8
4A28
4BE8
4A28
4BE8
494A
AA2A
9424
ENDCHAR
STARTCHAR U+81B0
ENCODING 33200
SWIDTH 1000 0
DWIDTH 16 0
BBX 16 16 0 -2
BITMAP
001C
7BE0
4924
48A8
7BFE
4870
48A8
4926
7FFC
4924
4924
49FC
4924
4924
A9FC
9000
ENDCHAR
STARTCHAR U+81B3
ENCODING 33203
SWIDTH 1000 0
DWIDTH 16 0
BBX 16 16 0 -2
BITMAP
7908
4890
4FFE
4840
7BFC
4840
4BFE
4A48
7950
4FFE
4800
4BFC
4A04
4A04
ABFC
9000
ENDCHAR
STARTCHAR U+81B5
ENCODING 33205
SWIDTH 1000 0
DWIDTH 16 0
BBX 16 16 0 -2
BITMAP
0090
7890
4FFE
4890
7820
4BFE
4908
4908
7A94
4C40
4FFE
4840
4840
4840
A840
9040
ENDCHAR
STARTCHAR U+81B8
ENCODING 33208
SWIDTH 1000 0
DWIDTH 16 0
BBX 16 16 0 -2
BITMAP
0020
7820
4CFE
4A40
7A7E
4888
4F7E
4900
797C
4944
497C
4944
497C
4944
AAC8
947E
ENDCHAR
STARTCHAR U+81BA
ENCODING 33210
SWIDTH 1000 0
DWIDTH 16 0
BBX 16 16 0 -2
BITMAP
0080
3FFE
2520
2BFC
3D20
29FC
2920
29FC
2800
27FC
2404
27FC
2404
47FC
4404
840C
ENDCHAR
STARTCHAR U+81BD
ENCODING 33213
SWIDTH 1000 0
DWIDTH 16 0
BBX 16 16 0 -2
BITMAP
0080
78F8
4910
4BFE
7E48
4AA4
4B12
4BFE
7A00
4AFC
4A00
4AFC
4A00
4AFC
AA84
94FC
ENDCHAR
STARTCHAR U+81BE
ENCODING 33214
SWIDTH 1000 0
DWIDTH 16 0
BBX 16 16 0 -2
BITMAP
7840
48A0
4918
4BF6
7C04
4BF8
4B58
4AE8
7BF8
4800
4BF8
4A08
4BF8
4A08
ABF8
9208
ENDCHAR
STARTCHAR U+81BF
ENCODING 33215
SWIDTH 1000 0
DWIDTH 16 0
BBX 16 16 0 -2
BITMAP
7890
4BFC
4A94
4BFC
7A94
4BFC
4800
4BFC
7A00
4BFE
4A00
4BFE
4A92
4A94
AACE
9484
ENDCHAR
STARTCHAR U+81C0
ENCODING 33216
SWIDTH 1000 0
DWIDTH 16 0
BBX 16 16 0 -2
BITMAP
3F78
2148
3F48
2A86
3F7C
2A48
5F30
8A48
1186
1FF0
1010
1FF0
1010
1FF0
1010
1030
ENDCHAR
STARTCHAR U+81C2
ENCODING 33218
SWIDTH 1000 0
DWIDTH 16 0
BBX 16 16 0 -2
BITMAP
3C20
25FE
3C88
21FE
7C20
A5FE
3C20
0020
1FF0
1010
1FF0
1010
1FF0
1010
1050
1020
ENDCHAR
STARTCHAR U+81C6
ENCODING 33222
SWIDTH 1000 0
DWIDTH 16 0
BBX 16 16 0 -2
BITMAP
0080
7840
4BFC
4890
7FFE
4800
49F8
4908
79F8
4908
49F8
4844
4AA2
4A8A
AC8A
9070
ENDCHAR
STARTCHAR U+81C8
ENCODING 33224
SWIDTH 1000 0
DWIDTH 16 0
BBX 16 16 0 -2
BITMAP
0088
7BFE
4888
49FC
7904
49FC
4904
79FC
4900
49FE
4B22
4D52
498A
49FA
A802
9006
ENDCHAR
STARTCHAR U+81C9
ENCODING 33225
SWIDTH 1000 0
DWIDTH 16 0
BBX 16 16 0 -2
BITMAP
0040
7840
48A0
4918
7BF6
4C04
4BB8
4AA8
7AA8
4BB8
4910
4910
4910
4A90
AAA8
9444
ENDCHAR
STARTCHAR U+81CD
ENCODING 33229
SWIDTH 1000 0
DWIDTH 16 0
BBX 16 16 0 -2
BITMAP
0080
7840
4FFE
4852
7FAC
4AAA
4AAA
4AAA
7DAA
4A0A
4BF8
4A08
4BF8
4A08
AA08
9408
ENDCHAR
STARTCHAR U+81D1
ENCODING 33233
SWIDTH 1000 0
DWIDTH 16 0
BBX 16 16 0 -2
BITMAP
7BFC
4820
4BFE
4A22
7928
48A4
4800
4FFE
7840
4BFC
4A94
4A94
4A94
4A94
AA94
920C
ENDCHAR
STARTCHAR U+81D3
ENCODING 33235
SWIDTH 1000 0
DWIDTH 16 0
BBX 16 16 0 -2
BITMAP
0088
7BFE
4888
4814
7BFE
4A10
4BF0
4A92
7BEA
4A2A
4BEC
4A88
4BFA
4A16
AA22
9440
ENDCHAR
STARTCHAR U+81D8
ENCODING 33240
SWIDTH 1000 0
DWIDTH 16 0
BBX 16 16 0 -2
BITMAP
0124
7948
4A90
4948
7BFC
4AA4
4A44
4AA4
7BFC
4A48
4B68
4A48
4B68
4A4A
4B6A
9A44
ENDCHAR
STARTCHAR U+81D9
ENCODING 33241
SWIDTH 1000 0
DWIDTH 16 0
BBX 16 16 0 -2
BITMAP
0110
7FFE
4910
49F0
7A08
4EEA
4AAC
4AA8
7AAA
4EEE
4A00
4800
4AA4
4A52
AA52
9400
ENDCHAR
STARTCHAR U+81DA
ENCODING 33242
SWIDTH 1000 0
DWIDTH 16 0
BBX 16 16 0 -2
BITMAP
0040
707C
5040
57FE
7440
55F8
5444
75FC
5524
55FC
5524
55FC
5554
5554
97FE
A800
ENDCHAR
STARTCHAR U+81DF
ENCODING 33247
SWIDTH 1000 0
DWIDTH 16 0
BBX 16 16 0 -2
BITMAP
7108
57FE
5108
5108
73FE
5A08
5BE8
5E8A
73EA
522A
5E2C
53E8
5294
53F4
5226
B442
ENDCHAR
STARTCHAR U+81E0
ENCODING 33248
SWIDTH 1000 0
DWIDTH 16 0
BBX 16 16 0 -2
BITMAP
2108
2FD2
703C
2B88
783E
0780
54AA
57AA
8100
3FF8
2288
2548
2108
2288
2448
2018
ENDCHAR
STARTCHAR U+81E3
ENCODING 33251
SWIDTH 1000 0
DWIDTH 16 0
BBX 16 16 0 -2
BITMAP
0000
3FFC
2100
2100
2100
3FF8
2008
2008
2008
3FF8
2100
2100
2100
2100
3FFE
0000
ENDCHAR
STARTCHAR U+81E5
ENCODING 33253
SWIDTH 1000 0
DWIDTH 16 0
BBX 16 16 0 -2
BITMAP
0020
7F20
4820
4820
7E20
4220
4220
4250
7E50
4850
4888
4888
7F0C
0104
0206
0404
ENDCHAR
STARTCHAR U+81E7
ENCODING 33255
SWIDTH 1000 0
DWIDTH 16 0
BBX 16 16 0 -2
BITMAP
0028
0024
1FFE
5020
57A0
5524
7526
17A4
F4A8
5790
5510
5532
97CA
2086
2102
4000
ENDCHAR
STARTCHAR U+81E8
ENCODING 33256
SWIDTH 1000 0
DWIDTH 16 0
BBX 16 16 0 -2
BITMAP
0080
0080
7FFE
5100
52F8
7C88
4488
44F8
4400
7DDE
5152
5152
5152
51DE
7D52
0000
ENDCHAR
STARTCHAR U+81EA
ENCODING 33258
SWIDTH 1000 0
DWIDTH 16 0
BBX 16 16 0 -2
BITMAP
0100
0180
0200
1FF8
1008
1008
1FF8
1008
1008
1008
1FF8
1008
1008
1008
1FF8
1008
ENDCHAR
STARTCHAR U+81ED
ENCODING 33261
SWIDTH 1000 0
DWIDTH 16 0
BBX 16 16 0 -2
BITMAP
0200
1FF0
1010
1FF0
1010
1FF0
1010
1FF0
1110
0100
FFFE
0280
0440
0830
101C
6008
ENDCHAR
STARTCHAR U+81F3
ENCODING 33267
SWIDTH 1000 0
DWIDTH 16 0
BBX 16 16 0 -2
BITMAP
0000
7FFC
0200
0420
0810
13F8
3D10
0100
0100
3FF8
0100
0100
0100
FFFE
0000
0000
ENDCHAR
STARTCHAR U+81F4
ENCODING 33268
SWIDTH 1000 0
DWIDTH 16 0
BBX 16 16 0 -2
BITMAP
0040
7F60
1040
1440
22FE
7F88
0A48
0848
7F48
0850
0820
0820
0F50
7888
0106
0204
ENDCHAR
STARTCHAR U+81FA
ENCODING 33274
SWIDTH 1000 0
DWIDTH 16 0
BBX 16 16 0 -2
BITMAP
0100
7FFC
0100
0FE0
0000
1FF0
1010
7FFE
4004
9FF0
0420
0FF0
0110
1FF8
0100
7FFE
ENDCHAR
STARTCHAR U+81FB
ENCODING 33275
SWIDTH 1000 0
DWIDTH 16 0
BBX 16 16 0 -2
BITMAP
0040
FC40
23FC
2040
4BF8
FC80
0BFC
2110
FAE8
2446
2BFA
20E0
3950
E24C
0448
0040
ENDCHAR
STARTCHAR U+81FC
ENCODING 33276
SWIDTH 1000 0
DWIDTH 16 0
BBX 16 16 0 -2
BITMAP
0200
0700
387C
2004
2004
2004
2004
3E7C
2004
2004
2004
2004
2004
3FFC
2004
0000
ENDCHAR
STARTCHAR U+81FE
ENCODING 33278
SWIDTH 1000 0
DWIDTH 16 0
BBX 16 16 0 -2
BITMAP
0100
0D00
3178
2108
2108
3D78
2108
2108
3FF8
2108
0280
0240
0420
0810
101C
2008
ENDCHAR
STARTCHAR U+8201
ENCODING 33281
SWIDTH 1000 0
DWIDTH 16 0
BBX 16 16 0 -2
BITMAP
0600
38F8
2008
3EF8
2008
2008
3FF8
2448
0440
FFFE
0440
0440
0840
0840
1040
2040
ENDCHAR
STARTCHAR U+8202
ENCODING 33282
SWIDTH 1000 0
DWIDTH 16 0
BBX 16 16 0 -2
BITMAP
0100
7FFC
0100
3FF8
0200
FFFE
0440
0820
12F8
3C16
D010
1EF0
1010
1010
1FF0
1010
ENDCHAR
STARTCHAR U+8205
ENCODING 33285
SWIDTH 1000 0
DWIDTH 16 0
BBX 16 16 0 -2
BITMAP
0600
38F8
2008
3CF8
2008
3FF8
0000
3FF8
2108
3FF8
2108
3FF8
0200
3FF8
0408
3818
ENDCHAR
STARTCHAR U+8207
ENCODING 33287
SWIDTH 1000 0
DWIDTH 16 0
BBX 16 16 0 -2
BITMAP
0A00
3238
2388
2208
3BB8
2088
2288
3AB8
2288
FFFE
0800
0C20
1818
100C
2006
4004
ENDCHAR
STARTCHAR U+8208
ENCODING 33288
SWIDTH 1000 0
DWIDTH 16 0
BBX 16 16 0 -2
BITMAP
0800
37D8
2448
37C8
2458
27C8
36D8
27C8
2448
FFFE
0800
0C20
1810
1018
200C
4008
ENDCHAR
STARTCHAR U+8209
ENCODING 33289
SWIDTH 1000 0
DWIDTH 16 0
BBX 16 16 0 -2
BITMAP
0200
3BB8
2208
3BB8
2088
3AB8
2288
FFFE
0520
0FF8
310E
C104
1FF8
0100
0100
0100
ENDCHAR
STARTCHAR U+820A
ENCODING 33290
SWIDTH 1000 0
DWIDTH 16 0
BBX 16 16 0 -2
BITMAP
0420
7FFE
0D20
08A0
1FFC
3080
5FF8
9080
1FFC
0600
38F8
2008
3E78
2008
3FF8
2008
ENDCHAR
STARTCHAR U+820C
ENCODING 33292
SWIDTH 1000 0
DWIDTH 16 0
BBX 16 16 0 -2
BITMAP
00F8
7F00
0100
0100
0100
FFFE
0100
0100
3FF8
2008
2008
2008
2008
3FF8
2008
0000
ENDCHAR
STARTCHAR U+820D
ENCODING 33293
SWIDTH 1000 0
DWIDTH 16 0
BBX 16 16 0 -2
BITMAP
0100
0280
0440
0830
3FEE
C104
0100
7FFC
0100
0100
1FF0
1010
1010
1010
1FF0
1010
ENDCHAR
STARTCHAR U+820E
ENCODING 33294
SWIDTH 1000 0
DWIDTH 16 0
BBX 16 16 0 -2
BITMAP
0100
0280
0440
0930
310E
DFF4
0100
0100
7FFE
0000
1FF0
1010
1010
1010
1FF0
1010
ENDCHAR
STARTCHAR U+8210
ENCODING 33296
SWIDTH 1000 0
DWIDTH 16 0
BBX 16 16 0 -2
BITMAP
0C1C
F0F0
1090
1090
1090
FE90
10FE
1090
7C90
4490
4490
4490
7CAA
44CA
4084
0000
ENDCHAR
STARTCHAR U+8212
ENCODING 33298
SWIDTH 1000 0
DWIDTH 16 0
BBX 16 16 0 -2
BITMAP
1000
11FC
2804
2448
4330
FE10
11FE
FE14
1010
1010
7E10
4210
4210
7E50
4220
0000
ENDCHAR
STARTCHAR U+8216
ENCODING 33302
SWIDTH 1000 0
DWIDTH 16 0
BBX 16 16 0 -2
BITMAP
1020
1028
2824
27FE
4420
B9FC
1124
FDFC
1124
7D24
45FC
4524
4524
7D24
452C
0000
ENDCHAR
STARTCHAR U+8217
ENCODING 33303
SWIDTH 1000 0
DWIDTH 16 0
BBX 16 16 0 -2
BITMAP
0810
0814
1414
22FE
4B10
88FE
7E92
08FE
7E92
0092
7EFE
4292
4292
7E92
4292
0086
ENDCHAR
STARTCHAR U+8218
ENCODING 33304
SWIDTH 1000 0
DWIDTH 16 0
BBX 16 16 0 -2
BITMAP
1020
1010
2DFE
4302
FE00
10F8
1088
FEF8
1080
7C80
44FC
4484
4484
7CFC
4484
0000
ENDCHAR
STARTCHAR U+821B
ENCODING 33307
SWIDTH 1000 0
DWIDTH 16 0
BBX 16 16 0 -2
BITMAP
1010
1810
1010
1EFE
2210
2290
6290
9490
1490
09FE
0810
1010
2010
4010
8010
0000
ENDCHAR
STARTCHAR U+821C
ENCODING 33308
SWIDTH 1000 0
DWIDTH 16 0
BBX 16 16 0 -2
BITMAP
0038
3FD0
1218
0920
3FFE
2004
5020
1EFC
2220
22A0
55FE
8820
1020
2020
4020
8020
ENDCHAR
STARTCHAR U+821E
ENCODING 33310
SWIDTH 1000 0
DWIDTH 16 0
BBX 16 16 0 -2
BITMAP
1000
1FFC
2A50
4A50
BFFE
0A50
7FFE
1010
1010
3EFE
2250
5490
08FE
1010
2010
4010
ENDCHAR
STARTCHAR U+821F
ENCODING 33311
SWIDTH 1000 0
DWIDTH 16 0
BBX 16 16 0 -2
BITMAP
0100
0200
0FF0
0810
0910
0890
0810
FFFE
0810
0A10
0990
0890
1010
1010
2050
4020
ENDCHAR
STARTCHAR U+8229
ENCODING 33321
SWIDTH 1000 0
DWIDTH 16 0
BBX 16 16 0 -2
BITMAP
1000
2010
7C90
44D0
6488
5488
5504
FD46
4664
6440
5490
5488
4504
47FE
5504
8800
ENDCHAR
STARTCHAR U+822A
ENCODING 33322
SWIDTH 1000 0
DWIDTH 16 0
BBX 16 16 0 -2
BITMAP
0840
1020
3C00
25FC
3400
2CF0
2490
FC90
2490
3490
2C90
2490
2492
4512
550E
8A00
ENDCHAR
STARTCHAR U+822B
ENCODING 33323
SWIDTH 1000 0
DWIDTH 16 0
BBX 16 16 0 -2
BITMAP
0840
1020
3C10
25FE
3440
2C40
2440
FC7C
2444
3444
2C44
2444
2484
4484
5514
8A08
ENDCHAR
STARTCHAR U+822C
ENCODING 33324
SWIDTH 1000 0
DWIDTH 16 0
BBX 16 16 0 -2
BITMAP
0800
10F8
3C88
2488
3488
2C88
2506
FE00
25FC
3488
2C90
2460
2460
4490
550E
8A04
ENDCHAR
STARTCHAR U+822E
ENCODING 33326
SWIDTH 1000 0
DWIDTH 16 0
BBX 16 16 0 -2
BITMAP
1040
1030
3C10
24FC
3484
2C84
FC84
24FC
3484
2C80
2480
2480
2480
4500
5500
8A00
ENDCHAR
STARTCHAR U+8233
ENCODING 33331
SWIDTH 1000 0
DWIDTH 16 0
BBX 16 16 0 -2
BITMAP
0810
1010
3C10
2410
34FE
2C92
2492
FC92
24FE
3492
2C92
2492
2492
44FE
5482
8800
ENDCHAR
STARTCHAR U+8235
ENCODING 33333
SWIDTH 1000 0
DWIDTH 16 0
BBX 16 16 0 -2
BITMAP
0840
1020
3C20
25FE
3504
2E48
2440
FC48
245C
3460
2C40
2440
2444
4446
543C
8800
ENDCHAR
STARTCHAR U+8236
ENCODING 33334
SWIDTH 1000 0
DWIDTH 16 0
BBX 16 16 0 -2
BITMAP
0820
1020
3E40
22FC
3284
2A84
FE84
22FC
3284
2E84
2A84
2284
2284
42FC
4A84
8400
ENDCHAR
STARTCHAR U+8237
ENCODING 33335
SWIDTH 1000 0
DWIDTH 16 0
BBX 16 16 0 -2
BITMAP
0840
1020
3DFE
2440
3460
2C48
248C
FDF8
2410
3420
2C28
2444
249E
45F6
5404
8800
ENDCHAR
STARTCHAR U+8238
ENCODING 33336
SWIDTH 1000 0
DWIDTH 16 0
BBX 16 16 0 -2
BITMAP
0800
1000
3EFE
2204
3204
2AF4
FE94
2294
3294
2AF4
2A94
2204
2204
4204
4A14
8408
ENDCHAR
STARTCHAR U+8239
ENCODING 33337
SWIDTH 1000 0
DWIDTH 16 0
BBX 16 16 0 -2
BITMAP
0800
10F8
3C88
2488
3488
2C88
250E
FE00
2400
34FC
2C84
2484
2484
44FC
5484
8800
ENDCHAR
STARTCHAR U+8240
ENCODING 33344
SWIDTH 1000 0
DWIDTH 16 0
BBX 16 16 0 -2
BITMAP
1000
203C
7DE4
4546
64A4
54A8
45F8
FC10
4420
67FE
5420
4420
4420
4420
54A0
8840
ENDCHAR
STARTCHAR U+8247
ENCODING 33351
SWIDTH 1000 0
DWIDTH 16 0
BBX 16 16 0 -2
BITMAP
0800
130C
3D70
2510
3510
2D10
27FE
FC90
2490
3490
2EBC
2500
2480
4540
553E
8A00
ENDCHAR
STARTCHAR U+8258
ENCODING 33368
SWIDTH 1000 0
DWIDTH 16 0
BBX 16 16 0 -2
BITMAP
10A0
212C
3D24
25AC
3524
2D24
25FC
FC00
25FC
3488
2C88
2450
2420
4458
548E
8904
ENDCHAR
STARTCHAR U+8259
ENCODING 33369
SWIDTH 1000 0
DWIDTH 16 0
BBX 16 16 0 -2
BITMAP
1020
2020
7C50
4488
6526
56FC
4484
FCFC
4484
64FC
5480
44FC
4544
4544
557C
8A00
ENDCHAR
STARTCHAR U+825A
ENCODING 33370
SWIDTH 1000 0
DWIDTH 16 0
BBX 16 16 0 -2
BITMAP
1048
2048
7DFE
4448
65FE
554A
45FE
FD4A
45FE
6400
54FC
5484
44FC
4484
94FC
8884
ENDCHAR
STARTCHAR U+825D
ENCODING 33373
SWIDTH 1000 0
DWIDTH 16 0
BBX 16 16 0 -2
BITMAP
1000
21FC
7C20
45FE
6622
55AC
4420
FD8C
4400
65FC
5404
45FC
4404
4404
55FC
8800
ENDCHAR
STARTCHAR U+825F
ENCODING 33375
SWIDTH 1000 0
DWIDTH 16 0
BBX 16 16 0 -2
BITMAP
1040
1020
3DFC
2488
37FE
2C00
25FC
FD24
25FC
3524
2DFC
2420
45FC
5420
8BFE
0000
ENDCHAR
STARTCHAR U+8262
ENCODING 33378
SWIDTH 1000 0
DWIDTH 16 0
BBX 16 16 0 -2
BITMAP
1020
2020
7FFE
4528
6528
56B4
47FE
FC00
45FC
6504
5574
5554
4574
4504
95FC
8800
ENDCHAR
STARTCHAR U+95BB
ENCODING 38331
SWIDTH 1000 0
DWIDTH 16 0
BBX 16 16 0 -2
BITMAP
7EFC
4284
7EFC
4284
7EFC
4104
43E4
4C44
4204
4CE4
4824
4EE4
4824
4FE4
4004
400C
ENDCHAR
STARTCHAR U+8264
ENCODING 33380
SWIDTH 1000 0
DWIDTH 16 0
BBX 16 16 0 -2
BITMAP
1108
2090
7BFC
4840
69FC
5840
4BFE
F890
4B94
6890
5BFE
4894
48D8
4992
AAAA
9184
ENDCHAR
STARTCHAR U+8266
ENCODING 33382
SWIDTH 1000 0
DWIDTH 16 0
BBX 16 16 0 -2
BITMAP
1008
23EC
7A88
4A88
6BCE
5A54
4BD4
FAA2
4A82
6BE0
5800
4BFC
4A94
4A94
AFFE
9000
ENDCHAR
STARTCHAR U+8268
ENCODING 33384
SWIDTH 1000 0
DWIDTH 16 0
BBX 16 16 0 -2
BITMAP
1090
23FE
7890
4BFE
6A02
58F8
4800
FBFC
4880
6944
5AA8
4930
4A68
48A4
8B22
9860
ENDCHAR
STARTCHAR U+826A
ENCODING 33386
SWIDTH 1000 0
DWIDTH 16 0
BBX 16 16 0 -2
BITMAP
1080
20FC
7908
4BFC
6924
59FC
4924
F9FC
4954
6A52
59FC
4904
49FC
4904
A9FC
9104
ENDCHAR
STARTCHAR U+826B
ENCODING 33387
SWIDTH 1000 0
DWIDTH 16 0
BBX 16 16 0 -2
BITMAP
1020
203C
7820
4BFE
6A22
5AF4
4A24
FAFC
4AA4
6AFC
5AA4
4AFC
4AA4
4AA4
8BFE
9400
ENDCHAR
STARTCHAR U+826E
ENCODING 33390
SWIDTH 1000 0
DWIDTH 16 0
BBX 16 16 0 -2
BITMAP
0000
1FF0
1010
1010
1FF0
1010
1010
1FF0
1208
111C
10A0
1040
1220
1418
380E
1004
ENDCHAR
STARTCHAR U+826F
ENCODING 33391
SWIDTH 1000 0
DWIDTH 16 0
BBX 16 16 0 -2
BITMAP
0200
0100
1FE0
1020
1FE0
1020
1020
1FE0
1210
1230
1140
1080
1040
1430
380E
1004
ENDCHAR
STARTCHAR U+8271
ENCODING 33393
SWIDTH 1000 0
DWIDTH 16 0
BBX 16 16 0 -2
BITMAP
2400
FFFC
2484
3CFC
0884
7E84
4AFC
4AA0
7EA4
08A8
FF90
0890
1488
22A8
43C6
8284
ENDCHAR
STARTCHAR U+8272
ENCODING 33394
SWIDTH 1000 0
DWIDTH 16 0
BBX 16 16 0 -2
BITMAP
0400
0400
07F0
0820
1040
3FF0
5110
1110
1110
1FF0
1000
1004
1004
1004
0FFC
0000
ENDCHAR
STARTCHAR U+8276
ENCODING 33398
SWIDTH 1000 0
DWIDTH 16 0
BBX 16 16 0 -2
BITMAP
1420
7F20
553E
7F44
5588
7FFE
0092
FF92
0092
7EFE
4280
7E80
4482
2882
1F7E
F000
ENDCHAR
STARTCHAR U+8277
ENCODING 33399
SWIDTH 1000 0
DWIDTH 16 0
BBX 16 16 0 -2
BITMAP
2840
AA40
FE7C
AA88
FF10
AAFE
FE92
0092
FE92
00FE
7C80
4480
7C82
4482
2E7E
F000
ENDCHAR
STARTCHAR U+8278
ENCODING 33400
SWIDTH 1000 0
DWIDTH 16 0
BBX 16 16 0 -2
BITMAP
0810
0810
0810
4952
4952
4952
4952
4952
7F7E
4952
0810
0810
1010
1010
2010
4010
ENDCHAR
STARTCHAR U+827E
ENCODING 33406
SWIDTH 1000 0
DWIDTH 16 0
BBX 16 16 0 -2
BITMAP
0440
0440
FFFE
0440
0440
0820
0830
0420
0440
0280
0100
0280
0440
0830
300E
C004
ENDCHAR
STARTCHAR U+828B
ENCODING 33419
SWIDTH 1000 0
DWIDTH 16 0
BBX 16 16 0 -2
BITMAP
0440
0440
7FFE
0440
0000
3FF8
0100
0100
FFFE
0100
0100
0100
0100
0100
0500
0200
ENDCHAR
STARTCHAR U+828D
ENCODING 33421
SWIDTH 1000 0
DWIDTH 16 0
BBX 16 16 0 -2
BITMAP
0440
0440
FFFE
0440
1000
1FF8
1008
2008
4408
0208
0188
0108
0008
0008
0050
0020
ENDCHAR
STARTCHAR U+8292
ENCODING 33426
SWIDTH 1000 0
DWIDTH 16 0
BBX 16 16 0 -2
BITMAP
0420
0420
FFFE
0420
0520
0080
FFFE
1000
1000
1000
1000
1000
1000
1000
1FFC
0000
ENDCHAR
STARTCHAR U+8299
ENCODING 33433
SWIDTH 1000 0
DWIDTH 16 0
BBX 16 16 0 -2
BITMAP
0840
0840
FFFE
0840
0940
0100
3FFC
0100
0100
FFFE
0280
0240
0420
0818
100E
6004
ENDCHAR
STARTCHAR U+829D
ENCODING 33437
SWIDTH 1000 0
DWIDTH 16 0
BBX 16 16 0 -2
BITMAP
0420
0420
FFFE
0420
0520
0080
3FF8
0010
0020
00C0
0300
0C00
3000
4C00
83FE
0000
ENDCHAR
STARTCHAR U+829F
ENCODING 33439
SWIDTH 1000 0
DWIDTH 16 0
BBX 16 16 0 -2
BITMAP
0440
FFFE
0440
0000
0FE0
0820
0820
101C
2FE0
0420
0420
0240
0180
0660
181E
6004
ENDCHAR
STARTCHAR U+82A5
ENCODING 33445
SWIDTH 1000 0
DWIDTH 16 0
BBX 16 16 0 -2
BITMAP
0420
0420
7FFE
0420
0520
0100
02C0
0430
180E
E424
0420
0420
0820
0820
1020
2020
ENDCHAR
STARTCHAR U+82A6
ENCODING 33446
SWIDTH 1000 0
DWIDTH 16 0
BBX 16 16 0 -2
BITMAP
0420
0420
FFFE
0520
0080
1FF8
1008
1008
1FF8
1008
1000
1000
2000
2000
4000
8000
ENDCHAR
STARTCHAR U+82AB
ENCODING 33451
SWIDTH 1000 0
DWIDTH 16 0
BBX 16 16 0 -2
BITMAP
0440
0440
FFFE
0440
0440
3FF8
0000
0000
FFFE
0440
0440
0440
0844
0844
103C
2000
ENDCHAR
STARTCHAR U+82AC
ENCODING 33452
SWIDTH 1000 0
DWIDTH 16 0
BBX 16 16 0 -2
BITMAP
0440
0440
FFFE
0440
0440
0820
0C10
0808
17E6
2224
4220
0420
0420
0820
10A0
2040
ENDCHAR
STARTCHAR U+82AD
ENCODING 33453
SWIDTH 1000 0
DWIDTH 16 0
BBX 16 16 0 -2
BITMAP
0440
0440
FFFE
0440
0440
1FF0
1110
1110
1110
1FF0
1000
1004
1004
1006
0FFC
0000
ENDCHAR
STARTCHAR U+82AF
ENCODING 33455
SWIDTH 1000 0
DWIDTH 16 0
BBX 16 16 0 -2
BITMAP
0420
0420
7FFE
0420
0420
0200
0100
0990
0888
4884
4806
4814
8810
0818
07F0
0000
ENDCHAR
STARTCHAR U+82B1
ENCODING 33457
SWIDTH 1000 0
DWIDTH 16 0
BBX 16 16 0 -2
BITMAP
0440
0440
FFFE
0440
0800
0C80
0890
1898
28A0
48C0
0980
0A84
0884
0886
087C
0800
ENDCHAR
STARTCHAR U+82B3
ENCODING 33459
SWIDTH 1000 0
DWIDTH 16 0
BBX 16 16 0 -2
BITMAP
0420
0420
FFFE
0420
0520
0080
FFFE
0400
0400
07F0
0410
0810
0810
1010
20A0
4040
ENDCHAR
STARTCHAR U+82B8
ENCODING 33464
SWIDTH 1000 0
DWIDTH 16 0
BBX 16 16 0 -2
BITMAP
0420
0420
7FFE
0420
0420
1FF8
0000
0000
FFFE
0200
0320
0410
0808
11FC
3F08
0000
ENDCHAR
STARTCHAR U+82B9
ENCODING 33465
SWIDTH 1000 0
DWIDTH 16 0
BBX 16 16 0 -2
BITMAP
0440
0440
FFFE
0440
00F8
1F00
1000
1000
1FFE
1040
1040
1040
2040
2040
4040
8040
ENDCHAR
STARTCHAR U+82BB
ENCODING 33467
SWIDTH 1000 0
DWIDTH 16 0
BBX 16 16 0 -2
BITMAP
0800
1FFC
2104
5114
9FF4
0204
041C
0800
1FFC
6104
1124
1FE4
0124
0204
0C14
3008
ENDCHAR
STARTCHAR U+82BD
ENCODING 33469
SWIDTH 1000 0
DWIDTH 16 0
BBX 16 16 0 -2
BITMAP
0A40
0424
7FFE
0460
3FDC
1020
0C20
0820
1F7E
10A0
0120
0220
0C20
7120
80E0
0000
ENDCHAR
STARTCHAR U+82C5
ENCODING 33477
SWIDTH 1000 0
DWIDTH 16 0
BBX 16 16 0 -2
BITMAP
0A60
0440
FFFE
0440
0040
05AC
4248
2648
1448
0848
1448
1648
2208
C238
0018
0000
ENDCHAR
STARTCHAR U+82D1
ENCODING 33489
SWIDTH 1000 0
DWIDTH 16 0
BBX 16 16 0 -2
BITMAP
0420
0420
7FFE
0420
2420
20F8
3E88
2288
4288
5288
8AB8
0490
0882
1082
207E
4000
ENDCHAR
STARTCHAR U+82D2
ENCODING 33490
SWIDTH 1000 0
DWIDTH 16 0
BBX 16 16 0 -2
BITMAP
0820
0820
FFFE
0920
0920
3FF8
2108
2108
3FF8
2108
2108
FFFE
2008
2048
2028
2010
ENDCHAR
STARTCHAR U+82D3
ENCODING 33491
SWIDTH 1000 0
DWIDTH 16 0
BBX 16 16 0 -2
BITMAP
0420
0420
FFFE
0520
0100
0280
0460
1918
E086
5FF8
0010
0020
0240
0180
00C0
0080
ENDCHAR
STARTCHAR U+82D4
ENCODING 33492
SWIDTH 1000 0
DWIDTH 16 0
BBX 16 16 0 -2
BITMAP
0440
0440
7FFE
0440
0200
0410
0808
10FC
3F88
0000
1FF0
1010
1010
1010
1FF0
1010
ENDCHAR
STARTCHAR U+82D7
ENCODING 33495
SWIDTH 1000 0
DWIDTH 16 0
BBX 16 16 0 -2
BITMAP
0820
0820
0820
7FFE
0820
0820
3FF8
2108
2108
3FF8
2108
2108
2108
3FF8
2008
0000
ENDCHAR
STARTCHAR U+82D9
ENCODING 33497
SWIDTH 1000 0
DWIDTH 16 0
BBX 16 16 0 -2
BITMAP
0840
0840
FFFE
0840
0100
0080
7FFC
1020
0830
0820
0420
0440
0440
FFFE
0000
0000
ENDCHAR
STARTCHAR U+82DB
ENCODING 33499
SWIDTH 1000 0
DWIDTH 16 0
BBX 16 16 0 -2
BITMAP
0440
0440
FFFE
0440
0000
7FFC
0010
1F90
1090
1090
1F90
1090
0010
0090
0050
0020
ENDCHAR
STARTCHAR U+82DC
ENCODING 33500
SWIDTH 1000 0
DWIDTH 16 0
BBX 16 16 0 -2
BITMAP
0440
0440
FFFE
0440
1FF8
1008
1008
1FF8
1008
1008
1FF8
1008
1008
1FF8
1008
1008
ENDCHAR
STARTCHAR U+82DE
ENCODING 33502
SWIDTH 1000 0
DWIDTH 16 0
BBX 16 16 0 -2
BITMAP
0440
0440
FFFE
1440
1000
1FF8
2008
2008
5F88
1088
1F88
1028
1012
1002
0FFE
0000
ENDCHAR
STARTCHAR U+82DF
ENCODING 33503
SWIDTH 1000 0
DWIDTH 16 0
BBX 16 16 0 -2
BITMAP
0440
0440
FFFE
0440
1440
1FFC
1004
2004
4FC4
8844
0844
0844
0FC4
0004
0014
0008
ENDCHAR
STARTCHAR U+82E1
ENCODING 33505
SWIDTH 1000 0
DWIDTH 16 0
BBX 16 16 0 -2
BITMAP
0440
0440
FFFE
0440
0008
2408
2208
2308
2208
2010
2010
2410
2828
3044
2086
0304
ENDCHAR
STARTCHAR U+82E3
ENCODING 33507
SWIDTH 1000 0
DWIDTH 16 0
BBX 16 16 0 -2
BITMAP
0420
0420
FFFE
0420
3FFC
2000
2000
3FF0
2010
2010
3FF0
2010
2000
2000
3FFE
0000
ENDCHAR
STARTCHAR U+82E5
ENCODING 33509
SWIDTH 1000 0
DWIDTH 16 0
BBX 16 16 0 -2
BITMAP
0420
0420
7FFE
0420
0520
0200
FFFE
0400
0800
1FF8
2808
4808
8808
0FF8
0808
0000
ENDCHAR
STARTCHAR U+82E6
ENCODING 33510
SWIDTH 1000 0
DWIDTH 16 0
BBX 16 16 0 -2
BITMAP
0420
0420
7FFE
0420
0520
0100
FFFE
0100
0100
1FF0
1010
1010
1010
1FF0
1010
0000
ENDCHAR
STARTCHAR U+82E7
ENCODING 33511
SWIDTH 1000 0
DWIDTH 16 0
BBX 16 16 0 -2
BITMAP
0820
0820
FFFE
0920
0100
3FFE
4004
0000
7FFE
0100
0100
0100
0100
0100
0500
0200
ENDCHAR
STARTCHAR U+82EB
ENCODING 33515
SWIDTH 1000 0
DWIDTH 16 0
BBX 16 16 0 -2
BITMAP
0420
0420
7FFE
0420
0520
0100
01FC
0100
0100
3FF8
2008
2008
2008
3FF8
2008
0000
ENDCHAR
STARTCHAR U+82F1
ENCODING 33521
SWIDTH 1000 0
DWIDTH 16 0
BBX 16 16 0 -2
BITMAP
0420
0420
FFFE
0420
0100
1FF0
1110
1110
1110
FFFE
0100
0280
0440
0830
101C
2008
ENDCHAR
STARTCHAR U+82F3
ENCODING 33523
SWIDTH 1000 0
DWIDTH 16 0
BBX 16 16 0 -2
BITMAP
0820
0820
FFFE
0860
0400
0FF8
1420
6240
0180
0660
191E
E084
0040
0200
0180
0080
ENDCHAR
STARTCHAR U+82F4
ENCODING 33524
SWIDTH 1000 0
DWIDTH 16 0
BBX 16 16 0 -2
BITMAP
0420
0420
FFFE
0420
0000
1FF0
1010
1010
1FF0
1010
1010
1FF0
1010
1010
FFFE
0000
ENDCHAR
STARTCHAR U+82F9
ENCODING 33529
SWIDTH 1000 0
DWIDTH 16 0
BBX 16 16 0 -2
BITMAP
0440
0440
FFFE
0440
0440
3FFC
1110
0918
0D20
0940
FFFE
0100
0100
0100
0100
0100
ENDCHAR
STARTCHAR U+82FA
ENCODING 33530
SWIDTH 1000 0
DWIDTH 16 0
BBX 16 16 0 -2
BITMAP
0440
0440
7FFE
0440
0FF0
0A10
0910
0910
FFFE
1110
1090
3FFE
1010
0010
0050
0020
ENDCHAR
STARTCHAR U+82FB
ENCODING 33531
SWIDTH 1000 0
DWIDTH 16 0
BBX 16 16 0 -2
BITMAP
0440
0440
FFFE
0440
1450
1810
1010
37FE
3010
5110
9090
10D0
1090
1010
1050
1020
ENDCHAR
STARTCHAR U+8302
ENCODING 33538
SWIDTH 1000 0
DWIDTH 16 0
BBX 16 16 0 -2
BITMAP
0440
0440
FFFE
0440
00A0
0090
3FFE
2080
2084
2048
2050
2060
20A0
4312
4C0A
8004
ENDCHAR
STARTCHAR U+8303
ENCODING 33539
SWIDTH 1000 0
DWIDTH 16 0
BBX 16 16 0 -2
BITMAP
0420
0420
FFFE
0460
4000
31F8
9108
6108
4908
0938
1110
E100
2104
2104
20FC
2000
ENDCHAR
STARTCHAR U+8304
ENCODING 33540
SWIDTH 1000 0
DWIDTH 16 0
BBX 16 16 0 -2
BITMAP
0420
0420
FFFE
0420
0420
0800
087C
7F44
0944
0944
1144
1144
2144
477C
8244
0000
ENDCHAR
STARTCHAR U+8305
ENCODING 33541
SWIDTH 1000 0
DWIDTH 16 0
BBX 16 16 0 -2
BITMAP
0440
0440
FFFE
0440
0000
3FF8
0230
0140
7FFE
0184
0288
0480
0880
3080
C280
0100
ENDCHAR
STARTCHAR U+8306
ENCODING 33542
SWIDTH 1000 0
DWIDTH 16 0
BBX 16 16 0 -2
BITMAP
0420
7FFE
0420
0020
0600
38FC
2284
2284
2284
2E84
7284
249C
0488
0880
1080
2080
ENDCHAR
STARTCHAR U+8309
ENCODING 33545
SWIDTH 1000 0
DWIDTH 16 0
BBX 16 16 0 -2
BITMAP
0420
0420
FFFE
0420
0100
7FFE
0100
0100
3FF8
0340
0520
0930
111C
2108
4100
0100
ENDCHAR
STARTCHAR U+830E
ENCODING 33550
SWIDTH 1000 0
DWIDTH 16 0
BBX 16 16 0 -2
BITMAP
0420
0420
7FFE
0420
1FE0
0040
0080
0340
0C30
300E
DFF4
0100
0100
0100
0100
7FFC
ENDCHAR
STARTCHAR U+8316
ENCODING 33558
SWIDTH 1000 0
DWIDTH 16 0
BBX 16 16 0 -2
BITMAP
0440
0440
FFFE
0440
0800
0FF0
0C20
1240
2180
0260
041E
1FF4
6810
0810
0FF0
0000
ENDCHAR
STARTCHAR U+8317
ENCODING 33559
SWIDTH 1000 0
DWIDTH 16 0
BBX 16 16 0 -2
BITMAP
0420
FFFE
0420
0800
0FF0
0820
1420
2240
0180
0670
3FFE
C810
0810
0810
0FF0
0810
ENDCHAR
STARTCHAR U+8318
ENCODING 33560
SWIDTH 1000 0
DWIDTH 16 0
BBX 16 16 0 -2
BITMAP
0420
FFFE
0420
0000
1FF0
0410
0410
0470
0820
7EFC
1224
1224
1224
2244
4A54
8488
ENDCHAR
STARTCHAR U+831C
ENCODING 33564
SWIDTH 1000 0
DWIDTH 16 0
BBX 16 16 0 -2
BITMAP
0440
0440
FFFE
0440
0440
FFFE
0440
0440
3FF8
2448
2448
2438
2808
3008
3FF8
2008
ENDCHAR
STARTCHAR U+8323
ENCODING 33571
SWIDTH 1000 0
DWIDTH 16 0
BBX 16 16 0 -2
BITMAP
0420
7FFE
0420
0420
1FF8
1008
1FF8
0000
3FF8
0100
0100
7FFC
0280
0C60
301E
C004
ENDCHAR
STARTCHAR U+8328
ENCODING 33576
SWIDTH 1000 0
DWIDTH 16 0
BBX 16 16 0 -2
BITMAP
0440
0440
FFFE
0440
4100
31FC
2908
0A50
1440
1040
E0A0
20A0
2110
2218
240E
2804
ENDCHAR
STARTCHAR U+832B
ENCODING 33579
SWIDTH 1000 0
DWIDTH 16 0
BBX 16 16 0 -2
BITMAP
0420
0420
FFFE
0420
2440
1020
97FE
4900
4900
1100
1100
E100
2100
23FE
2100
2000
ENDCHAR
STARTCHAR U+832F
ENCODING 33583
SWIDTH 1000 0
DWIDTH 16 0
BBX 16 16 0 -2
BITMAP
0420
7FFE
0420
0840
0C50
1848
1040
37FE
5040
90A0
10A0
1090
1110
1108
1206
1404
ENDCHAR
STARTCHAR U+8331
ENCODING 33585
SWIDTH 1000 0
DWIDTH 16 0
BBX 16 16 0 -2
BITMAP
0420
FFFE
0420
1520
1100
1FF8
1100
2100
FFFE
0380
0540
0920
1118
210E
4104
0100
ENDCHAR
STARTCHAR U+8332
ENCODING 33586
SWIDTH 1000 0
DWIDTH 16 0
BBX 16 16 0 -2
BITMAP
0420
0420
FFFE
0420
0800
0C40
1068
228C
7CF8
0810
0820
1448
2E84
72FE
0204
0000
ENDCHAR
STARTCHAR U+8334
ENCODING 33588
SWIDTH 1000 0
DWIDTH 16 0
BBX 16 16 0 -2
BITMAP
0440
0440
FFFE
0440
0440
3FFC
2004
2004
27E4
2424
2424
27E4
2004
2004
3FFC
2004
ENDCHAR
STARTCHAR U+8335
ENCODING 33589
SWIDTH 1000 0
DWIDTH 16 0
BBX 16 16 0 -2
BITMAP
0820
0820
FFFE
0820
3FF8
2108
2108
2FE8
2108
2108
2288
2468
2848
2008
3FF8
2008
ENDCHAR
STARTCHAR U+8336
ENCODING 33590
SWIDTH 1000 0
DWIDTH 16 0
BBX 16 16 0 -2
BITMAP
0420
0420
7FFE
0420
0520
0280
0460
1918
2FF6
C100
0940
0D20
1110
2118
4510
0200
ENDCHAR
STARTCHAR U+8338
ENCODING 33592
SWIDTH 1000 0
DWIDTH 16 0
BBX 16 16 0 -2
BITMAP
0440
0440
FFFE
0440
7FFC
0820
0FE0
0820
0820
0FE0
0820
0820
FFFE
0020
0020
0020
ENDCHAR
STARTCHAR U+8339
ENCODING 33593
SWIDTH 1000 0
DWIDTH 16 0
BBX 16 16 0 -2
BITMAP
0440
0440
FFFE
0440
1000
1000
FF7C
1244
1244
2244
3444
0C44
127C
2144
4180
8100
ENDCHAR
STARTCHAR U+8340
ENCODING 33600
SWIDTH 1000 0
DWIDTH 16 0
BBX 16 16 0 -2
BITMAP
0440
0440
FFFE
0440
1440
1FFC
1004
2004
4FC4
0844
0FC4
0844
0844
0FC4
0854
0008
ENDCHAR
STARTCHAR U+8345
ENCODING 33605
SWIDTH 1000 0
DWIDTH 16 0
BBX 16 16 0 -2
BITMAP
0420
0420
FFFE
0420
0520
0280
0440
0830
1FEE
6004
0000
1FF0
1010
1010
1FF0
1010
ENDCHAR
STARTCHAR U+8349
ENCODING 33609
SWIDTH 1000 0
DWIDTH 16 0
BBX 16 16 0 -2
BITMAP
0440
0440
FFFE
0440
0440
1FF0
1010
1FF0
1010
1FF0
0100
FFFE
0100
0100
0100
0100
ENDCHAR
STARTCHAR U+834A
ENCODING 33610
SWIDTH 1000 0
DWIDTH 16 0
BBX 16 16 0 -2
BITMAP
0840
0840
FFFE
0840
0004
7FA4
1224
1224
7FA4
1224
1224
1224
2224
2204
4214
8008
ENDCHAR
STARTCHAR U+834F
ENCODING 33615
SWIDTH 1000 0
DWIDTH 16 0
BBX 16 16 0 -2
BITMAP
0420
7FFE
0420
0420
0800
0C1C
13E0
3040
5040
9FFE
1040
1040
1040
1040
17FE
1000
ENDCHAR
STARTCHAR U+8350
ENCODING 33616
SWIDTH 1000 0
DWIDTH 16 0
BBX 16 16 0 -2
BITMAP
0440
FFFE
0440
0540
7FFE
0200
0400
0BF8
1810
2820
4FFE
0840
0840
0840
0940
0880
ENDCHAR
STARTCHAR U+8352
ENCODING 33618
SWIDTH 1000 0
DWIDTH 16 0
BBX 16 16 0 -2
BITMAP
0440
0440
FFFE
0440
0100
7FFC
0800
0800
0FF8
0000
0920
0920
0922
1122
111E
2100
ENDCHAR
STARTCHAR U+8358
ENCODING 33624
SWIDTH 1000 0
DWIDTH 16 0
BBX 16 16 0 -2
BITMAP
0420
FFFE
0420
0420
0000
4420
2420
37FE
2420
0C20
1420
E420
4420
05FE
0400
0400
ENDCHAR
STARTCHAR U+8373
ENCODING 33651
SWIDTH 1000 0
DWIDTH 16 0
BBX 16 16 0 -2
BITMAP
0420
0420
FFFE
0420
3FFC
0000
1FF8
1008
1008
1FF8
0020
0830
0620
0440
FFFE
0000
ENDCHAR
STARTCHAR U+8375
ENCODING 33653
SWIDTH 1000 0
DWIDTH 16 0
BBX 16 16 0 -2
BITMAP
0420
0420
FFFE
0420
3FF0
0210
1210
2410
0850
3220
C908
2904
2816
4814
07F0
0000
ENDCHAR
STARTCHAR U+8377
ENCODING 33655
SWIDTH 1000 0
DWIDTH 16 0
BBX 16 16 0 -2
BITMAP
0420
0420
FFFE
1420
1800
17FE
3008
33C8
5248
9248
1248
13C8
1248
1008
1028
1010
ENDCHAR
STARTCHAR U+837B
ENCODING 33659
SWIDTH 1000 0
DWIDTH 16 0
BBX 16 16 0 -2
BITMAP
0440
0440
FFFE
0440
4400
2840
1048
294C
C950
1560
2640
44A0
8490
0518
2A0E
1404
ENDCHAR
STARTCHAR U+837C
ENCODING 33660
SWIDTH 1000 0
DWIDTH 16 0
BBX 16 16 0 -2
BITMAP
0420
0420
7FFE
0520
0280
0440
0830
3FEE
C104
3FF8
0900
0D20
1910
2118
4510
0200
ENDCHAR
STARTCHAR U+8385
ENCODING 33669
SWIDTH 1000 0
DWIDTH 16 0
BBX 16 16 0 -2
BITMAP
0420
0420
7FFE
0520
10C0
1880
17FC
3000
5010
9218
1110
11A0
1120
1000
1FFE
1000
ENDCHAR
STARTCHAR U+8387
ENCODING 33671
SWIDTH 1000 0
DWIDTH 16 0
BBX 16 16 0 -2
BITMAP
0420
0420
FFFE
0420
0400
3E20
2220
3FFC
2224
3E24
2224
2244
3F44
E094
0108
0200
ENDCHAR
STARTCHAR U+8389
ENCODING 33673
SWIDTH 1000 0
DWIDTH 16 0
BBX 16 16 0 -2
BITMAP
0420
7FFE
0420
0424
3F04
0424
0424
7FA4
0C24
0E24
1524
25A4
4524
8404
0414
0408
ENDCHAR
STARTCHAR U+838A
ENCODING 33674
SWIDTH 1000 0
DWIDTH 16 0
BBX 16 16 0 -2
BITMAP
0440
0440
FFFE
0440
0440
4420
4420
7FFE
0420
7C20
4420
4420
4420
45FE
8400
0000
ENDCHAR
STARTCHAR U+838E
ENCODING 33678
SWIDTH 1000 0
DWIDTH 16 0
BBX 16 16 0 -2
BITMAP
0420
0420
7FFE
0420
2040
1050
0A48
4B46
2A44
1448
1048
F050
2020
20C0
2300
2C00
ENDCHAR
STARTCHAR U+0391
ENCODING 913
SWIDTH 1000 0
DWIDTH 16 0
BBX 16 16 0 -2
BITMAP
0000
0100
0100
0280
0280
0440
0440
0820
0820
1FF0
1010
1010
2008
701C
0000
0000
ENDCHAR
STARTCHAR U+0392
ENCODING 914
SWIDTH 1000 0
DWIDTH 16 0
BBX 16 16 0 -2
BITMAP
0000
3FC0
0820
0810
0810
0810
0820
0FE0
0810
0808
0808
0808
0810
3FE0
0000
0000
ENDCHAR
STARTCHAR U+0393
ENCODING 915
SWIDTH 1000 0
DWIDTH 16 0
BBX 16 16 0 -2
BITMAP
0000
3FF0
0810
0808
0808
0800
0800
0800
0800
0800
0800
0800
0800
3E00
0000
0000
ENDCHAR
STARTCHAR U+0394
ENCODING 916
SWIDTH 1000 0
DWIDTH 16 0
BBX 16 16 0 -2
BITMAP
0000
0100
0100
0280
0280
0440
0440
0820
0820
1010
1010
2008
2008
7FFC
0000
0000
ENDCHAR
STARTCHAR U+0395
ENCODING 917
SWIDTH 1000 0
DWIDTH 16 0
BBX 16 16 0 -2
BITMAP
0000
7FF0
1010
1008
1008
1040
1040
1FC0
1040
1040
1008
1008
1010
7FF0
0000
0000
ENDCHAR
STARTCHAR U+0396
ENCODING 918
SWIDTH 1000 0
DWIDTH 16 0
BBX 16 16 0 -2
BITMAP
0000
1FF8
1010
2020
2040
0040
0080
0100
0200
0400
0408
0808
1010
3FF0
0000
0000
ENDCHAR
STARTCHAR U+0397
ENCODING 919
SWIDTH 1000 0
DWIDTH 16 0
BBX 16 16 0 -2
BITMAP
0000
7C7C
1010
1010
1010
1010
1010
1FF0
1010
1010
1010
1010
1010
7C7C
0000
0000
ENDCHAR
STARTCHAR U+0398
ENCODING 920
SWIDTH 1000 0
DWIDTH 16 0
BBX 16 16 0 -2
BITMAP
0000
0380
0C60
1010
1010
2008
2448
27C8
2448
2008
1010
1010
0C60
0380
0000
0000
ENDCHAR
STARTCHAR U+0399
ENCODING 921
SWIDTH 1000 0
DWIDTH 16 0
BBX 16 16 0 -2
BITMAP
0000
07C0
0100
0100
0100
0100
0100
0100
0100
0100
0100
0100
0100
07C0
0000
0000
ENDCHAR
STARTCHAR U+039A
ENCODING 922
SWIDTH 1000 0
DWIDTH 16 0
BBX 16 16 0 -2
BITMAP
0000
3E78
0820
0840
0880
0900
0A00
0D00
0880
0880
0840
0820
0810
3E7C
0000
0000
ENDCHAR
STARTCHAR U+039B
ENCODING 923
SWIDTH 1000 0
DWIDTH 16 0
BBX 16 16 0 -2
BITMAP
0000
0100
0100
0280
0280
0440
0440
0820
0820
0820
1010
1010
2008
701C
0000
0000
ENDCHAR
STARTCHAR U+039C
ENCODING 924
SWIDTH 1000 0
DWIDTH 16 0
BBX 16 16 0 -2
BITMAP
0000
E00E
3018
3018
2828
2828
2828
2448
2448
2288
2288
2288
2108
F93E
0000
0000
ENDCHAR
STARTCHAR U+039D
ENCODING 925
SWIDTH 1000 0
DWIDTH 16 0
BBX 16 16 0 -2
BITMAP
0000
707C
1810
1810
1410
1210
1210
1110
1090
1090
1050
1030
1030
7C10
0000
0000
ENDCHAR
STARTCHAR U+039E
ENCODING 926
SWIDTH 1000 0
DWIDTH 16 0
BBX 16 16 0 -2
BITMAP
0808
0FF8
1010
0000
0000
0000
0410
07F0
0820
0000
0000
0000
0808
0FF8
1010
0000
ENDCHAR
STARTCHAR U+039F
ENCODING 927
SWIDTH 1000 0
DWIDTH 16 0
BBX 16 16 0 -2
BITMAP
0000
0380
0C60
1010
1010
2008
2008
2008
2008
2008
1010
1010
0C60
0380
0000
0000
ENDCHAR
STARTCHAR U+03A0
ENCODING 928
SWIDTH 1000 0
DWIDTH 16 0
BBX 16 16 0 -2
BITMAP
0000
7FFC
1010
1010
1010
1010
1010
1010
1010
1010
1010
1010
1010
7C7C
0000
0000
ENDCHAR
STARTCHAR U+03A1
ENCODING 929
SWIDTH 1000 0
DWIDTH 16 0
BBX 16 16 0 -2
BITMAP
0000
3FE0
0810
0808
0808
0808
0810
0FE0
0800
0800
0800
0800
0800
3E00
0000
0000
ENDCHAR
STARTCHAR U+83A2
ENCODING 33698
SWIDTH 1000 0
DWIDTH 16 0
BBX 16 16 0 -2
BITMAP
0440
0440
FFFE
0440
0540
0100
7FFC
1110
1110
1128
2AC6
4284
0440
0830
100E
6004
ENDCHAR
STARTCHAR U+03A3
ENCODING 931
SWIDTH 1000 0
DWIDTH 16 0
BBX 16 16 0 -2
BITMAP
0000
3FF0
1010
0808
0400
0200
0100
0100
0200
0400
0800
1008
2010
3FF0
0000
0000
ENDCHAR
STARTCHAR U+03A4
ENCODING 932
SWIDTH 1000 0
DWIDTH 16 0
BBX 16 16 0 -2
BITMAP
0000
3FF8
2108
4104
4104
0100
0100
0100
0100
0100
0100
0100
0100
07C0
0000
0000
ENDCHAR
STARTCHAR U+03A5
ENCODING 933
SWIDTH 1000 0
DWIDTH 16 0
BBX 16 16 0 -2
BITMAP
0000
1C70
2288
2108
0100
0100
0100
0100
0100
0100
0100
0100
0100
07C0
0000
0000
ENDCHAR
STARTCHAR U+03A6
ENCODING 934
SWIDTH 1000 0
DWIDTH 16 0
BBX 16 16 0 -2
BITMAP
0000
07C0
0100
07C0
1930
1110
2108
2108
2108
1110
1930
07C0
0100
07C0
0000
0000
ENDCHAR
STARTCHAR U+03A7
ENCODING 935
SWIDTH 1000 0
DWIDTH 16 0
BBX 16 16 0 -2
BITMAP
0000
7C7C
1010
0820
0440
0280
0280
0100
0280
0440
0820
0820
1010
7C7C
0000
0000
ENDCHAR
STARTCHAR U+03A8
ENCODING 936
SWIDTH 1000 0
DWIDTH 16 0
BBX 16 16 0 -2
BITMAP
0000
67CC
9112
1110
1110
1110
1110
1110
0920
07C0
0100
0100
0100
07C0
0000
0000
ENDCHAR
STARTCHAR U+03A9
ENCODING 937
SWIDTH 1000 0
DWIDTH 16 0
BBX 16 16 0 -2
BITMAP
0000
0380
0C60
1010
1010
2008
2008
2008
1010
1010
0C60
2288
2288
3EF8
0000
0000
ENDCHAR
STARTCHAR U+83AA
ENCODING 33706
SWIDTH 1000 0
DWIDTH 16 0
BBX 16 16 0 -2
BITMAP
0420
0420
FFFE
0420
0F50
7448
0448
FFFE
0444
0748
1C50
6422
0452
048A
1506
0800
ENDCHAR
STARTCHAR U+83AB
ENCODING 33707
SWIDTH 1000 0
DWIDTH 16 0
BBX 16 16 0 -2
BITMAP
0420
0420
7FFE
0420
1FF0
1010
1FF0
1010
1FF0
0100
FFFE
0280
0440
0820
101C
6008
ENDCHAR
STARTCHAR U+03B1
ENCODING 945
SWIDTH 1000 0
DWIDTH 16 0
BBX 16 16 0 -2
BITMAP
0000
0000
0000
0000
0000
0710
0890
1090
10A0
2060
2040
20C0
1148
0E30
0000
0000
ENDCHAR
STARTCHAR U+03B2
ENCODING 946
SWIDTH 1000 0
DWIDTH 16 0
BBX 16 16 0 -2
BITMAP
0000
00E0
0110
0210
0210
0220
04C0
0420
0410
0810
0C10
0A20
11C0
1000
1000
0000
ENDCHAR
STARTCHAR U+03B3
ENCODING 947
SWIDTH 1000 0
DWIDTH 16 0
BBX 16 16 0 -2
BITMAP
0000
0000
0000
0000
0000
0610
0910
1120
0140
0180
0100
0200
0200
0400
0400
0000
ENDCHAR
STARTCHAR U+03B4
ENCODING 948
SWIDTH 1000 0
DWIDTH 16 0
BBX 16 16 0 -2
BITMAP
0000
01C0
0220
0210
0100
0180
0640
0420
0820
0820
0820
0840
04C0
0300
0000
0000
ENDCHAR
STARTCHAR U+03B5
ENCODING 949
SWIDTH 1000 0
DWIDTH 16 0
BBX 16 16 0 -2
BITMAP
0000
0000
0000
0000
0000
03C0
0420
0400
0400
0380
0400
0800
0820
07C0
0000
0000
ENDCHAR
STARTCHAR U+03B6
ENCODING 950
SWIDTH 1000 0
DWIDTH 16 0
BBX 16 16 0 -2
BITMAP
0200
0430
0460
0380
0100
0200
0400
0400
0800
0800
0400
03C0
0020
0120
00C0
0000
ENDCHAR
STARTCHAR U+03B7
ENCODING 951
SWIDTH 1000 0
DWIDTH 16 0
BBX 16 16 0 -2
BITMAP
0000
0000
0000
0000
0000
0CC0
1320
0220
0420
0420
0440
0840
0840
0080
0080
0000
ENDCHAR
STARTCHAR U+03B8
ENCODING 952
SWIDTH 1000 0
DWIDTH 16 0
BBX 16 16 0 -2
BITMAP
0000
00C0
0120
0210
0410
0410
0820
0FE0
0820
1040
1040
1080
0900
0600
0000
0000
ENDCHAR
STARTCHAR U+03B9
ENCODING 953
SWIDTH 1000 0
DWIDTH 16 0
BBX 16 16 0 -2
BITMAP
0000
0000
0000
0000
0000
0200
0200
0200
0200
0400
0400
0420
0440
0380
0000
0000
ENDCHAR
STARTCHAR U+03BA
ENCODING 954
SWIDTH 1000 0
DWIDTH 16 0
BBX 16 16 0 -2
BITMAP
0000
0000
0000
0000
0000
0430
0440
0480
0500
0B00
0880
0880
0890
0860
0000
0000
ENDCHAR
STARTCHAR U+03BB
ENCODING 955
SWIDTH 1000 0
DWIDTH 16 0
BBX 16 16 0 -2
BITMAP
0000
0300
0480
0080
0080
0080
0180
0180
0280
0280
0480
0880
0890
1060
0000
0000
ENDCHAR
STARTCHAR U+03BC
ENCODING 956
SWIDTH 1000 0
DWIDTH 16 0
BBX 16 16 0 -2
BITMAP
0000
0000
0000
0000
0000
0420
0420
0420
0840
0840
0840
0890
1760
1000
1000
0000
ENDCHAR
STARTCHAR U+03BD
ENCODING 957
SWIDTH 1000 0
DWIDTH 16 0
BBX 16 16 0 -2
BITMAP
0000
0000
0000
0000
0000
0C20
1230
0210
0220
0220
0240
0280
0300
0200
0000
0000
ENDCHAR
STARTCHAR U+03BE
ENCODING 958
SWIDTH 1000 0
DWIDTH 16 0
BBX 16 16 0 -2
BITMAP
0000
0180
0200
01E0
0200
0400
0400
03E0
0400
0800
0800
0600
0180
0040
0380
0000
ENDCHAR
STARTCHAR U+03BF
ENCODING 959
SWIDTH 1000 0
DWIDTH 16 0
BBX 16 16 0 -2
BITMAP
0000
0000
0000
0000
0000
0180
0640
0420
0820
0820
0820
0840
04C0
0300
0000
0000
ENDCHAR
STARTCHAR U+03C0
ENCODING 960
SWIDTH 1000 0
DWIDTH 16 0
BBX 16 16 0 -2
BITMAP
0000
0000
0000
0000
0000
0FF0
1240
0240
0240
0280
0480
0488
0490
0860
0000
0000
ENDCHAR
STARTCHAR U+03C1
ENCODING 961
SWIDTH 1000 0
DWIDTH 16 0
BBX 16 16 0 -2
BITMAP
0000
0000
0000
0000
0000
01C0
0220
0210
0410
0410
0410
0620
09C0
0800
0800
0000
ENDCHAR
STARTCHAR U+03C3
ENCODING 963
SWIDTH 1000 0
DWIDTH 16 0
BBX 16 16 0 -2
BITMAP
0000
0000
0000
0000
0000
01F0
0640
0420
0820
0820
0820
0840
04C0
0300
0000
0000
ENDCHAR
STARTCHAR U+03C4
ENCODING 964
SWIDTH 1000 0
DWIDTH 16 0
BBX 16 16 0 -2
BITMAP
0000
0000
0000
0000
0000
07F0
0900
0100
0200
0200
0200
0420
0440
0380
0000
0000
ENDCHAR
STARTCHAR U+03C5
ENCODING 965
SWIDTH 1000 0
DWIDTH 16 0
BBX 16 16 0 -2
BITMAP
0000
0000
0000
0000
0000
0840
1420
0420
0420
0440
0840
0840
0880
0700
0000
0000
ENDCHAR
STARTCHAR U+03C6
ENCODING 966
SWIDTH 1000 0
DWIDTH 16 0
BBX 16 16 0 -2
BITMAP
0000
0040
0040
0040
03C0
04A0
0890
0890
0910
0520
03C0
0100
0200
0200
0200
0000
ENDCHAR
STARTCHAR U+03C7
ENCODING 967
SWIDTH 1000 0
DWIDTH 16 0
BBX 16 16 0 -2
BITMAP
0000
0000
0000
0000
0000
0610
0920
0140
0080
0100
0100
0280
0480
0890
1060
0000
ENDCHAR
STARTCHAR U+03C8
ENCODING 968
SWIDTH 1000 0
DWIDTH 16 0
BBX 16 16 0 -2
BITMAP
0000
0080
0080
0080
0100
0940
0920
1120
1220
1220
0A40
0780
0400
0400
0400
0000
ENDCHAR
STARTCHAR U+03C9
ENCODING 969
SWIDTH 1000 0
DWIDTH 16 0
BBX 16 16 0 -2
BITMAP
0000
0000
0000
0000
0000
0420
0810
1110
1108
2108
2108
2288
1290
0C60
0000
0000
ENDCHAR
STARTCHAR U+83CA
ENCODING 33738
SWIDTH 1000 0
DWIDTH 16 0
BBX 16 16 0 -2
BITMAP
0420
0420
FFFE
1420
1000
1FFC
2104
2924
4544
9FF4
0384
0544
0934
1124
2114
0108
ENDCHAR
STARTCHAR U+83CC
ENCODING 33740
SWIDTH 1000 0
DWIDTH 16 0
BBX 16 16 0 -2
BITMAP
0440
0440
FFFE
0440
0440
3FF8
2068
2F88
2108
3FF8
2388
2548
2928
3108
3FF8
2008
ENDCHAR
STARTCHAR U+83CE
ENCODING 33742
SWIDTH 1000 0
DWIDTH 16 0
BBX 16 16 0 -2
BITMAP
0440
0440
7FFC
0440
0440
1FF0
1010
1FF0
1010
1FF0
1080
1EB0
10C4
1484
187C
1000
ENDCHAR
STARTCHAR U+83D3
ENCODING 33747
SWIDTH 1000 0
DWIDTH 16 0
BBX 16 16 0 -2
BITMAP
0440
0440
FFFE
0440
1FF0
1110
1FF0
1110
1FF0
0100
FFFE
0340
0D30
310E
C104
0100
ENDCHAR
STARTCHAR U+83D6
ENCODING 33750
SWIDTH 1000 0
DWIDTH 16 0
BBX 16 16 0 -2
BITMAP
0440
0440
FFFE
0440
1FF0
1010
1FF0
1010
1FF0
0000
3FFC
2004
3FFC
2004
3FFC
2004
ENDCHAR
STARTCHAR U+83D8
ENCODING 33752
SWIDTH 1000 0
DWIDTH 16 0
BBX 16 16 0 -2
BITMAP
0440
0440
FFFE
1440
1090
7ED0
1088
3908
3546
3664
5440
5090
9108
13FC
1108
1000
ENDCHAR
STARTCHAR U+83DC
ENCODING 33756
SWIDTH 1000 0
DWIDTH 16 0
BBX 16 16 0 -2
BITMAP
0440
FFFE
0440
0440
3FF8
2208
1110
0820
0100
7FFE
0380
0540
0930
111C
6108
0100
ENDCHAR
STARTCHAR U+83DF
ENCODING 33759
SWIDTH 1000 0
DWIDTH 16 0
BBX 16 16 0 -2
BITMAP
0420
0420
FFFE
0420
07F0
0820
1040
3FF8
5108
1108
1FF8
02A0
029A
0492
187E
6000
ENDCHAR
STARTCHAR U+83E0
ENCODING 33760
SWIDTH 1000 0
DWIDTH 16 0
BBX 16 16 0 -2
BITMAP
0440
0440
FFFE
0440
2040
17FE
4444
3448
27F8
1510
1510
E4A0
2440
28B0
290E
3204
ENDCHAR
STARTCHAR U+83E9
ENCODING 33769
SWIDTH 1000 0
DWIDTH 16 0
BBX 16 16 0 -2
BITMAP
0840
0840
FFFE
0A40
0100
7FFC
0820
0440
FFFE
0000
1FF0
1010
1010
1010
1FF0
1010
ENDCHAR
STARTCHAR U+83EB
ENCODING 33771
SWIDTH 1000 0
DWIDTH 16 0
BBX 16 16 0 -2
BITMAP
0840
0840
7FFC
0840
FFFE
0100
1FF0
1110
1FF0
0100
3FF8
0100
1FF0
0100
FFFE
0000
ENDCHAR
STARTCHAR U+83EF
ENCODING 33775
SWIDTH 1000 0
DWIDTH 16 0
BBX 16 16 0 -2
BITMAP
0440
0440
FFFE
0440
0440
3FFC
0920
FFFE
0920
0920
7FFC
0100
FFFE
0100
0100
0100
ENDCHAR
STARTCHAR U+83F0
ENCODING 33776
SWIDTH 1000 0
DWIDTH 16 0
BBX 16 16 0 -2
BITMAP
0440
0440
FFFE
0440
0440
7FFC
0550
0950
1150
1550
3948
D248
1268
1254
54F6
2844
ENDCHAR
STARTCHAR U+83F1
ENCODING 33777
SWIDTH 1000 0
DWIDTH 16 0
BBX 16 16 0 -2
BITMAP
0440
FFFE
0440
0540
3FF8
0100
FFFE
0820
1410
27EC
CC20
1240
6180
0660
181E
6004
ENDCHAR
STARTCHAR U+83F2
ENCODING 33778
SWIDTH 1000 0
DWIDTH 16 0
BBX 16 16 0 -2
BITMAP
0440
0440
FFFE
0440
0440
7C7C
0440
0440
7C7C
0440
0440
FC7E
0440
0440
0440
0440
ENDCHAR
STARTCHAR U+83F4
ENCODING 33780
SWIDTH 1000 0
DWIDTH 16 0
BBX 16 16 0 -2
BITMAP
0440
0440
FFFE
0440
0540
7FFC
0440
0920
3FFE
D114
1FF0
1110
1FF0
1114
0104
00FC
ENDCHAR
STARTCHAR U+83F7
ENCODING 33783
SWIDTH 1000 0
DWIDTH 16 0
BBX 16 16 0 -2
BITMAP
0440
FFFE
0440
1FF0
0010
0FF0
0010
1FF0
0000
7FFE
4104
9FF0
1110
1150
1120
0100
ENDCHAR
STARTCHAR U+83FB
ENCODING 33787
SWIDTH 1000 0
DWIDTH 16 0
BBX 16 16 0 -2
BITMAP
0440
0440
FFFE
0440
0420
0820
7EFE
0830
1C70
1A68
2AA8
28A6
4924
8A20
0820
0820
ENDCHAR
STARTCHAR U+83FD
ENCODING 33789
SWIDTH 1000 0
DWIDTH 16 0
BBX 16 16 0 -2
BITMAP
0440
0440
FFFE
0440
1000
11FC
1E88
1088
FF88
0850
4A50
6920
4950
888E
2904
1200
ENDCHAR
STARTCHAR U+0401
ENCODING 1025
SWIDTH 1000 0
DWIDTH 16 0
BBX 16 16 0 -2
BITMAP
0C60
0C60
0000
7FF0
1010
1008
1040
1040
1FC0
1040
1040
1008
1010
7FF0
0000
0000
ENDCHAR
STARTCHAR U+8403
ENCODING 33795
SWIDTH 1000 0
DWIDTH 16 0
BBX 16 16 0 -2
BITMAP
0420
0420
FFFE
0520
04A0
3FFC
0820
0820
0850
1488
2304
0100
FFFE
0100
0100
0100
ENDCHAR
STARTCHAR U+8404
ENCODING 33796
SWIDTH 1000 0
DWIDTH 16 0
BBX 16 16 0 -2
BITMAP
0420
FFFE
0420
1420
1FFC
2804
4FE4
8904
1104
7FF4
0104
1114
1114
1FF4
0014
0008
ENDCHAR
STARTCHAR U+8407
ENCODING 33799
SWIDTH 1000 0
DWIDTH 16 0
BBX 16 16 0 -2
BITMAP
0440
0440
FFFE
0440
0FF8
0800
0FF8
0800
0FF0
0800
FFFE
1210
1120
10C0
183C
1008
ENDCHAR
STARTCHAR U+840B
ENCODING 33803
SWIDTH 1000 0
DWIDTH 16 0
BBX 16 16 0 -2
BITMAP
0440
FFFE
0540
7FFC
0100
3FF0
0110
FFFE
0110
3FF0
0400
FFFE
0820
0E40
01E0
3E1C
ENDCHAR
STARTCHAR U+840C
ENCODING 33804
SWIDTH 1000 0
DWIDTH 16 0
BBX 16 16 0 -2
BITMAP
0420
0420
FFFE
0420
0000
7CF8
4488
44F8
4488
7C88
44F8
4488
7D08
4508
4228
0410
ENDCHAR
STARTCHAR U+840D
ENCODING 33805
SWIDTH 1000 0
DWIDTH 16 0
BBX 16 16 0 -2
BITMAP
0440
0440
FFFE
0440
4040
37FC
2048
844C
6248
5150
1040
27FE
E040
2040
2040
2040
ENDCHAR
STARTCHAR U+840E
ENCODING 33806
SWIDTH 1000 0
DWIDTH 16 0
BBX 16 16 0 -2
BITMAP
0440
0440
FFFE
0440
3FF0
0100
7FFC
0560
091C
1508
FFFE
0420
0C40
0380
0C70
700C
ENDCHAR
STARTCHAR U+0410
ENCODING 1040
SWIDTH 1000 0
DWIDTH 16 0
BBX 16 16 0 -2
BITMAP
0000
0100
0100
0280
0280
0440
0440
0820
0820
1FF0
1010
1010
2008
701C
0000
0000
ENDCHAR
STARTCHAR U+0411
ENCODING 1041
SWIDTH 1000 0
DWIDTH 16 0
BBX 16 16 0 -2
BITMAP
0000
7FE0
1020
1010
1010
1000
1000
1FC0
1020
1010
1010
1010
1020
7FC0
0000
0000
ENDCHAR
STARTCHAR U+0412
ENCODING 1042
SWIDTH 1000 0
DWIDTH 16 0
BBX 16 16 0 -2
BITMAP
0000
3FC0
0820
0810
0810
0810
0820
0FE0
0810
0808
0808
0808
0810
3FE0
0000
0000
ENDCHAR
STARTCHAR U+0413
ENCODING 1043
SWIDTH 1000 0
DWIDTH 16 0
BBX 16 16 0 -2
BITMAP
0000
7FF0
1010
1008
1008
1000
1000
1000
1000
1000
1000
1000
1000
7C00
0000
0000
ENDCHAR
STARTCHAR U+0414
ENCODING 1044
SWIDTH 1000 0
DWIDTH 16 0
BBX 16 16 0 -2
BITMAP
0000
1FFC
0410
0410
0410
0410
0410
0410
0410
0810
0810
1010
3FF8
2008
2008
0000
ENDCHAR
STARTCHAR U+0415
ENCODING 1045
SWIDTH 1000 0
DWIDTH 16 0
BBX 16 16 0 -2
BITMAP
0000
7FF0
1010
1008
1008
1040
1040
1FC0
1040
1040
1008
1008
1010
7FF0
0000
0000
ENDCHAR
STARTCHAR U+0416
ENCODING 1046
SWIDTH 1000 0
DWIDTH 16 0
BBX 16 16 0 -2
BITMAP
0000
67CC
5114
1110
0920
0920
0920
07C0
0920
1110
1110
2108
4104
E7CE
0000
0000
ENDCHAR
STARTCHAR U+0417
ENCODING 1047
SWIDTH 1000 0
DWIDTH 16 0
BBX 16 16 0 -2
BITMAP
0000
07C0
0820
1010
0010
0010
0020
03C0
0020
0010
0010
2010
1820
07C0
0000
0000
ENDCHAR
STARTCHAR U+0418
ENCODING 1048
SWIDTH 1000 0
DWIDTH 16 0
BBX 16 16 0 -2
BITMAP
0000
7C7C
1010
1030
1050
1050
1090
1110
1210
1210
1410
1810
1010
7C7C
0000
0000
ENDCHAR
STARTCHAR U+0419
ENCODING 1049
SWIDTH 1000 0
DWIDTH 16 0
BBX 16 16 0 -2
BITMAP
0440
0380
783C
1010
1030
1050
1090
1110
1110
1210
1410
1810
1010
7C7C
0000
0000
ENDCHAR
STARTCHAR U+041A
ENCODING 1050
SWIDTH 1000 0
DWIDTH 16 0
BBX 16 16 0 -2
BITMAP
0000
7C60
1090
1090
1100
1100
1200
1F00
1100
1080
1040
1040
1020
7CF8
0000
0000
ENDCHAR
STARTCHAR U+041B
ENCODING 1051
SWIDTH 1000 0
DWIDTH 16 0
BBX 16 16 0 -2
BITMAP
0000
0FFC
0210
0210
0210
0210
0210
0210
0410
0410
0410
6410
4810
307C
0000
0000
ENDCHAR
STARTCHAR U+041C
ENCODING 1052
SWIDTH 1000 0
DWIDTH 16 0
BBX 16 16 0 -2
BITMAP
0000
600C
3018
3018
2828
2828
2828
2448
4444
4284
4284
4284
4104
F11E
0000
0000
ENDCHAR
STARTCHAR U+041D
ENCODING 1053
SWIDTH 1000 0
DWIDTH 16 0
BBX 16 16 0 -2
BITMAP
0000
7C7C
1010
1010
1010
1010
1010
1FF0
1010
1010
1010
1010
1010
7C7C
0000
0000
ENDCHAR
STARTCHAR U+041E
ENCODING 1054
SWIDTH 1000 0
DWIDTH 16 0
BBX 16 16 0 -2
BITMAP
0000
0380
0C60
1010
1010
2008
2008
2008
2008
2008
1010
1010
0C60
0380
0000
0000
ENDCHAR
STARTCHAR U+041F
ENCODING 1055
SWIDTH 1000 0
DWIDTH 16 0
BBX 16 16 0 -2
BITMAP
0000
7FFC
1010
1010
1010
1010
1010
1010
1010
1010
1010
1010
1010
7C7C
0000
0000
ENDCHAR
STARTCHAR U+0420
ENCODING 1056
SWIDTH 1000 0
DWIDTH 16 0
BBX 16 16 0 -2
BITMAP
0000
3FE0
0810
0808
0808
0808
0810
0FE0
0800
0800
0800
0800
0800
3E00
0000
0000
ENDCHAR
STARTCHAR U+0421
ENCODING 1057
SWIDTH 1000 0
DWIDTH 16 0
BBX 16 16 0 -2
BITMAP
0000
03A0
0C60
1010
1010
2000
2000
2000
2000
2000
1010
1010
0C60
0380
0000
0000
ENDCHAR
STARTCHAR U+0422
ENCODING 1058
SWIDTH 1000 0
DWIDTH 16 0
BBX 16 16 0 -2
BITMAP
0000
3FF8
2108
4104
4104
0100
0100
0100
0100
0100
0100
0100
0100
07C0
0000
0000
ENDCHAR
STARTCHAR U+0423
ENCODING 1059
SWIDTH 1000 0
DWIDTH 16 0
BBX 16 16 0 -2
BITMAP
0000
7C7C
1010
1010
0820
0820
0440
0440
0280
0280
0100
3100
2200
1C00
0000
0000
ENDCHAR
STARTCHAR U+0424
ENCODING 1060
SWIDTH 1000 0
DWIDTH 16 0
BBX 16 16 0 -2
BITMAP
0000
07C0
0100
07C0
1930
1110
2108
2108
1110
1930
07C0
0100
0100
07C0
0000
0000
ENDCHAR
STARTCHAR U+0425
ENCODING 1061
SWIDTH 1000 0
DWIDTH 16 0
BBX 16 16 0 -2
BITMAP
0000
7C7C
1010
0820
0440
0440
0280
0100
0280
0440
0820
0820
1010
7C7C
0000
0000
ENDCHAR
STARTCHAR U+0426
ENCODING 1062
SWIDTH 1000 0
DWIDTH 16 0
BBX 16 16 0 -2
BITMAP
0000
3E7C
0810
0810
0810
0810
0810
0810
0810
0810
0810
0810
0810
3FF8
0004
0000
ENDCHAR
STARTCHAR U+0427
ENCODING 1063
SWIDTH 1000 0
DWIDTH 16 0
BBX 16 16 0 -2
BITMAP
0000
3E7C
0810
0810
0810
0810
0810
0430
03D0
0010
0010
0010
0010
007C
0000
0000
ENDCHAR
STARTCHAR U+0428
ENCODING 1064
SWIDTH 1000 0
DWIDTH 16 0
BBX 16 16 0 -2
BITMAP
0000
F39E
2108
2108
2108
2108
2108
2108
2108
2108
2108
2108
2108
FFFE
0000
0000
ENDCHAR
STARTCHAR U+8429
ENCODING 33833
SWIDTH 1000 0
DWIDTH 16 0
BBX 16 16 0 -2
BITMAP
0440
0440
FFFE
0440
0440
7E20
0824
08A6
FEA8
1920
1C50
2B50
2A48
4888
8886
0904
ENDCHAR
STARTCHAR U+042A
ENCODING 1066
SWIDTH 1000 0
DWIDTH 16 0
BBX 16 16 0 -2
BITMAP
0000
3F00
2400
4400
0400
0400
07F0
0408
0404
0404
0404
0404
0408
1FF0
0000
0000
ENDCHAR
STARTCHAR U+042B
ENCODING 1067
SWIDTH 1000 0
DWIDTH 16 0
BBX 16 16 0 -2
BITMAP
0000
F87C
2010
2010
2010
2010
3E10
2110
2090
2090
2090
2090
2110
FE7C
0000
0000
ENDCHAR
STARTCHAR U+042C
ENCODING 1068
SWIDTH 1000 0
DWIDTH 16 0
BBX 16 16 0 -2
BITMAP
0000
3E00
0800
0800
0800
0800
0FE0
0810
0808
0808
0808
0808
0810
3FE0
0000
0000
ENDCHAR
STARTCHAR U+042D
ENCODING 1069
SWIDTH 1000 0
DWIDTH 16 0
BBX 16 16 0 -2
BITMAP
0000
1380
1C60
1010
2010
2008
0618
0928
00C8
2008
2010
1010
0C60
0380
0000
0000
ENDCHAR
STARTCHAR U+042E
ENCODING 1070
SWIDTH 1000 0
DWIDTH 16 0
BBX 16 16 0 -2
BITMAP
0000
F8E0
2318
2208
2404
2404
2404
3C04
2404
2404
2404
2208
2318
F8E0
0000
0000
ENDCHAR
STARTCHAR U+042F
ENCODING 1071
SWIDTH 1000 0
DWIDTH 16 0
BBX 16 16 0 -2
BITMAP
0000
07FC
0810
1010
1010
1010
0810
07F0
0210
0410
0410
0810
0810
307C
0000
0000
ENDCHAR
STARTCHAR U+0430
ENCODING 1072
SWIDTH 1000 0
DWIDTH 16 0
BBX 16 16 0 -2
BITMAP
0000
0000
0000
0000
0000
0780
0840
0C20
00E0
0320
0420
0820
0860
07B0
0000
0000
ENDCHAR
STARTCHAR U+8431
ENCODING 33841
SWIDTH 1000 0
DWIDTH 16 0
BBX 16 16 0 -2
BITMAP
0420
0420
7FFE
0520
3FFE
2004
5FF8
0000
0FF0
0810
0FF0
0810
0FF0
0000
7FFE
0000
ENDCHAR
STARTCHAR U+0432
ENCODING 1074
SWIDTH 1000 0
DWIDTH 16 0
BBX 16 16 0 -2
BITMAP
0000
0000
0000
0000
0000
1FC0
0420
0410
0420
07C0
0420
0410
0410
1FE0
0000
0000
ENDCHAR
STARTCHAR U+0433
ENCODING 1075
SWIDTH 1000 0
DWIDTH 16 0
BBX 16 16 0 -2
BITMAP
0000
0000
0000
0000
0000
1FE0
0420
0410
0410
0400
0400
0400
0400
1F00
0000
0000
ENDCHAR
STARTCHAR U+0434
ENCODING 1076
SWIDTH 1000 0
DWIDTH 16 0
BBX 16 16 0 -2
BITMAP
0000
0000
0000
0000
0000
1FF0
0440
0440
0440
0440
0840
0840
3FF0
2010
2010
0000
ENDCHAR
STARTCHAR U+0435
ENCODING 1077
SWIDTH 1000 0
DWIDTH 16 0
BBX 16 16 0 -2
BITMAP
0000
0000
0000
0000
0000
03C0
0420
0810
0810
0FF0
0800
0810
0420
03C0
0000
0000
ENDCHAR
STARTCHAR U+0436
ENCODING 1078
SWIDTH 1000 0
DWIDTH 16 0
BBX 16 16 0 -2
BITMAP
0000
0000
0000
0000
0000
638C
5114
1110
0920
07C0
0540
0920
1110
7BBC
0000
0000
ENDCHAR
STARTCHAR U+0437
ENCODING 1079
SWIDTH 1000 0
DWIDTH 16 0
BBX 16 16 0 -2
BITMAP
0000
0000
0000
0000
0000
0380
0440
0820
0020
01C0
0020
0820
0420
03C0
0000
0000
ENDCHAR
STARTCHAR U+0438
ENCODING 1080
SWIDTH 1000 0
DWIDTH 16 0
BBX 16 16 0 -2
BITMAP
0000
0000
0000
0000
0000
3C78
0820
0860
08A0
0920
0A20
0C20
0820
3C78
0000
0000
ENDCHAR
STARTCHAR U+0439
ENCODING 1081
SWIDTH 1000 0
DWIDTH 16 0
BBX 16 16 0 -2
BITMAP
0000
0000
0440
0380
0000
3C78
0820
0860
08A0
0920
0A20
0C20
0820
3C78
0000
0000
ENDCHAR
STARTCHAR U+043A
ENCODING 1082
SWIDTH 1000 0
DWIDTH 16 0
BBX 16 16 0 -2
BITMAP
0000
0000
0000
0000
0000
1E38
0448
0440
0480
0780
0440
0440
0420
1E78
0000
0000
ENDCHAR
STARTCHAR U+043B
ENCODING 1083
SWIDTH 1000 0
DWIDTH 16 0
BBX 16 16 0 -2
BITMAP
0000
0000
0000
0000
0000
0FF8
0220
0220
0220
0220
0220
3220
2420
18F8
0000
0000
ENDCHAR
STARTCHAR U+043C
ENCODING 1084
SWIDTH 1000 0
DWIDTH 16 0
BBX 16 16 0 -2
BITMAP
0000
0000
0000
0000
0000
701C
1830
1830
1450
1450
1290
1290
1110
793C
0000
0000
ENDCHAR
STARTCHAR U+043D
ENCODING 1085
SWIDTH 1000 0
DWIDTH 16 0
BBX 16 16 0 -2
BITMAP
0000
0000
0000
0000
0000
3C78
0820
0820
0820
0FE0
0820
0820
0820
3C78
0000
0000
ENDCHAR
STARTCHAR U+043E
ENCODING 1086
SWIDTH 1000 0
DWIDTH 16 0
BBX 16 16 0 -2
BITMAP
0000
0000
0000
0000
0000
03C0
0420
0810
0810
0810
0810
0810
0420
03C0
0000
0000
ENDCHAR
STARTCHAR U+043F
ENCODING 1087
SWIDTH 1000 0
DWIDTH 16 0
BBX 16 16 0 -2
BITMAP
0000
0000
0000
0000
0000
3FF8
0820
0820
0820
0820
0820
0820
0820
3C78
0000
0000
ENDCHAR
STARTCHAR U+0440
ENCODING 1088
SWIDTH 1000 0
DWIDTH 16 0
BBX 16 16 0 -2
BITMAP
0000
0000
0000
0000
0000
05C0
1E20
0410
0410
0410
0410
0620
05C0
0400
1F00
0000
ENDCHAR
STARTCHAR U+0441
ENCODING 1089
SWIDTH 1000 0
DWIDTH 16 0
BBX 16 16 0 -2
BITMAP
0000
0000
0000
0000
0000
03C0
0420
0810
0830
0800
0800
0810
0420
03C0
0000
0000
ENDCHAR
STARTCHAR U+0442
ENCODING 1090
SWIDTH 1000 0
DWIDTH 16 0
BBX 16 16 0 -2
BITMAP
0000
0000
0000
0000
0000
1FF0
1110
2108
2108
0100
0100
0100
0100
07C0
0000
0000
ENDCHAR
STARTCHAR U+0443
ENCODING 1091
SWIDTH 1000 0
DWIDTH 16 0
BBX 16 16 0 -2
BITMAP
0000
0000
0000
0000
0000
3C78
0820
0440
0440
0280
0280
0100
1900
1200
0C00
0000
ENDCHAR
STARTCHAR U+0444
ENCODING 1092
SWIDTH 1000 0
DWIDTH 16 0
BBX 16 16 0 -2
BITMAP
0000
0100
0700
0100
0100
0D60
1390
2108
2108
2108
2108
1390
0D60
0100
07C0
0000
ENDCHAR
STARTCHAR U+0445
ENCODING 1093
SWIDTH 1000 0
DWIDTH 16 0
BBX 16 16 0 -2
BITMAP
0000
0000
0000
0000
0000
3C78
0820
0440
0280
0100
0280
0440
0820
3C78
0000
0000
ENDCHAR
STARTCHAR U+0446
ENCODING 1094
SWIDTH 1000 0
DWIDTH 16 0
BBX 16 16 0 -2
BITMAP
0000
0000
0000
0000
0000
3CF0
0840
0840
0840
0840
0840
0840
0840
3FF0
0008
0000
ENDCHAR
STARTCHAR U+0447
ENCODING 1095
SWIDTH 1000 0
DWIDTH 16 0
BBX 16 16 0 -2
BITMAP
0000
0000
0000
0000
0000
3C78
0820
0820
0820
0860
07A0
0020
0020
00F8
0000
0000
ENDCHAR
STARTCHAR U+0448
ENCODING 1096
SWIDTH 1000 0
DWIDTH 16 0
BBX 16 16 0 -2
BITMAP
0000
0000
0000
0000
0000
7BBC
1110
1110
1110
1110
1110
1110
1110
7FFC
0000
0000
ENDCHAR
STARTCHAR U+0449
ENCODING 1097
SWIDTH 1000 0
DWIDTH 16 0
BBX 16 16 0 -2
BITMAP
0000
0000
0000
0000
0000
7BBC
1110
1110
1110
1110
1110
1110
1110
7FFC
0002
0000
ENDCHAR
STARTCHAR U+044A
ENCODING 1098
SWIDTH 1000 0
DWIDTH 16 0
BBX 16 16 0 -2
BITMAP
0000
0000
0000
0000
0000
1F80
1200
2200
23E0
0210
0208
0208
0210
0FE0
0000
0000
ENDCHAR
STARTCHAR U+044B
ENCODING 1099
SWIDTH 1000 0
DWIDTH 16 0
BBX 16 16 0 -2
BITMAP
0000
0000
0000
0000
0000
7C7C
1010
1010
1E10
1110
1090
1090
1110
7E7C
0000
0000
ENDCHAR
STARTCHAR U+044C
ENCODING 1100
SWIDTH 1000 0
DWIDTH 16 0
BBX 16 16 0 -2
BITMAP
0000
0000
0000
0000
0000
1F00
0400
0400
07C0
0420
0410
0410
0420
1FC0
0000
0000
ENDCHAR
STARTCHAR U+044D
ENCODING 1101
SWIDTH 1000 0
DWIDTH 16 0
BBX 16 16 0 -2
BITMAP
0000
0000
0000
0000
0000
03C0
0420
0810
0330
04D0
0010
0810
0420
03C0
0000
0000
ENDCHAR
STARTCHAR U+044E
ENCODING 1102
SWIDTH 1000 0
DWIDTH 16 0
BBX 16 16 0 -2
BITMAP
0000
0000
0000
0000
0000
7C70
1088
1104
1104
1F04
1104
1104
1088
7C70
0000
0000
ENDCHAR
STARTCHAR U+044F
ENCODING 1103
SWIDTH 1000 0
DWIDTH 16 0
BBX 16 16 0 -2
BITMAP
0000
0000
0000
0000
0000
07F8
0820
0820
0820
07E0
0220
0420
0420
1878
0000
0000
ENDCHAR
STARTCHAR U+0451
ENCODING 1105
SWIDTH 1000 0
DWIDTH 16 0
BBX 16 16 0 -2
BITMAP
0000
0000
0660
0660
0000
03C0
0420
0810
0810
0FF0
0800
0810
0420
03C0
0000
0000
ENDCHAR
STARTCHAR U+8457
ENCODING 33879
SWIDTH 1000 0
DWIDTH 16 0
BBX 16 16 0 -2
BITMAP
0440
0440
7FFE
0440
0510
1FF8
0120
0140
FFFE
0200
0FF8
3408
C7F8
0408
07F8
0408
ENDCHAR
STARTCHAR U+845B
ENCODING 33883
SWIDTH 1000 0
DWIDTH 16 0
BBX 16 16 0 -2
BITMAP
0440
FFFE
0440
1FF0
1010
1FF0
1010
1FF0
0800
0FFC
1104
3284
D444
1FE4
1014
0008
ENDCHAR
STARTCHAR U+8461
ENCODING 33889
SWIDTH 1000 0
DWIDTH 16 0
BBX 16 16 0 -2
BITMAP
0420
0420
7FFE
1420
1FFC
1124
2FF4
4104
1FF4
1114
1FF4
1114
1FF4
1114
1154
112C
ENDCHAR
STARTCHAR U+8462
ENCODING 33890
SWIDTH 1000 0
DWIDTH 16 0
BBX 16 16 0 -2
BITMAP
0440
0440
FFFE
0440
0550
0108
3FFC
0240
0530
188E
7FF4
1290
1290
1290
FFFE
0000
ENDCHAR
STARTCHAR U+8463
ENCODING 33891
SWIDTH 1000 0
DWIDTH 16 0
BBX 16 16 0 -2
BITMAP
0440
FFFE
0440
3FF8
0100
7FFE
0100
1FF0
1110
1FF0
1110
1FF0
0100
3FF8
0100
FFFE
ENDCHAR
STARTCHAR U+8466
ENCODING 33894
SWIDTH 1000 0
DWIDTH 16 0
BBX 16 16 0 -2
BITMAP
0440
FFFE
0540
1FF0
0110
FFFE
0000
0FF0
0810
0FF0
0100
3FFC
1100
7FFE
0100
0100
ENDCHAR
STARTCHAR U+8469
ENCODING 33897
SWIDTH 1000 0
DWIDTH 16 0
BBX 16 16 0 -2
BITMAP
0420
0420
FFFE
1420
21FC
7D24
4524
4524
45FC
7D04
4500
4500
4502
7D02
40FE
0000
ENDCHAR
STARTCHAR U+846B
ENCODING 33899
SWIDTH 1000 0
DWIDTH 16 0
BBX 16 16 0 -2
BITMAP
0440
0440
FFFE
0440
0800
08FC
0884
7FFC
0884
0884
3EFC
2284
2284
3E84
2114
0208
ENDCHAR
STARTCHAR U+846C
ENCODING 33900
SWIDTH 1000 0
DWIDTH 16 0
BBX 16 16 0 -2
BITMAP
0440
FFFE
0440
7FFC
0840
1F58
2262
D442
083E
3420
FFFE
0420
0420
0820
1020
2020
ENDCHAR
STARTCHAR U+846D
ENCODING 33901
SWIDTH 1000 0
DWIDTH 16 0
BBX 16 16 0 -2
BITMAP
0440
0440
FFFE
0440
0000
3EF8
2208
3EF8
2008
3E00
20FC
2088
3E50
2020
20D8
2306
ENDCHAR
STARTCHAR U+846E
ENCODING 33902
SWIDTH 1000 0
DWIDTH 16 0
BBX 16 16 0 -2
BITMAP
0420
0420
FFFE
0420
0CF0
3090
2090
3C8E
2100
3DFC
2088
2E50
F020
2050
218E
2604
ENDCHAR
STARTCHAR U+846F
ENCODING 33903
SWIDTH 1000 0
DWIDTH 16 0
BBX 16 16 0 -2
BITMAP
0440
0440
FFFE
0440
0480
1080
12FC
2484
7904
1444
7E34
0224
5404
4A04
4A14
8008
ENDCHAR
STARTCHAR U+8471
ENCODING 33905
SWIDTH 1000 0
DWIDTH 16 0
BBX 16 16 0 -2
BITMAP
0440
0440
7FFE
1440
1FF8
1248
2648
4D88
3148
0628
3A10
0188
2894
2816
47F4
0000
ENDCHAR
STARTCHAR U+8475
ENCODING 33909
SWIDTH 1000 0
DWIDTH 16 0
BBX 16 16 0 -2
BITMAP
0440
0440
FFFE
0440
7C90
0464
2428
1818
17EE
2104
4100
3FF8
0100
02C0
0C30
3010
ENDCHAR
STARTCHAR U+8477
ENCODING 33911
SWIDTH 1000 0
DWIDTH 16 0
BBX 16 16 0 -2
BITMAP
0420
7FFE
0420
7FFE
4104
BFF8
0100
1FF0
1110
1FF0
1110
1FF0
0100
FFFE
0100
0100
ENDCHAR
STARTCHAR U+8479
ENCODING 33913
SWIDTH 1000 0
DWIDTH 16 0
BBX 16 16 0 -2
BITMAP
0420
0420
FFFE
2420
1080
FEFE
2120
2220
3CBC
27E4
24A4
2494
248A
4482
547E
8800
ENDCHAR
STARTCHAR U+847A
ENCODING 33914
SWIDTH 1000 0
DWIDTH 16 0
BBX 16 16 0 -2
BITMAP
0440
FFFE
0440
1FF0
1010
1FF0
0000
7FFE
1010
1FF0
1010
1FF0
1010
FFFE
0010
0010
ENDCHAR
STARTCHAR U+8482
ENCODING 33922
SWIDTH 1000 0
DWIDTH 16 0
BBX 16 16 0 -2
BITMAP
0440
0440
7FFE
0540
3FFC
0420
0240
3FFE
2104
5FF8
1110
1110
1110
1170
1120
0100
ENDCHAR
STARTCHAR U+8484
ENCODING 33924
SWIDTH 1000 0
DWIDTH 16 0
BBX 16 16 0 -2
BITMAP
0420
0420
FFFE
0420
7FFE
4004
BE10
00FC
7F10
1450
1450
1410
2454
2426
43FC
8000
ENDCHAR
STARTCHAR U+848B
ENCODING 33931
SWIDTH 1000 0
DWIDTH 16 0
BBX 16 16 0 -2
BITMAP
0440
0440
FFFE
0440
0880
88F8
4908
6E90
4860
1990
2FFE
C810
4910
0910
0850
0820
ENDCHAR
STARTCHAR U+8490
ENCODING 33936
SWIDTH 1000 0
DWIDTH 16 0
BBX 16 16 0 -2
BITMAP
0420
FFFE
0520
0200
1FF8
1108
1FF8
1108
1FF8
12A0
02A8
04FC
04AA
0882
107E
2000
ENDCHAR
STARTCHAR U+8494
ENCODING 33940
SWIDTH 1000 0
DWIDTH 16 0
BBX 16 16 0 -2
BITMAP
0440
0440
7FFE
0440
0420
79FC
4820
4BFE
7810
4BFE
4910
48D0
7890
4810
4050
0020
ENDCHAR
STARTCHAR U+8499
ENCODING 33945
SWIDTH 1000 0
DWIDTH 16 0
BBX 16 16 0 -2
BITMAP
0420
FFFE
0420
7FFE
4004
0FF0
0000
7FFC
0610
1918
62B0
0CC0
73A0
0C98
728E
0104
ENDCHAR
STARTCHAR U+849C
ENCODING 33948
SWIDTH 1000 0
DWIDTH 16 0
BBX 16 16 0 -2
BITMAP
0840
0840
FFFE
0840
0000
7EFC
0000
FEFE
0810
4C98
6AD4
4A96
8914
8A10
2850
1020
ENDCHAR
STARTCHAR U+849F
ENCODING 33951
SWIDTH 1000 0
DWIDTH 16 0
BBX 16 16 0 -2
BITMAP
0440
0440
FFFE
0440
1080
08FC
FD04
0204
44F4
2694
2494
28F4
0E94
F004
0014
0008
ENDCHAR
STARTCHAR U+84A1
ENCODING 33953
SWIDTH 1000 0
DWIDTH 16 0
BBX 16 16 0 -2
BITMAP
0420
7FFE
0520
0080
3FFC
0420
7FFE
4204
8100
3FFC
0400
07F0
0810
0810
1050
2020
ENDCHAR
STARTCHAR U+84AD
ENCODING 33965
SWIDTH 1000 0
DWIDTH 16 0
BBX 16 16 0 -2
BITMAP
0420
7FFE
1420
1FFC
1104
2924
4FE4
0914
0208
0FFC
3104
D114
1FF4
0204
0C14
3008
ENDCHAR
STARTCHAR U+84B2
ENCODING 33970
SWIDTH 1000 0
DWIDTH 16 0
BBX 16 16 0 -2
BITMAP
0440
FFFE
0450
8448
5FFE
2040
97FC
5444
57FC
1444
2444
E7FC
2444
2444
2454
2448
ENDCHAR
STARTCHAR U+84B8
ENCODING 33976
SWIDTH 1000 0
DWIDTH 16 0
BBX 16 16 0 -2
BITMAP
0440
FFFE
0440
0440
3FF0
0060
7C8C
05B0
0540
0920
351C
C208
3FF0
1488
1266
2244
ENDCHAR
STARTCHAR U+84B9
ENCODING 33977
SWIDTH 1000 0
DWIDTH 16 0
BBX 16 16 0 -2
BITMAP
0420
FFFE
0420
0840
3FFC
0480
3FF8
0488
FFFE
0488
3FF8
0CC0
14A0
249C
4488
0480
ENDCHAR
STARTCHAR U+84BB
ENCODING 33979
SWIDTH 1000 0
DWIDTH 16 0
BBX 16 16 0 -2
BITMAP
0440
0440
FFFE
0440
3E7C
0204
0204
3E7C
2040
3E7C
1244
0A24
1214
2224
4A54
0488
ENDCHAR
STARTCHAR U+84BC
ENCODING 33980
SWIDTH 1000 0
DWIDTH 16 0
BBX 16 16 0 -2
BITMAP
0840
FFFE
0840
0900
02C0
0C30
3FEE
C824
0FE0
0820
0FE0
1000
1FF0
2810
4FF0
8810
ENDCHAR
STARTCHAR U+84BF
ENCODING 33983
SWIDTH 1000 0
DWIDTH 16 0
BBX 16 16 0 -2
BITMAP
0440
FFFE
0440
0540
7FFC
0000
0FF0
0810
0FF0
0000
3FFC
2004
27E4
2424
27F4
2008
ENDCHAR
STARTCHAR U+84C1
ENCODING 33985
SWIDTH 1000 0
DWIDTH 16 0
BBX 16 16 0 -2
BITMAP
0440
FFFE
0540
3FFC
0100
1FF8
0200
7FFE
0820
17D0
210E
5FF4
0540
0930
1120
0100
ENDCHAR
STARTCHAR U+84C4
ENCODING 33988
SWIDTH 1000 0
DWIDTH 16 0
BBX 16 16 0 -2
BITMAP
0440
FFFE
0440
0100
7FFC
0860
1FC0
0310
1C08
3FFC
0008
3FF8
2108
3FF8
2108
3FF8
ENDCHAR
STARTCHAR U+84C6
ENCODING 33990
SWIDTH 1000 0
DWIDTH 16 0
BBX 16 16 0 -2
BITMAP
0420
FFFE
0520
04A0
3FFE
2220
3FFE
2220
23E0
2080
2FF8
2888
2888
48A8
4890
8080
ENDCHAR
STARTCHAR U+84C9
ENCODING 33993
SWIDTH 1000 0
DWIDTH 16 0
BBX 16 16 0 -2
BITMAP
0440
FFFE
0640
0540
3FFE
4424
4910
128C
2448
0830
1FEE
6824
0820
0820
0FE0
0820
ENDCHAR
STARTCHAR U+84CA
ENCODING 33994
SWIDTH 1000 0
DWIDTH 16 0
BBX 16 16 0 -2
BITMAP
0440
FFFE
0440
0840
0D20
1218
244E
4FE4
0020
3E7C
1224
0A14
1224
2244
0A14
0408
ENDCHAR
STARTCHAR U+84CB
ENCODING 33995
SWIDTH 1000 0
DWIDTH 16 0
BBX 16 16 0 -2
BITMAP
0440
0440
FFFE
0540
1FF8
0100
7FFC
0240
0420
0FF0
0020
1FF0
1290
1290
FFFE
0000
ENDCHAR
STARTCHAR U+84CD
ENCODING 33997
SWIDTH 1000 0
DWIDTH 16 0
BBX 16 16 0 -2
BITMAP
0420
7FFE
0528
1FFC
0140
7FFE
0260
0F88
7408
03F8
0000
0FF8
0808
0FF8
0808
0FF8
ENDCHAR
STARTCHAR U+84D0
ENCODING 34000
SWIDTH 1000 0
DWIDTH 16 0
BBX 16 16 0 -2
BITMAP
0440
7FFE
0440
3FFC
2000
2FF8
2000
3FFE
2448
2530
2E0E
2424
3FFC
4220
42A0
8040
ENDCHAR
STARTCHAR U+84D1
ENCODING 34001
SWIDTH 1000 0
DWIDTH 16 0
BBX 16 16 0 -2
BITMAP
0420
7FFE
0520
0080
7FFC
0000
0FF0
0810
FFFE
0810
0FF0
0440
0C20
1510
660E
0404
ENDCHAR
STARTCHAR U+84D6
ENCODING 34006
SWIDTH 1000 0
DWIDTH 16 0
BBX 16 16 0 -2
BITMAP
0440
FFFE
0440
0800
3FF8
2448
2388
2448
3FF8
2080
2098
3EE0
2080
2682
387E
2000
ENDCHAR
STARTCHAR U+84D9
ENCODING 34009
SWIDTH 1000 0
DWIDTH 16 0
BBX 16 16 0 -2
BITMAP
0440
FFFE
0440
0540
3FFC
2000
2490
2490
2490
2AA8
30C4
2FF8
2080
4080
5FFC
8000
ENDCHAR
STARTCHAR U+84DA
ENCODING 34010
SWIDTH 1000 0
DWIDTH 16 0
BBX 16 16 0 -2
BITMAP
0420
0420
7FFE
04A0
08FC
0D50
1220
34D8
5736
94C0
1718
1460
158C
1030
10C0
1300
ENDCHAR
STARTCHAR U+84EC
ENCODING 34028
SWIDTH 1000 0
DWIDTH 16 0
BBX 16 16 0 -2
BITMAP
0420
FFFE
0420
4500
31F0
2320
04C0
F338
1C46
13F8
1040
13F8
1040
17FE
2840
47FE
ENDCHAR
STARTCHAR U+84EE
ENCODING 34030
SWIDTH 1000 0
DWIDTH 16 0
BBX 16 16 0 -2
BITMAP
0440
FFFE
0440
4440
37FC
2040
03F8
E248
23F8
2248
23F8
2040
27FC
2040
5040
8FFE
ENDCHAR
STARTCHAR U+84F4
ENCODING 34036
SWIDTH 1000 0
DWIDTH 16 0
BBX 16 16 0 -2
BITMAP
0420
FFFE
0520
7FFE
0100
1FF0
1110
1FF0
1110
1FF0
0128
FFFE
0824
0820
00A0
0040
ENDCHAR
STARTCHAR U+84FC
ENCODING 34044
SWIDTH 1000 0
DWIDTH 16 0
BBX 16 16 0 -2
BITMAP
0440
FFFE
0440
3E78
1248
0A38
1348
6288
0C40
31B0
C60E
38E0
0718
38E0
0700
7800
ENDCHAR
STARTCHAR U+84FF
ENCODING 34047
SWIDTH 1000 0
DWIDTH 16 0
BBX 16 16 0 -2
BITMAP
0420
0420
7FFE
0520
04A0
7FFE
4004
93F8
1840
3080
53F8
9208
13F8
1208
13F8
1208
ENDCHAR
STARTCHAR U+8500
ENCODING 34048
SWIDTH 1000 0
DWIDTH 16 0
BBX 16 16 0 -2
BITMAP
0440
0440
FFFC
0440
1000
087C
7F44
2248
1450
FF48
0044
3E44
2244
2254
3E48
2240
ENDCHAR
STARTCHAR U+8506
ENCODING 34054
SWIDTH 1000 0
DWIDTH 16 0
BBX 16 16 0 -2
BITMAP
0420
FFFE
0420
4400
3040
23FC
8040
57FE
5108
1286
25FA
E290
2490
2060
2198
2606
ENDCHAR
STARTCHAR U+8511
ENCODING 34065
SWIDTH 1000 0
DWIDTH 16 0
BBX 16 16 0 -2
BITMAP
0820
FFFE
0820
3FF8
2448
2448
3FF8
0080
3FFC
2088
288C
2650
2460
41A4
4E14
8008
ENDCHAR
STARTCHAR U+8513
ENCODING 34067
SWIDTH 1000 0
DWIDTH 16 0
BBX 16 16 0 -2
BITMAP
0440
FFFC
0440
1FF0
1110
1FF0
0000
3FF8
2448
3FF8
0000
0FE0
0440
0380
1C70
E00E
ENDCHAR
STARTCHAR U+8514
ENCODING 34068
SWIDTH 1000 0
DWIDTH 16 0
BBX 16 16 0 -2
BITMAP
0440
FFFE
2440
3FFC
2004
5FE4
8004
1FC4
1044
1FC4
0004
3FE4
2224
3FE4
2224
3FEC
ENDCHAR
STARTCHAR U+8515
ENCODING 34069
SWIDTH 1000 0
DWIDTH 16 0
BBX 16 16 0 -2
BITMAP
0420
7FFE
0420
0AA0
7FFE
0AA0
139C
2100
7FFE
4104
1FF8
1108
1108
1138
1110
0100
ENDCHAR
STARTCHAR U+8517
ENCODING 34071
SWIDTH 1000 0
DWIDTH 16 0
BBX 16 16 0 -2
BITMAP
0420
7FFE
0420
0520
3FFC
2000
2220
2220
3FFE
2220
23E0
2008
4A44
4926
9122
0000
ENDCHAR
STARTCHAR U+8518
ENCODING 34072
SWIDTH 1000 0
DWIDTH 16 0
BBX 16 16 0 -2
BITMAP
0820
FFFE
0A20
0440
1FE0
1020
3D78
0288
0C60
3398
CC46
31A0
0E70
0180
0E00
7000
ENDCHAR
STARTCHAR U+851A
ENCODING 34074
SWIDTH 1000 0
DWIDTH 16 0
BBX 16 16 0 -2
BITMAP
0440
0440
FFFE
0440
3F48
2108
2108
3FFE
2008
3E48
2028
5F28
4408
5508
64A8
8C10
ENDCHAR
STARTCHAR U+851F
ENCODING 34079
SWIDTH 1000 0
DWIDTH 16 0
BBX 16 16 0 -2
BITMAP
0420
0420
FFFE
2420
1480
00FE
FD00
2280
3CFC
2520
27FE
2420
2450
4488
5506
8A04
ENDCHAR
STARTCHAR U+8521
ENCODING 34081
SWIDTH 1000 0
DWIDTH 16 0
BBX 16 16 0 -2
BITMAP
0440
FFFE
0440
1000
1EF8
2288
5450
A820
17D8
2006
DFF8
0100
1120
1918
2508
4200
ENDCHAR
STARTCHAR U+8526
ENCODING 34086
SWIDTH 1000 0
DWIDTH 16 0
BBX 16 16 0 -2
BITMAP
0440
FFFE
0540
1FF0
1010
1FF0
1010
1FF0
1000
1FF8
1000
1FFC
0044
2934
24A4
448C
ENDCHAR
STARTCHAR U+852C
ENCODING 34092
SWIDTH 1000 0
DWIDTH 16 0
BBX 16 16 0 -2
BITMAP
0440
FFFE
0440
0020
7DFC
0840
1088
11FC
5004
5D50
5150
5150
5D52
F252
024E
0400
ENDCHAR
STARTCHAR U+852D
ENCODING 34093
SWIDTH 1000 0
DWIDTH 16 0
BBX 16 16 0 -2
BITMAP
0440
0440
7FFE
0440
78A0
4910
524E
6FF4
5020
4BF8
6800
57FC
4080
4110
43F8
4008
ENDCHAR
STARTCHAR U+8535
ENCODING 34101
SWIDTH 1000 0
DWIDTH 16 0
BBX 16 16 0 -2
BITMAP
0420
7FFE
0428
0424
3FFE
2020
2FA4
2A26
2FA4
28A8
2F90
2A10
2FAA
404A
4084
8000
ENDCHAR
STARTCHAR U+853D
ENCODING 34109
SWIDTH 1000 0
DWIDTH 16 0
BBX 16 16 0 -2
BITMAP
0440
FFFE
0440
0860
4930
2A20
7F7E
4944
5DC4
5B28
6B28
6910
4910
4D28
4A46
0084
ENDCHAR
STARTCHAR U+8540
ENCODING 34112
SWIDTH 1000 0
DWIDTH 16 0
BBX 16 16 0 -2
BITMAP
0420
0420
FFFE
0420
0810
7EFC
0810
3E7C
2A54
2A54
2A54
0838
1C34
2A56
4A94
8910
ENDCHAR
STARTCHAR U+8541
ENCODING 34113
SWIDTH 1000 0
DWIDTH 16 0
BBX 16 16 0 -2
BITMAP
0440
FFFE
0440
3FF8
0008
1FF8
0008
3FF8
0000
3F78
0848
7F78
0010
7FFE
0810
0830
ENDCHAR
STARTCHAR U+8543
ENCODING 34115
SWIDTH 1000 0
DWIDTH 16 0
BBX 16 16 0 -2
BITMAP
0440
0440
FFFE
0440
00F8
3F10
0520
FFFE
0540
1930
7FFE
1114
1FF0
1110
1FF0
1010
ENDCHAR
STARTCHAR U+8548
ENCODING 34120
SWIDTH 1000 0
DWIDTH 16 0
BBX 16 16 0 -2
BITMAP
0440
FFFE
0440
7FFC
0440
3FF8
2448
3FF8
1010
1FF0
1010
1FF0
0100
7FFC
0100
0100
ENDCHAR
STARTCHAR U+8549
ENCODING 34121
SWIDTH 1000 0
DWIDTH 16 0
BBX 16 16 0 -2
BITMAP
0420
0420
FFFE
0520
1080
1FFC
3080
5FF8
9080
1FF8
1080
1FFC
0000
2888
2666
4444
ENDCHAR
STARTCHAR U+854A
ENCODING 34122
SWIDTH 1000 0
DWIDTH 16 0
BBX 16 16 0 -2
BITMAP
0440
0440
7FFE
0440
0110
2988
2828
47E0
1000
0C14
280A
A2AA
A5A4
A4A4
3D1C
0000
ENDCHAR
STARTCHAR U+854B
ENCODING 34123
SWIDTH 1000 0
DWIDTH 16 0
BBX 16 16 0 -2
BITMAP
0420
0420
FFFE
0420
0520
09F8
0900
0900
7FFC
0810
0810
0E9C
4890
4890
FFFE
0000
ENDCHAR
STARTCHAR U+854E
ENCODING 34126
SWIDTH 1000 0
DWIDTH 16 0
BBX 16 16 0 -2
BITMAP
0440
FFFE
0440
1FF0
0200
FFFE
0430
0FE8
3426
C7E4
0000
1FF8
1448
17C8
1028
1010
ENDCHAR
STARTCHAR U+8555
ENCODING 34133
SWIDTH 1000 0
DWIDTH 16 0
BBX 16 16 0 -2
BITMAP
0440
0440
FFFE
0548
5090
27FE
50A0
93FC
1AA4
2AA4
4B1C
8A04
0BFC
0A04
2BFC
1204
ENDCHAR
STARTCHAR U+8557
ENCODING 34135
SWIDTH 1000 0
DWIDTH 16 0
BBX 16 16 0 -2
BITMAP
0440
0440
FFFE
0440
7C80
44FC
4488
7D50
1020
5050
5C8E
53FC
5088
5E88
F0F8
0088
ENDCHAR
STARTCHAR U+8558
ENCODING 34136
SWIDTH 1000 0
DWIDTH 16 0
BBX 16 16 0 -2
BITMAP
0440
FFFE
0540
0FF0
0100
3FFC
1020
7EFC
1020
7EFE
0000
3FF8
0840
0844
103C
2000
ENDCHAR
STARTCHAR U+855A
ENCODING 34138
SWIDTH 1000 0
DWIDTH 16 0
BBX 16 16 0 -2
BITMAP
0420
FFFE
0420
0FF0
0810
3FFC
2244
3E7C
0000
1FF0
0000
FFFE
0400
0FF0
0410
0030
ENDCHAR
STARTCHAR U+8563
ENCODING 34147
SWIDTH 1000 0
DWIDTH 16 0
BBX 16 16 0 -2
BITMAP
0440
FFFE
0440
01FC
3E08
0910
7FFE
5024
9020
1EFC
22A0
54A0
8BFE
1020
2020
C020
ENDCHAR
STARTCHAR U+8568
ENCODING 34152
SWIDTH 1000 0
DWIDTH 16 0
BBX 16 16 0 -2
BITMAP
0420
0420
FFFE
0420
7FFC
5120
4A20
7F7E
4494
5510
5510
5F28
4428
4444
8846
9084
ENDCHAR
STARTCHAR U+8569
ENCODING 34153
SWIDTH 1000 0
DWIDTH 16 0
BBX 16 16 0 -2
BITMAP
0420
7FFE
0420
21F8
1908
11F8
4108
37FE
2100
11FC
1294
ED14
2224
2444
2094
2008
ENDCHAR
STARTCHAR U+856A
ENCODING 34154
SWIDTH 1000 0
DWIDTH 16 0
BBX 16 16 0 -2
BITMAP
0420
0420
FFFE
1420
1FFC
3290
D290
7FFC
1290
1290
FFFE
0000
2490
3248
236C
4248
ENDCHAR
STARTCHAR U+856D
ENCODING 34157
SWIDTH 1000 0
DWIDTH 16 0
BBX 16 16 0 -2
BITMAP
0420
7FFE
0520
1FF8
0108
3FFE
0108
1FF8
2524
3D3C
2104
3FFC
2104
3D3C
4524
8544
ENDCHAR
STARTCHAR U+8577
ENCODING 34167
SWIDTH 1000 0
DWIDTH 16 0
BBX 16 16 0 -2
BITMAP
0420
FFFE
0420
0420
7DFE
2840
11FC
FF04
15FC
1104
11FC
1104
11FC
1098
5186
2604
ENDCHAR
STARTCHAR U+857E
ENCODING 34174
SWIDTH 1000 0
DWIDTH 16 0
BBX 16 16 0 -2
BITMAP
0440
FFFE
0440
3FF8
0100
7FFE
4104
A950
1528
0000
3FF8
2108
3FF8
2108
3FF8
2008
ENDCHAR
STARTCHAR U+8580
ENCODING 34176
SWIDTH 1000 0
DWIDTH 16 0
BBX 16 16 0 -2
BITMAP
0420
0420
FFFE
0420
43F8
2248
8A48
6AA8
53F8
1000
E7FC
24A4
24A4
24A4
2FFE
2000
ENDCHAR
STARTCHAR U+8584
ENCODING 34180
SWIDTH 1000 0
DWIDTH 16 0
BBX 16 16 0 -2
BITMAP
0440
FFFE
0450
4448
37FE
2040
83F8
7248
53F8
1248
23F8
E248
3FFE
2110
2110
2030
ENDCHAR
STARTCHAR U+8587
ENCODING 34183
SWIDTH 1000 0
DWIDTH 16 0
BBX 16 16 0 -2
BITMAP
0420
7FFE
0420
1420
3110
4550
97DE
1024
27E4
6024
A7A4
2498
2498
28A4
28C6
3084
ENDCHAR
STARTCHAR U+8588
ENCODING 34184
SWIDTH 1000 0
DWIDTH 16 0
BBX 16 16 0 -2
BITMAP
0420
FFFE
0520
0280
0C60
37DC
C008
1FF0
1550
1390
1FF0
0820
0FE0
0820
0FE0
0820
ENDCHAR
STARTCHAR U+858A
ENCODING 34186
SWIDTH 1000 0
DWIDTH 16 0
BBX 16 16 0 -2
BITMAP
0420
0420
FFFE
1424
1F84
2124
7FA4
A4A4
3FA4
24A4
3FA4
0024
2AA4
2A44
4A54
0008
ENDCHAR
STARTCHAR U+8590
ENCODING 34192
SWIDTH 1000 0
DWIDTH 16 0
BBX 16 16 0 -2
BITMAP
0440
FFFE
0440
0020
7CFC
1020
11FE
FE88
3184
3AFA
5488
5150
9220
1050
108E
1104
ENDCHAR
STARTCHAR U+8591
ENCODING 34193
SWIDTH 1000 0
DWIDTH 16 0
BBX 16 16 0 -2
BITMAP
0440
FFFE
0440
7FFC
0000
1FF0
1110
1FF0
1110
7FFC
1110
1FF0
1110
1FF0
0000
7FFC
ENDCHAR
STARTCHAR U+8594
ENCODING 34196
SWIDTH 1000 0
DWIDTH 16 0
BBX 16 16 0 -2
BITMAP
0440
7FFC
0440
0540
7FFC
0920
1550
FFFE
0000
1FF0
1010
17D0
1450
17D0
1010
1FF0
ENDCHAR
STARTCHAR U+8597
ENCODING 34199
SWIDTH 1000 0
DWIDTH 16 0
BBX 16 16 0 -2
BITMAP
0440
FFFE
0440
3FFC
2104
2FE4
2104
2FF4
2444
27C4
2284
24A4
2C44
3634
2424
3FFC
ENDCHAR
STARTCHAR U+8599
ENCODING 34201
SWIDTH 1000 0
DWIDTH 16 0
BBX 16 16 0 -2
BITMAP
0440
0440
FFFE
0440
2080
3EFE
2990
4A90
08FC
FE90
0890
14FE
1290
2390
42FE
8080
ENDCHAR
STARTCHAR U+859B
ENCODING 34203
SWIDTH 1000 0
DWIDTH 16 0
BBX 16 16 0 -2
BITMAP
0840
0840
FFFE
0840
2020
7DFC
4508
4488
7C50
43FE
7C20
45FC
4420
7C20
4420
0020
ENDCHAR
STARTCHAR U+859C
ENCODING 34204
SWIDTH 1000 0
DWIDTH 16 0
BBX 16 16 0 -2
BITMAP
0420
0420
7FFE
0420
0040
3E20
23FE
2284
3E48
21FE
3E20
5220
52FE
5E20
9220
0020
ENDCHAR
STARTCHAR U+85A4
ENCODING 34212
SWIDTH 1000 0
DWIDTH 16 0
BBX 16 16 0 -2
BITMAP
0440
0440
FFFE
0440
7E90
2090
239E
3C90
479E
4490
A890
1B9E
1090
2090
47FE
8000
ENDCHAR
STARTCHAR U+85A6
ENCODING 34214
SWIDTH 1000 0
DWIDTH 16 0
BBX 16 16 0 -2
BITMAP
0440
FFFE
0640
0540
3FFC
2240
2FF8
2248
3FF8
2800
2FFC
2800
2FFC
4A44
4924
912C
ENDCHAR
STARTCHAR U+85A8
ENCODING 34216
SWIDTH 1000 0
DWIDTH 16 0
BBX 16 16 0 -2
BITMAP
0440
FFFE
0440
3FF8
2448
3FF8
0000
7FFE
4004
BFF8
1040
3E48
4470
A842
103E
6000
ENDCHAR
STARTCHAR U+85A9
ENCODING 34217
SWIDTH 1000 0
DWIDTH 16 0
BBX 16 16 0 -2
BITMAP
0420
FFFE
0420
0440
7BFC
4908
5090
57FE
6520
55FC
5620
55FC
7420
4820
4BFE
5000
ENDCHAR
STARTCHAR U+85AA
ENCODING 34218
SWIDTH 1000 0
DWIDTH 16 0
BBX 16 16 0 -2
BITMAP
0440
0440
FFFE
1440
080C
7F70
2240
1440
7F7E
0848
7F48
0848
2C88
4A88
A908
1208
ENDCHAR
STARTCHAR U+85AB
ENCODING 34219
SWIDTH 1000 0
DWIDTH 16 0
BBX 16 16 0 -2
BITMAP
0440
7FFE
0440
3FF8
0100
FFFE
1110
1FF0
1110
1FF0
0100
3FF8
0100
7FFC
2490
4488
ENDCHAR
STARTCHAR U+85AC
ENCODING 34220
SWIDTH 1000 0
DWIDTH 16 0
BBX 16 16 0 -2
BITMAP
0820
FFFE
0920
0200
47C8
2450
17E0
2450
C7C8
4100
FFFE
0380
0560
0918
310E
C104
ENDCHAR
STARTCHAR U+85AE
ENCODING 34222
SWIDTH 1000 0
DWIDTH 16 0
BBX 16 16 0 -2
BITMAP
0440
0440
FFFE
1440
9240
5444
FF7E
3888
5688
9348
2028
FE10
2828
4824
3046
CE84
ENDCHAR
STARTCHAR U+85AF
ENCODING 34223
SWIDTH 1000 0
DWIDTH 16 0
BBX 16 16 0 -2
BITMAP
0420
FFFE
0420
1FF8
1248
1FF8
0120
3FF8
0140
7FFE
0300
1FF0
6810
0FF0
0810
0FF0
ENDCHAR
STARTCHAR U+85B9
ENCODING 34233
SWIDTH 1000 0
DWIDTH 16 0
BBX 16 16 0 -2
BITMAP
0440
7FFE
0540
3FF8
0100
0FF0
0000
7FFE
4004
9FF0
0820
1FF0
0110
3FF8
0100
7FFE
ENDCHAR
STARTCHAR U+85BA
ENCODING 34234
SWIDTH 1000 0
DWIDTH 16 0
BBX 16 16 0 -2
BITMAP
0420
FFFE
0520
7FFE
0440
7E9C
1528
1528
2524
492A
0808
0FF8
0808
0FF8
1008
2008
ENDCHAR
STARTCHAR U+85C1
ENCODING 34241
SWIDTH 1000 0
DWIDTH 16 0
BBX 16 16 0 -2
BITMAP
0420
7FFE
0520
3FFC
0420
07E0
0000
3FF8
2448
27C8
2108
7FFE
0340
0530
191C
6108
ENDCHAR
STARTCHAR U+85C9
ENCODING 34249
SWIDTH 1000 0
DWIDTH 16 0
BBX 16 16 0 -2
BITMAP
0420
0420
FFFE
1420
1048
FDFE
1048
7DFE
1000
FEFC
3884
34FC
5284
9084
10FC
1084
ENDCHAR
STARTCHAR U+85CD
ENCODING 34253
SWIDTH 1000 0
DWIDTH 16 0
BBX 16 16 0 -2
BITMAP
0440
0440
7FFE
0440
3F20
243E
3F28
2124
3F44
2440
3F00
0000
1FF8
1248
1248
FFFE
ENDCHAR
STARTCHAR U+85CF
ENCODING 34255
SWIDTH 1000 0
DWIDTH 16 0
BBX 16 16 0 -2
BITMAP
0440
FFFE
0450
0428
1FFE
5020
57A8
752C
17A8
74A8
5790
5510
97AA
204A
2084
4000
ENDCHAR
STARTCHAR U+85D0
ENCODING 34256
SWIDTH 1000 0
DWIDTH 16 0
BBX 16 16 0 -2
BITMAP
0440
FFFE
0440
0820
3040
D5FC
5904
69FC
9904
25FC
CD54
1450
2452
C492
150E
0A00
ENDCHAR
STARTCHAR U+85D5
ENCODING 34261
SWIDTH 1000 0
DWIDTH 16 0
BBX 16 16 0 -2
BITMAP
0420
7FFE
0420
10FC
FEA4
10FC
7CA4
10FC
FE20
31FE
3922
552A
513E
91EA
110A
1104
ENDCHAR
STARTCHAR U+85DC
ENCODING 34268
SWIDTH 1000 0
DWIDTH 16 0
BBX 16 16 0 -2
BITMAP
0440
FFFE
0440
3E80
08FC
7EA4
1D24
2A54
4988
0640
1930
E546
0380
0D60
3118
0300
ENDCHAR
STARTCHAR U+85DD
ENCODING 34269
SWIDTH 1000 0
DWIDTH 16 0
BBX 16 16 0 -2
BITMAP
0440
FFFE
0C40
3E20
08F8
7F28
2268
49B8
BE4A
0984
7E00
1FF0
0000
7FFC
0810
1FF8
ENDCHAR
STARTCHAR U+85E4
ENCODING 34276
SWIDTH 1000 0
DWIDTH 16 0
BBX 16 16 0 -2
BITMAP
0440
0440
FFFE
0440
7A48
4950
4BFC
7880
4BFC
4910
7A4C
4D44
48D0
4948
8A48
98C0
ENDCHAR
STARTCHAR U+85E5
ENCODING 34277
SWIDTH 1000 0
DWIDTH 16 0
BBX 16 16 0 -2
BITMAP
0440
7FFE
0540
1208
27D2
7C7C
17C8
2454
7FDE
0100
7FFE
0340
0520
0918
310E
C104
ENDCHAR
STARTCHAR U+85E9
ENCODING 34281
SWIDTH 1000 0
DWIDTH 16 0
BBX 16 16 0 -2
BITMAP
0440
FFFE
0440
4400
33F8
2490
8FFE
51C0
52B0
1C8E
E7FC
2488
27F8
2488
27F8
2408
ENDCHAR
STARTCHAR U+85EA
ENCODING 34282
SWIDTH 1000 0
DWIDTH 16 0
BBX 16 16 0 -2
BITMAP
0440
FFFE
0840
3E20
2A20
FF7E
2A64
7FA4
4924
7F24
1014
FF88
2214
2412
1822
E742
ENDCHAR
STARTCHAR U+85F7
ENCODING 34295
SWIDTH 1000 0
DWIDTH 16 0
BBX 16 16 0 -2
BITMAP
0440
FFFE
0440
2440
1028
7EFC
0028
3DFE
0030
3C7C
0084
3DFC
2684
2484
3CFC
0084
ENDCHAR
STARTCHAR U+85F9
ENCODING 34297
SWIDTH 1000 0
DWIDTH 16 0
BBX 16 16 0 -2
BITMAP
0420
FFFE
0420
24FC
1084
FEFC
0084
7CFC
0080
7DFE
0322
7D52
458A
45F2
7C0A
0004
ENDCHAR
STARTCHAR U+85FA
ENCODING 34298
SWIDTH 1000 0
DWIDTH 16 0
BBX 16 16 0 -2
BITMAP
0420
7FFE
0420
3E7C
2244
3E7C
2244
3E7C
2484
2FE4
3484
27E4
2484
27E4
2494
27E8
ENDCHAR
STARTCHAR U+85FB
ENCODING 34299
SWIDTH 1000 0
DWIDTH 16 0
BBX 16 16 0 -2
BITMAP
0440
FFFE
0440
43F0
2210
A3F0
5000
57BC
14A4
27BC
E040
2FFE
20E0
2150
224E
2C44
ENDCHAR
STARTCHAR U+85FE
ENCODING 34302
SWIDTH 1000 0
DWIDTH 16 0
BBX 16 16 0 -2
BITMAP
0420
FFFE
0420
0820
7F3E
0844
3EFC
2A44
2A7C
3E44
087C
1C44
2A7C
4A28
8846
0884
ENDCHAR
STARTCHAR U+8602
ENCODING 34306
SWIDTH 1000 0
DWIDTH 16 0
BBX 16 16 0 -2
BITMAP
0440
7FFE
0440
1114
1492
27F0
1000
2890
A2AA
BE3E
0100
FFFE
0340
0530
190E
6104
ENDCHAR
STARTCHAR U+8606
ENCODING 34310
SWIDTH 1000 0
DWIDTH 16 0
BBX 16 16 0 -2
BITMAP
0840
FFFE
0A40
03F8
0200
3FFC
2108
2FE0
2110
2FE0
2920
2FE0
2920
5FF0
5450
BFFE
ENDCHAR
STARTCHAR U+8607
ENCODING 34311
SWIDTH 1000 0
DWIDTH 16 0
BBX 16 16 0 -2
BITMAP
0440
FFFE
0440
2440
3E1C
24E0
7E20
AAFC
3E20
2A70
3E68
00A6
54A4
5520
9420
0020
ENDCHAR
STARTCHAR U+860A
ENCODING 34314
SWIDTH 1000 0
DWIDTH 16 0
BBX 16 16 0 -2
BITMAP
0440
FFFE
0440
2440
31FC
2124
4554
F98C
11FC
2400
7DFC
0154
5554
5554
97FE
0000
ENDCHAR
STARTCHAR U+860B
ENCODING 34315
SWIDTH 1000 0
DWIDTH 16 0
BBX 16 16 0 -2
BITMAP
0440
FFFE
0440
0400
08FC
2F20
28FC
FF84
08FC
4A84
6BFC
4A84
8CFC
0848
3086
C104
ENDCHAR
STARTCHAR U+8613
ENCODING 34323
SWIDTH 1000 0
DWIDTH 16 0
BBX 16 16 0 -2
BITMAP
0440
FFFE
0440
0C80
70F8
1110
FE20
11FC
3924
35FC
5524
51FC
9000
12A4
1252
1452
ENDCHAR
STARTCHAR U+8616
ENCODING 34326
SWIDTH 1000 0
DWIDTH 16 0
BBX 16 16 0 -2
BITMAP
0440
FFFE
1440
7DFC
4490
7DFC
4020
7DFC
4420
7D20
0120
FFFE
03C0
0D30
310E
C104
ENDCHAR
STARTCHAR U+8617
ENCODING 34327
SWIDTH 1000 0
DWIDTH 16 0
BBX 16 16 0 -2
BITMAP
0440
FFFE
0460
3E10
22FC
3E48
21FE
3E20
52FC
9E20
0120
FFFE
0740
0930
310E
C104
ENDCHAR
STARTCHAR U+861A
ENCODING 34330
SWIDTH 1000 0
DWIDTH 16 0
BBX 16 16 0 -2
BITMAP
0440
0440
FFFE
0440
2484
3E48
45FE
FE20
4AFC
7E20
4A20
7FFE
0020
5520
5520
9520
ENDCHAR
STARTCHAR U+8622
ENCODING 34338
SWIDTH 1000 0
DWIDTH 16 0
BBX 16 16 0 -2
BITMAP
0440
FFFE
0440
1080
FEFC
4480
28F8
FE08
00F8
7C80
44F8
7C80
44FC
7C80
4482
4C7E
ENDCHAR
STARTCHAR U+862D
ENCODING 34349
SWIDTH 1000 0
DWIDTH 16 0
BBX 16 16 0 -2
BITMAP
0440
FFFE
0440
7C7C
4444
7C7C
4444
7D7C
5FF4
4104
5FF4
5554
5FF4
4384
4574
592C
ENDCHAR
STARTCHAR U+862F
ENCODING 34351
SWIDTH 1000 0
DWIDTH 16 0
BBX 16 16 0 -2
BITMAP
0440
FFFC
0440
47F0
3290
9250
43FC
5654
1494
E924
2654
2188
1FF8
1248
1248
7FFE
ENDCHAR
STARTCHAR U+8630
ENCODING 34352
SWIDTH 1000 0
DWIDTH 16 0
BBX 16 16 0 -2
BITMAP
0440
FFFE
0440
15F8
1148
2528
79F8
1000
2BFC
7E94
0BFC
5400
55F8
5490
8060
079E
ENDCHAR
STARTCHAR U+863F
ENCODING 34367
SWIDTH 1000 0
DWIDTH 16 0
BBX 16 16 0 -2
BITMAP
0440
FFFE
0440
3FF8
2448
3FF8
10A0
2490
79FC
1320
7FFC
0520
51FC
5520
95FE
0000
ENDCHAR
STARTCHAR U+864D
ENCODING 34381
SWIDTH 1000 0
DWIDTH 16 0
BBX 16 16 0 -2
BITMAP
0100
0100
01F0
0100
3FFE
2104
2100
2120
2140
2180
2300
2D08
2108
410C
40F8
8000
ENDCHAR
STARTCHAR U+864E
ENCODING 34382
SWIDTH 1000 0
DWIDTH 16 0
BBX 16 16 0 -2
BITMAP
0100
01F0
0100
3FFC
2108
21E0
2F08
21F8
2000
27C0
2440
2444
2444
4446
483C
9000
ENDCHAR
STARTCHAR U+8650
ENCODING 34384
SWIDTH 1000 0
DWIDTH 16 0
BBX 16 16 0 -2
BITMAP
0100
01F8
0100
3FFE
2104
21E0
2F10
21F0
2000
27FC
2400
3FFE
2400
4400
47FC
8000
ENDCHAR
STARTCHAR U+8654
ENCODING 34388
SWIDTH 1000 0
DWIDTH 16 0
BBX 16 16 0 -2
BITMAP
0100
01F8
0100
3FFE
2104
3FF0
2108
20F8
2080
3FFE
2220
2220
2140
4080
4360
9C1C
ENDCHAR
STARTCHAR U+8655
ENCODING 34389
SWIDTH 1000 0
DWIDTH 16 0
BBX 16 16 0 -2
BITMAP
0100
01F8
0100
3FFE
2104
2FE8
210C
28F8
2800
2F78
2948
354A
224E
4580
48FE
9000
ENDCHAR
STARTCHAR U+865A
ENCODING 34394
SWIDTH 1000 0
DWIDTH 16 0
BBX 16 16 0 -2
BITMAP
0100
01F8
0100
3FFE
2104
21F0
3F04
21FC
2000
2240
3248
2A4C
4A50
4240
BFFE
0000
ENDCHAR
STARTCHAR U+865C
ENCODING 34396
SWIDTH 1000 0
DWIDTH 16 0
BBX 16 16 0 -2
BITMAP
0100
01F8
0100
3FFE
2104
2FE0
2108
20F8
27F0
2490
27F0
2490
2FF8
4108
4228
8C10
ENDCHAR
STARTCHAR U+865E
ENCODING 34398
SWIDTH 1000 0
DWIDTH 16 0
BBX 16 16 0 -2
BITMAP
0200
03F0
0200
3FFE
2204
2FC0
2210
21E0
2FF0
2810
2FF0
2100
3FF8
4140
4230
8C0C
ENDCHAR
STARTCHAR U+865F
ENCODING 34399
SWIDTH 1000 0
DWIDTH 16 0
BBX 16 16 0 -2
BITMAP
0040
787C
4840
4BFE
4A44
7A70
03C4
FA7C
2200
42F0
7A90
0A90
0A92
0A92
2B0E
1400
ENDCHAR
STARTCHAR U+8667
ENCODING 34407
SWIDTH 1000 0
DWIDTH 16 0
BBX 16 16 0 -2
BITMAP
0800
0F3C
0800
7F80
487E
7E10
4910
4720
523C
5F84
7204
5F84
5204
5F84
5214
9F88
ENDCHAR
STARTCHAR U+866B
ENCODING 34411
SWIDTH 1000 0
DWIDTH 16 0
BBX 16 16 0 -2
BITMAP
0100
0100
0100
3FF8
2108
2108
2108
2108
3FF8
2108
0100
0110
0108
01FC
7F08
0000
ENDCHAR
STARTCHAR U+8671
ENCODING 34417
SWIDTH 1000 0
DWIDTH 16 0
BBX 16 16 0 -2
BITMAP
0000
7FF0
0010
03D0
7C10
0410
3F90
2490
2490
3F90
2410
048A
07CA
7C66
2042
0000
ENDCHAR
STARTCHAR U+8679
ENCODING 34425
SWIDTH 1000 0
DWIDTH 16 0
BBX 16 16 0 -2
BITMAP
1000
1000
11FE
FE20
9220
9220
9220
9220
FE20
9220
1020
1420
1220
1E20
E3FE
0000
ENDCHAR
STARTCHAR U+867B
ENCODING 34427
SWIDTH 1000 0
DWIDTH 16 0
BBX 16 16 0 -2
BITMAP
1040
1020
1010
1000
FFFE
9280
9280
9280
FE80
1080
1480
1280
1F80
F2FE
4080
0000
ENDCHAR
STARTCHAR U+868A
ENCODING 34442
SWIDTH 1000 0
DWIDTH 16 0
BBX 16 16 0 -2
BITMAP
1040
1030
1024
7FFE
5508
5508
5488
5490
7C50
1020
1420
1250
1F58
E28E
0104
0200
ENDCHAR
STARTCHAR U+868B
ENCODING 34443
SWIDTH 1000 0
DWIDTH 16 0
BBX 16 16 0 -2
BITMAP
1020
1020
1020
11FC
7D24
5524
5524
5524
7D54
514C
1184
1504
1F04
E504
0114
0108
ENDCHAR
STARTCHAR U+868C
ENCODING 34444
SWIDTH 1000 0
DWIDTH 16 0
BBX 16 16 0 -2
BITMAP
1020
1020
1020
7FFE
5220
5220
53FE
7E20
5220
53FE
1420
1220
1F20
F220
4020
0020
ENDCHAR
STARTCHAR U+8693
ENCODING 34451
SWIDTH 1000 0
DWIDTH 16 0
BBX 16 16 0 -2
BITMAP
1000
13E4
1024
7C24
55E4
5504
5504
5504
7DE4
1024
1824
1424
1E24
E424
00A4
0044
ENDCHAR
STARTCHAR U+8695
ENCODING 34453
SWIDTH 1000 0
DWIDTH 16 0
BBX 16 16 0 -2
BITMAP
3FFC
0100
0100
FFFE
0240
0420
0910
310E
DFF4
1110
1FF0
1110
0108
01FC
7E08
0000
ENDCHAR
STARTCHAR U+86A3
ENCODING 34467
SWIDTH 1000 0
DWIDTH 16 0
BBX 16 16 0 -2
BITMAP
1000
1090
1090
7C90
5488
5508
550C
7D46
5244
1040
1840
1490
1E88
E5FC
4088
0000
ENDCHAR
STARTCHAR U+86A4
ENCODING 34468
SWIDTH 1000 0
DWIDTH 16 0
BBX 16 16 0 -2
BITMAP
3FF0
0A10
0920
0440
0380
1C60
E11E
1FF4
1110
1110
1FF0
0120
0110
01F8
7F10
0000
ENDCHAR
STARTCHAR U+86A9
ENCODING 34473
SWIDTH 1000 0
DWIDTH 16 0
BBX 16 16 0 -2
BITMAP
0100
1108
1108
1FF8
0100
FFFE
0100
0100
1FF8
1108
1FF8
1110
0108
01FC
7E08
0000
ENDCHAR
STARTCHAR U+86AA
ENCODING 34474
SWIDTH 1000 0
DWIDTH 16 0
BBX 16 16 0 -2
BITMAP
1010
1110
1090
7C50
5410
5510
5490
5450
7C1E
53F0
1810
1410
1E10
E410
0010
0000
ENDCHAR
STARTCHAR U+86AB
ENCODING 34475
SWIDTH 1000 0
DWIDTH 16 0
BBX 16 16 0 -2
BITMAP
1080
1080
10FC
7D04
5604
55F4
5514
5514
7DF4
1104
1914
1508
1F02
E502
00FE
0000
ENDCHAR
STARTCHAR U+86AF
ENCODING 34479
SWIDTH 1000 0
DWIDTH 16 0
BBX 16 16 0 -2
BITMAP
1000
101C
11E0
1100
7D00
5500
5500
55FE
7D10
5110
1910
1510
1F10
E510
03FE
0000
ENDCHAR
STARTCHAR U+86B0
ENCODING 34480
SWIDTH 1000 0
DWIDTH 16 0
BBX 16 16 0 -2
BITMAP
1020
1020
1020
1020
7DFC
5524
5524
5524
7DFC
1124
1924
1524
1F24
E5FC
0104
0000
ENDCHAR
STARTCHAR U+86B6
ENCODING 34486
SWIDTH 1000 0
DWIDTH 16 0
BBX 16 16 0 -2
BITMAP
1088
1088
1088
7FFE
5488
5488
5488
5488
7CF8
1088
1888
1488
1EF8
E488
0088
0000
ENDCHAR
STARTCHAR U+86C4
ENCODING 34500
SWIDTH 1000 0
DWIDTH 16 0
BBX 16 16 0 -2
BITMAP
1020
1020
1020
7FFE
5420
5420
5420
5420
7DFC
1104
1904
1504
1F04
E5FC
0104
0000
ENDCHAR
STARTCHAR U+86C6
ENCODING 34502
SWIDTH 1000 0
DWIDTH 16 0
BBX 16 16 0 -2
BITMAP
1000
11F8
1108
7D08
5508
55F8
5508
5508
7D08
55F8
1108
1908
1508
1FFE
E400
0000
ENDCHAR
STARTCHAR U+86C7
ENCODING 34503
SWIDTH 1000 0
DWIDTH 16 0
BBX 16 16 0 -2
BITMAP
1040
1030
1020
11FE
7D04
5688
5480
5488
7CB0
54C0
1080
1484
1E84
E484
0078
0000
ENDCHAR
STARTCHAR U+86C9
ENCODING 34505
SWIDTH 1000 0
DWIDTH 16 0
BBX 16 16 0 -2
BITMAP
1040
1040
1040
10A0
7C90
554E
5624
5420
55FC
7C08
1010
14A0
1E40
E220
0020
0000
ENDCHAR
STARTCHAR U+86CB
ENCODING 34507
SWIDTH 1000 0
DWIDTH 16 0
BBX 16 16 0 -2
BITMAP
0000
7FFC
0108
1100
11F8
1100
2900
47FE
8100
1FF0
1110
1110
1FF0
0108
01FE
7E04
ENDCHAR
STARTCHAR U+86CD
ENCODING 34509
SWIDTH 1000 0
DWIDTH 16 0
BBX 16 16 0 -2
BITMAP
1210
0918
0D90
0920
7FFE
4104
8108
1FF0
1110
1110
1FF0
1120
0110
01F8
7E0C
0008
ENDCHAR
STARTCHAR U+86CE
ENCODING 34510
SWIDTH 1000 0
DWIDTH 16 0
BBX 16 16 0 -2
BITMAP
1000
11FE
1100
7D00
55FE
5520
5520
553C
7D24
1124
1924
1544
1F44
E584
0294
0508
ENDCHAR
STARTCHAR U+86D4
ENCODING 34516
SWIDTH 1000 0
DWIDTH 16 0
BBX 16 16 0 -2
BITMAP
1000
11FC
1104
7D04
5574
5554
5554
5554
7D54
5174
1954
1504
1F04
E5FC
0104
0000
ENDCHAR
STARTCHAR U+86D9
ENCODING 34521
SWIDTH 1000 0
DWIDTH 16 0
BBX 16 16 0 -2
BITMAP
1000
1020
1020
7DFC
5420
5420
57FE
5400
7C20
5020
15FC
1E20
F420
4020
03FE
0000
ENDCHAR
STARTCHAR U+86DB
ENCODING 34523
SWIDTH 1000 0
DWIDTH 16 0
BBX 16 16 0 -2
BITMAP
1040
1140
1140
7DFC
5540
5640
5440
7FFE
54E0
10D0
1150
1D48
E246
0444
0840
0040
ENDCHAR
STARTCHAR U+86DE
ENCODING 34526
SWIDTH 1000 0
DWIDTH 16 0
BBX 16 16 0 -2
BITMAP
1000
101C
13E0
7C20
5420
57FE
5420
5420
7C20
51FC
1904
1504
1F04
E5FC
0104
0000
ENDCHAR
STARTCHAR U+86DF
ENCODING 34527
SWIDTH 1000 0
DWIDTH 16 0
BBX 16 16 0 -2
BITMAP
1080
1040
1000
7FFE
5490
5508
5614
5510
7D10
50A0
18A0
1440
1EA0
E518
020E
0C04
ENDCHAR
STARTCHAR U+86E4
ENCODING 34532
SWIDTH 1000 0
DWIDTH 16 0
BBX 16 16 0 -2
BITMAP
1020
1020
1050
7C50
5488
5506
56FA
5400
7C00
11F8
1908
1508
1F08
E5F8
0108
0000
ENDCHAR
STARTCHAR U+86E9
ENCODING 34537
SWIDTH 1000 0
DWIDTH 16 0
BBX 16 16 0 -2
BITMAP
00F8
7E88
10C8
10A8
112A
1E0A
6506
0100
1FF8
1108
1FF8
1100
0108
01FC
3E04
0000
ENDCHAR
STARTCHAR U+86EC
ENCODING 34540
SWIDTH 1000 0
DWIDTH 16 0
BBX 16 16 0 -2
BITMAP
0440
0440
3FFC
0440
0440
FFFE
0920
1110
2FEE
C924
0FE0
0920
0110
01F8
3E10
0000
ENDCHAR
STARTCHAR U+86ED
ENCODING 34541
SWIDTH 1000 0
DWIDTH 16 0
BBX 16 16 0 -2
BITMAP
1000
11FE
1020
1040
7C48
5484
55FE
5424
7C20
55FC
1020
1420
1220
1F20
E3FE
0000
ENDCHAR
STARTCHAR U+86EE
ENCODING 34542
SWIDTH 1000 0
DWIDTH 16 0
BBX 16 16 0 -2
BITMAP
0200
0100
7FFE
1450
1448
2444
4444
0540
1FF0
1110
1110
1FF0
0108
01F8
7E0C
0008
ENDCHAR
STARTCHAR U+86EF
ENCODING 34543
SWIDTH 1000 0
DWIDTH 16 0
BBX 16 16 0 -2
BITMAP
1040
1040
1044
11FE
7C44
5448
57FE
5420
7C40
118C
1AF0
1484
1E84
E486
007C
0000
ENDCHAR
STARTCHAR U+86F8
ENCODING 34552
SWIDTH 1000 0
DWIDTH 16 0
BBX 16 16 0 -2
BITMAP
1020
1224
1126
10A8
7DFC
5504
5504
55FC
7D04
5104
19FC
1504
1F04
E504
0114
0108
ENDCHAR
STARTCHAR U+86F9
ENCODING 34553
SWIDTH 1000 0
DWIDTH 16 0
BBX 16 16 0 -2
BITMAP
1000
11FC
1008
1050
7C20
55FC
5524
55FC
7D24
5524
11FC
1524
1F24
E524
0114
0108
ENDCHAR
STARTCHAR U+86FB
ENCODING 34555
SWIDTH 1000 0
DWIDTH 16 0
BBX 16 16 0 -2
BITMAP
1090
10D0
1088
7D06
57FC
5508
5508
7DF8
5550
5050
1450
1E54
E494
0116
020C
0400
ENDCHAR
STARTCHAR U+86FE
ENCODING 34558
SWIDTH 1000 0
DWIDTH 16 0
BBX 16 16 0 -2
BITMAP
2010
20D0
2718
F914
A910
AFFE
A910
A954
F994
A318
2910
2532
3D52
C58A
0204
0000
ENDCHAR
STARTCHAR U+8700
ENCODING 34560
SWIDTH 1000 0
DWIDTH 16 0
BBX 16 16 0 -2
BITMAP
0000
1FF8
1248
1FF8
1000
1FFC
1104
2104
5FF4
1114
1FF4
1124
01F4
7E24
0014
0008
ENDCHAR
STARTCHAR U+8702
ENCODING 34562
SWIDTH 1000 0
DWIDTH 16 0
BBX 16 16 0 -2
BITMAP
1080
10F8
1088
7D50
5620
5450
558E
5624
7DFC
1020
15FC
1E20
F7FE
4020
0020
0020
ENDCHAR
STARTCHAR U+8703
ENCODING 34563
SWIDTH 1000 0
DWIDTH 16 0
BBX 16 16 0 -2
BITMAP
3FFC
2000
2FF8
2000
3FFE
2490
2458
2620
251E
2FF4
4910
4FF0
8108
01FC
3F08
0000
ENDCHAR
STARTCHAR U+8706
ENCODING 34566
SWIDTH 1000 0
DWIDTH 16 0
BBX 16 16 0 -2
BITMAP
1000
11FC
1104
7DFC
5504
5504
55FC
5504
7D04
51FC
1850
1450
1E92
E492
010E
0200
ENDCHAR
STARTCHAR U+8708
ENCODING 34568
SWIDTH 1000 0
DWIDTH 16 0
BBX 16 16 0 -2
BITMAP
2000
21FC
2104
F904
A9FC
A800
ABFC
A820
F820
A7FE
3050
2850
3C88
E888
0106
0204
ENDCHAR
STARTCHAR U+8709
ENCODING 34569
SWIDTH 1000 0
DWIDTH 16 0
BBX 16 16 0 -2
BITMAP
103E
13E0
1124
7C96
5494
55FC
5408
5450
7C20
57FE
1020
1820
1420
1E20
E4A0
0040
ENDCHAR
STARTCHAR U+870A
ENCODING 34570
SWIDTH 1000 0
DWIDTH 16 0
BBX 16 16 0 -2
BITMAP
1000
13E2
1082
108A
7FFA
548A
54CA
55AA
7DAA
528A
1A8A
148A
1E8A
F482
008A
0084
ENDCHAR
STARTCHAR U+870D
ENCODING 34573
SWIDTH 1000 0
DWIDTH 16 0
BBX 16 16 0 -2
BITMAP
2040
2040
20A0
F890
A908
ABF6
AC44
A840
FBF8
2040
3150
2948
3E44
EA44
0540
0080
ENDCHAR
STARTCHAR U+8711
ENCODING 34577
SWIDTH 1000 0
DWIDTH 16 0
BBX 16 16 0 -2
BITMAP
001C
7FE0
0820
113C
5D20
29FE
1000
2FFE
4080
0FF8
0888
0FF8
0884
00FE
7F04
0000
ENDCHAR
STARTCHAR U+8712
ENCODING 34578
SWIDTH 1000 0
DWIDTH 16 0
BBX 16 16 0 -2
BITMAP
2000
278E
2178
F908
A908
AA08
AFAE
A8A8
F8A8
22A8
313E
2900
3E80
EA60
041E
0800
ENDCHAR
STARTCHAR U+8718
ENCODING 34584
SWIDTH 1000 0
DWIDTH 16 0
BBX 16 16 0 -2
BITMAP
2100
2180
2100
FBFE
AA92
AC92
A892
ABD2
F892
A092
3152
2972
3D5E
EA12
0210
0400
ENDCHAR
STARTCHAR U+871A
ENCODING 34586
SWIDTH 1000 0
DWIDTH 16 0
BBX 16 16 0 -2
BITMAP
0440
7C7E
0440
3C7C
0440
7C7E
0540
0100
1FF0
1110
1110
1FF0
0108
01FC
7E04
0000
ENDCHAR
STARTCHAR U+871C
ENCODING 34588
SWIDTH 1000 0
DWIDTH 16 0
BBX 16 16 0 -2
BITMAP
0100
3FFE
2224
5548
1494
27F6
0304
0C80
3080
0FF8
0888
0FF8
0890
0088
3FFC
0008
ENDCHAR
STARTCHAR U+8725
ENCODING 34597
SWIDTH 1000 0
DWIDTH 16 0
BBX 16 16 0 -2
BITMAP
2080
2086
2098
FFF0
A890
A9DE
A9D4
AAB4
FAB4
A494
3494
2894
3C94
C8A4
00A4
00C0
ENDCHAR
STARTCHAR U+8729
ENCODING 34601
SWIDTH 1000 0
DWIDTH 16 0
BBX 16 16 0 -2
BITMAP
1000
11FE
1122
7D22
557A
5522
55FE
7D02
557A
194A
154A
1F7A
E54A
0202
020A
0404
ENDCHAR
STARTCHAR U+8734
ENCODING 34612
SWIDTH 1000 0
DWIDTH 16 0
BBX 16 16 0 -2
BITMAP
1000
11F8
1108
11F8
7D08
55F8
5480
54FC
7D54
5254
1894
14A4
1D24
E644
0494
0108
ENDCHAR
STARTCHAR U+8737
ENCODING 34615
SWIDTH 1000 0
DWIDTH 16 0
BBX 16 16 0 -2
BITMAP
2040
2248
2150
2040
FBFC
A880
AFFE
A920
FA18
25F6
3114
2950
3D20
C904
01FC
0000
ENDCHAR
STARTCHAR U+873B
ENCODING 34619
SWIDTH 1000 0
DWIDTH 16 0
BBX 16 16 0 -2
BITMAP
1020
13FE
1020
7DFC
5420
57FE
5400
55FC
7D04
11FC
1904
15FC
1F04
E504
0114
0108
ENDCHAR
STARTCHAR U+873F
ENCODING 34623
SWIDTH 1000 0
DWIDTH 16 0
BBX 16 16 0 -2
BITMAP
2040
2020
23FE
FA04
AD08
A900
A9DE
AA52
FA52
A65A
3194
2890
3D12
CA12
041E
0800
ENDCHAR
STARTCHAR U+8749
ENCODING 34633
SWIDTH 1000 0
DWIDTH 16 0
BBX 16 16 0 -2
BITMAP
1108
10CC
1050
7DFC
5524
55FC
5524
7D24
51FC
1820
1420
1FFE
F420
4020
0020
0020
ENDCHAR
STARTCHAR U+874B
ENCODING 34635
SWIDTH 1000 0
DWIDTH 16 0
BBX 16 16 0 -2
BITMAP
2004
2486
2364
2128
FBF8
AA48
ABF8
AA48
FA48
A3F8
2A48
2A4A
3A4A
C446
1842
0000
ENDCHAR
STARTCHAR U+874C
ENCODING 34636
SWIDTH 1000 0
DWIDTH 16 0
BBX 16 16 0 -2
BITMAP
20C8
2708
2148
F928
AFC8
A948
AB28
ABA8
FD4E
A978
2108
2908
3D08
C908
0108
0000
ENDCHAR
STARTCHAR U+874E
ENCODING 34638
SWIDTH 1000 0
DWIDTH 16 0
BBX 16 16 0 -2
BITMAP
1000
11F8
1108
7DF8
5508
55F8
5500
55FC
7F24
5524
1954
158C
1FF4
E404
0014
0008
ENDCHAR
STARTCHAR U+8753
ENCODING 34643
SWIDTH 1000 0
DWIDTH 16 0
BBX 16 16 0 -2
BITMAP
2040
2040
20A0
2118
FAF6
AC00
ABC4
AA54
FBD4
2254
3254
2BD4
3E54
CA44
0554
0488
ENDCHAR
STARTCHAR U+8755
ENCODING 34645
SWIDTH 1000 0
DWIDTH 16 0
BBX 16 16 0 -2
BITMAP
1020
0820
1420
1320
2AFC
7EA4
A2A4
3EA4
22FC
3EA4
2020
2828
2424
2E3E
75E4
2000
ENDCHAR
STARTCHAR U+8757
ENCODING 34647
SWIDTH 1000 0
DWIDTH 16 0
BBX 16 16 0 -2
BITMAP
2040
2080
21FC
F904
A9FC
A904
A9FC
A800
FBFC
A020
3020
29FC
3C20
E820
03FE
0000
ENDCHAR
STARTCHAR U+8759
ENCODING 34649
SWIDTH 1000 0
DWIDTH 16 0
BBX 16 16 0 -2
BITMAP
2040
2020
23FC
FA04
AA04
ABFC
AA00
ABFC
FB54
A354
2BFC
3F54
ED54
0544
0914
1108
ENDCHAR
STARTCHAR U+875F
ENCODING 34655
SWIDTH 1000 0
DWIDTH 16 0
BBX 16 16 0 -2
BITMAP
1000
11FC
1124
7DFC
5524
55FC
5400
55FC
7D04
51FC
1904
15FC
1F04
E514
0108
0000
ENDCHAR
STARTCHAR U+8760
ENCODING 34656
SWIDTH 1000 0
DWIDTH 16 0
BBX 16 16 0 -2
BITMAP
1000
13FE
1000
7CF8
5488
5488
54F8
5400
7DFC
1124
19FC
1524
1F24
E5FC
0104
0000
ENDCHAR
STARTCHAR U+8763
ENCODING 34659
SWIDTH 1000 0
DWIDTH 16 0
BBX 16 16 0 -2
BITMAP
2420
2220
2220
27BE
FA40
AA3E
AB84
AA88
FA88
A2FE
3288
2A88
3C88
C488
0AA8
1110
ENDCHAR
STARTCHAR U+8766
ENCODING 34662
SWIDTH 1000 0
DWIDTH 16 0
BBX 16 16 0 -2
BITMAP
2000
23DC
2244
FA44
ABC4
AA5C
AA00
ABFC
FA24
A224
33D8
2A18
3E18
CA24
0246
0284
ENDCHAR
STARTCHAR U+8768
ENCODING 34664
SWIDTH 1000 0
DWIDTH 16 0
BBX 16 16 0 -2
BITMAP
3FE0
0420
0420
7FA0
0424
0414
140C
1020
7EFC
52A4
7EFC
1028
1424
1E3E
E2E4
0000
ENDCHAR
STARTCHAR U+876A
ENCODING 34666
SWIDTH 1000 0
DWIDTH 16 0
BBX 16 16 0 -2
BITMAP
1000
11F8
1108
11F8
7D08
55F8
5400
57FE
5480
7DFC
1154
1A94
1D24
F644
0494
0308
ENDCHAR
STARTCHAR U+876E
ENCODING 34670
SWIDTH 1000 0
DWIDTH 16 0
BBX 16 16 0 -2
BITMAP
1100
11FE
1200
7DFC
5504
55FC
5504
55FC
7C80
50FC
1884
1548
3E30
C448
0186
0604
ENDCHAR
STARTCHAR U+8774
ENCODING 34676
SWIDTH 1000 0
DWIDTH 16 0
BBX 16 16 0 -2
BITMAP
2100
211E
2112
27D2
F91E
A912
A912
AB92
AA9E
FA92
2292
33A2
2822
3C42
C88A
0104
ENDCHAR
STARTCHAR U+8776
ENCODING 34678
SWIDTH 1000 0
DWIDTH 16 0
BBX 16 16 0 -2
BITMAP
1048
1148
13FE
7D48
5548
5578
5500
55FC
7C20
13FE
1470
1EA8
E4A4
0126
0224
0420
ENDCHAR
STARTCHAR U+8778
ENCODING 34680
SWIDTH 1000 0
DWIDTH 16 0
BBX 16 16 0 -2
BITMAP
2000
21F8
2108
21E8
F928
A928
A928
ABFC
FA04
A2F4
3294
2AF4
3E94
EA04
0214
0208
ENDCHAR
STARTCHAR U+877F
ENCODING 34687
SWIDTH 1000 0
DWIDTH 16 0
BBX 16 16 0 -2
BITMAP
1000
11FC
1124
11FC
7D24
55FC
5420
55FC
5524
7DFC
5124
19FC
1420
1E22
E422
001E
ENDCHAR
STARTCHAR U+8782
ENCODING 34690
SWIDTH 1000 0
DWIDTH 16 0
BBX 16 16 0 -2
BITMAP
2200
211E
23D2
FA52
AA54
ABD4
AA58
AA54
FBD4
2212
3292
2A5A
3EF4
CB50
0210
0010
ENDCHAR
STARTCHAR U+878D
ENCODING 34701
SWIDTH 1000 0
DWIDTH 16 0
BBX 16 16 0 -2
BITMAP
0010
FE10
0010
7C10
44FE
7C92
0092
FE92
AAFE
9292
FE10
9214
9212
921E
96E2
0000
ENDCHAR
STARTCHAR U+879F
ENCODING 34719
SWIDTH 1000 0
DWIDTH 16 0
BBX 16 16 0 -2
BITMAP
2000
23FE
2204
FDF8
A908
A9F8
A908
A9F8
F840
A020
33FE
2890
3C88
C90C
0206
0404
ENDCHAR
STARTCHAR U+87A2
ENCODING 34722
SWIDTH 1000 0
DWIDTH 16 0
BBX 16 16 0 -2
BITMAP
0820
2AA4
2CA8
0820
1450
2288
7FFC
4104
0100
1FF0
1110
1FF0
1110
0108
01FC
3E08
ENDCHAR
STARTCHAR U+87AB
ENCODING 34731
SWIDTH 1000 0
DWIDTH 16 0
BBX 16 16 0 -2
BITMAP
0840
3E40
087E
FF48
14C8
5630
A530
24CE
4904
1FF8
1108
1FF8
1110
01FC
7E08
0000
ENDCHAR
STARTCHAR U+87AF
ENCODING 34735
SWIDTH 1000 0
DWIDTH 16 0
BBX 16 16 0 -2
BITMAP
0840
7E48
087C
7E88
0948
7E48
1E30
1248
2A84
C502
1FF0
1110
1FF0
1110
01F8
3E08
ENDCHAR
STARTCHAR U+87B3
ENCODING 34739
SWIDTH 1000 0
DWIDTH 16 0
BBX 16 16 0 -2
BITMAP
2020
2124
20A8
F820
ABFE
AA04
ADF8
A908
F9F8
2148
3040
2BFC
3C40
C840
07FE
0000
ENDCHAR
STARTCHAR U+87BA
ENCODING 34746
SWIDTH 1000 0
DWIDTH 16 0
BBX 16 16 0 -2
BITMAP
1000
11FC
1124
7DFC
5524
55FC
5448
7CF0
5428
1044
19FE
1624
1CA8
E524
02A2
0040
ENDCHAR
STARTCHAR U+87BB
ENCODING 34747
SWIDTH 1000 0
DWIDTH 16 0
BBX 16 16 0 -2
BITMAP
2040
23F8
2248
FFFE
AA48
ABF8
A840
ABF8
FA48
23F8
3080
2BFC
3D10
C8E0
0110
060C
ENDCHAR
STARTCHAR U+87BD
ENCODING 34749
SWIDTH 1000 0
DWIDTH 16 0
BBX 16 16 0 -2
BITMAP
0400
07F0
0C20
7240
0180
0E70
F10E
08D0
0810
7EFC
4A94
7EFC
0810
0A14
0F1E
72E4
ENDCHAR
STARTCHAR U+87C0
ENCODING 34752
SWIDTH 1000 0
DWIDTH 16 0
BBX 16 16 0 -2
BITMAP
1080
1040
17FC
1042
7E94
55E8
5544
5692
7DF8
5448
1040
1BFC
1440
FE40
0440
0040
ENDCHAR
STARTCHAR U+87C4
ENCODING 34756
SWIDTH 1000 0
DWIDTH 16 0
BBX 16 16 0 -2
BITMAP
1020
FE28
10FC
7C28
2528
FEC8
106A
FEAA
1106
1FF0
1110
1FF0
1110
01F8
3E0C
0008
ENDCHAR
STARTCHAR U+87C6
ENCODING 34758
SWIDTH 1000 0
DWIDTH 16 0
BBX 16 16 0 -2
BITMAP
1090
1090
13FE
7C90
55F8
5508
55F8
5508
7DF8
1040
1BFE
1440
1EA0
E510
020E
0404
ENDCHAR
STARTCHAR U+87C7
ENCODING 34759
SWIDTH 1000 0
DWIDTH 16 0
BBX 16 16 0 -2
BITMAP
0440
7FFE
0440
1FF0
1210
1110
1FF0
0400
FFFE
0910
3FEE
C924
0FE0
0120
01F8
3F10
ENDCHAR
STARTCHAR U+87CB
ENCODING 34763
SWIDTH 1000 0
DWIDTH 16 0
BBX 16 16 0 -2
BITMAP
101C
11E0
1020
1124
7CA8
57FE
5470
54A8
7F26
5440
1020
14A4
1E8A
E28A
02F8
0000
ENDCHAR
STARTCHAR U+87D0
ENCODING 34768
SWIDTH 1000 0
DWIDTH 16 0
BBX 16 16 0 -2
BITMAP
1020
1124
10A8
11FE
7D02
56F8
5488
54F8
7C20
11FC
1124
1524
1F24
E52C
0020
0020
ENDCHAR
STARTCHAR U+87D2
ENCODING 34770
SWIDTH 1000 0
DWIDTH 16 0
BBX 16 16 0 -2
BITMAP
2090
2090
27FE
F890
A840
ABFE
A890
A908
FA96
2490
23FC
2890
3C90
E910
0110
0210
ENDCHAR
STARTCHAR U+87E0
ENCODING 34784
SWIDTH 1000 0
DWIDTH 16 0
BBX 16 16 0 -2
BITMAP
101C
13E0
1124
7CA8
55FE
5470
54A8
5524
7FFE
1124
1924
15FC
1F24
E524
01FC
0104
ENDCHAR
STARTCHAR U+87EF
ENCODING 34799
SWIDTH 1000 0
DWIDTH 16 0
BBX 16 16 0 -2
BITMAP
1040
1040
11F8
7C40
57FC
5508
579C
7D08
57BE
1000
1BFC
1490
1E90
E512
010E
0200
ENDCHAR
STARTCHAR U+87F2
ENCODING 34802
SWIDTH 1000 0
DWIDTH 16 0
BBX 16 16 0 -2
BITMAP
0100
1FF0
1110
1FF0
1108
01FC
7E08
1010
7C7C
5454
5454
7C7C
1214
1F1E
E2E4
0000
ENDCHAR
STARTCHAR U+87F6
ENCODING 34806
SWIDTH 1000 0
DWIDTH 16 0
BBX 16 16 0 -2
BITMAP
2000
27E0
225E
23D2
FA52
ABD2
AA5E
AFF2
F840
23FE
2020
29FC
3C20
E820
07FE
0000
ENDCHAR
STARTCHAR U+87F7
ENCODING 34807
SWIDTH 1000 0
DWIDTH 16 0
BBX 16 16 0 -2
BITMAP
2020
2224
2128
FBFE
AA02
A9FC
A904
F9FC
A800
23FE
3222
2BFE
3E22
EA22
03FE
0202
ENDCHAR
STARTCHAR U+87F9
ENCODING 34809
SWIDTH 1000 0
DWIDTH 16 0
BBX 16 16 0 -2
BITMAP
2000
3EFC
4444
BE8C
2B50
3E7C
2A90
3E7E
4B10
9FF0
1110
1FF0
1108
01FC
7E08
0000
ENDCHAR
STARTCHAR U+87FB
ENCODING 34811
SWIDTH 1000 0
DWIDTH 16 0
BBX 16 16 0 -2
BITMAP
1108
1090
13FC
1020
7DFC
5420
57FE
5440
5794
7C92
13FE
18D2
158C
1E9A
E4AA
0184
ENDCHAR
STARTCHAR U+87FE
ENCODING 34814
SWIDTH 1000 0
DWIDTH 16 0
BBX 16 16 0 -2
BITMAP
2080
20F8
2110
FBFE
AE48
AAA4
ABFE
AA00
FAFC
A200
32FC
2A00
3EFC
CA84
04FC
0400
ENDCHAR
STARTCHAR U+8805
ENCODING 34821
SWIDTH 1000 0
DWIDTH 16 0
BBX 16 16 0 -2
BITMAP
2000
23FC
22A4
FBBC
A8A0
ABBC
AAA4
AAA4
FBBC
22A4
32A4
2BBC
3CA2
C8A2
007E
0000
ENDCHAR
STARTCHAR U+880D
ENCODING 34829
SWIDTH 1000 0
DWIDTH 16 0
BBX 16 16 0 -2
BITMAP
2010
23D8
2250
FBFE
AA62
ABC8
AA08
ABE8
FEA8
AAA8
2368
2BA8
3C28
E8D4
0022
0042
ENDCHAR
STARTCHAR U+880E
ENCODING 34830
SWIDTH 1000 0
DWIDTH 16 0
BBX 16 16 0 -2
BITMAP
1090
13FE
1090
1040
7FFE
5490
54A8
5576
7EA4
10A8
1BFE
1488
1E88
E508
0108
0208
ENDCHAR
STARTCHAR U+880F
ENCODING 34831
SWIDTH 1000 0
DWIDTH 16 0
BBX 16 16 0 -2
BITMAP
2200
223C
23D4
FC94
A924
AFCC
AD48
AFE8
FD7E
A568
27C8
357E
3D48
D448
0948
1088
ENDCHAR
STARTCHAR U+8811
ENCODING 34833
SWIDTH 1000 0
DWIDTH 16 0
BBX 16 16 0 -2
BITMAP
2110
2554
25B4
F910
AAA8
AC44
ABFE
AA44
F840
23FC
28E0
3D50
E948
0246
0444
0040
ENDCHAR
STARTCHAR U+8815
ENCODING 34837
SWIDTH 1000 0
DWIDTH 16 0
BBX 16 16 0 -2
BITMAP
2000
23FE
2040
FBFE
AA44
AD50
A888
FFFE
A040
A3FC
32A4
2AA4
3EA4
CAA4
02AC
0000
ENDCHAR
STARTCHAR U+8816
ENCODING 34838
SWIDTH 1000 0
DWIDTH 16 0
BBX 16 16 0 -2
BITMAP
2090
27FE
20D0
F920
ADFC
AB20
ADF8
A920
F9FC
A120
31FC
2888
3C50
E820
00D8
0306
ENDCHAR
STARTCHAR U+8821
ENCODING 34849
SWIDTH 1000 0
DWIDTH 16 0
BBX 16 16 0 -2
BITMAP
0800
0FE0
1020
7FFE
0210
0D38
71C0
06E0
389C
C9A0
3EFC
2AA4
3EFC
2A24
0F3E
72E4
ENDCHAR
STARTCHAR U+8822
ENCODING 34850
SWIDTH 1000 0
DWIDTH 16 0
BBX 16 16 0 -2
BITMAP
0100
7FFC
0100
3FF8
0200
7FFE
0C28
37E6
C424
17F0
7C7C
5454
7C7C
1414
1E1E
62E2
ENDCHAR
STARTCHAR U+8823
ENCODING 34851
SWIDTH 1000 0
DWIDTH 16 0
BBX 16 16 0 -2
BITMAP
23FE
2248
23FC
FA48
AAF8
AAA8
AAF8
FAA8
AAF8
2220
33FC
2B54
3FFC
CB14
0504
090C
ENDCHAR
STARTCHAR U+8827
ENCODING 34855
SWIDTH 1000 0
DWIDTH 16 0
BBX 16 16 0 -2
BITMAP
0100
7FFE
0100
1FF0
0000
7FFE
4404
0FF0
1810
0FF0
0810
7EFC
4A94
7EFC
0812
7FFE
ENDCHAR
STARTCHAR U+8831
ENCODING 34865
SWIDTH 1000 0
DWIDTH 16 0
BBX 16 16 0 -2
BITMAP
0100
1FF0
1110
1FF0
0108
3FFC
1024
7EFC
52A4
7EFC
1224
FFFE
0204
1FF8
1248
7FFE
ENDCHAR
STARTCHAR U+8836
ENCODING 34870
SWIDTH 1000 0
DWIDTH 16 0
BBX 16 16 0 -2
BITMAP
7E7C
4890
7EFC
1832
2ECE
5FF8
1008
1FF8
1008
1FF8
0810
7EFE
4A92
7EFE
0912
FF7E
ENDCHAR
STARTCHAR U+8839
ENCODING 34873
SWIDTH 1000 0
DWIDTH 16 0
BBX 16 16 0 -2
BITMAP
0100
3FF8
0100
7FFE
4002
BFF8
1000
2FF0
4810
0FF0
0810
7EFC
4A94
7EFC
0A12
FFFE
ENDCHAR
STARTCHAR U+883B
ENCODING 34875
SWIDTH 1000 0
DWIDTH 16 0
BBX 16 16 0 -2
BITMAP
1108
27E8
7812
13DC
2808
7BDE
0A40
53D4
50A4
8080
1FFC
1084
1FFC
0084
00FE
3F04
ENDCHAR
STARTCHAR U+8840
ENCODING 34880
SWIDTH 1000 0
DWIDTH 16 0
BBX 16 16 0 -2
BITMAP
0200
0300
0200
0400
3FF8
2488
2488
2488
2488
2488
2488
2488
2488
FFFE
0000
0000
ENDCHAR
STARTCHAR U+8842
ENCODING 34882
SWIDTH 1000 0
DWIDTH 16 0
BBX 16 16 0 -2
BITMAP
1000
19FE
2022
7F22
5522
5562
5562
55A2
5522
5522
57C2
5C42
E082
008A
0104
0200
ENDCHAR
STARTCHAR U+8844
ENCODING 34884
SWIDTH 1000 0
DWIDTH 16 0
BBX 16 16 0 -2
BITMAP
0000
0800
10FC
7F24
5524
5524
5524
55FC
5544
5544
5544
5544
57C4
F844
01FE
0000
ENDCHAR
STARTCHAR U+8846
ENCODING 34886
SWIDTH 1000 0
DWIDTH 16 0
BBX 16 16 0 -2
BITMAP
0100
0200
1FF8
1248
1248
FFFE
0070
3F80
0918
19A0
2540
4920
1110
210E
C104
0100
ENDCHAR
STARTCHAR U+884C
ENCODING 34892
SWIDTH 1000 0
DWIDTH 16 0
BBX 16 16 0 -2
BITMAP
0800
1C00
31FC
4000
8800
0C00
1BFE
3020
5020
9020
1020
1020
1020
1020
10A0
1040
ENDCHAR
STARTCHAR U+884D
ENCODING 34893
SWIDTH 1000 0
DWIDTH 16 0
BBX 16 16 0 -2
BITMAP
1400
1B7C
2200
4000
9100
197E
2108
6108
A208
2E08
2208
2208
2208
2208
2228
2210
ENDCHAR
STARTCHAR U+8852
ENCODING 34898
SWIDTH 1000 0
DWIDTH 16 0
BBX 16 16 0 -2
BITMAP
1000
1A00
211E
57C0
9A00
12BE
24C8
6F88
A108
2208
2488
2FC8
2488
2028
2010
0000
ENDCHAR
STARTCHAR U+8853
ENCODING 34899
SWIDTH 1000 0
DWIDTH 16 0
BBX 16 16 0 -2
BITMAP
1100
1900
215E
5120
9FC0
111E
3304
5384
9544
1524
1904
1104
1104
1114
1108
0000
ENDCHAR
STARTCHAR U+8857
ENCODING 34903
SWIDTH 1000 0
DWIDTH 16 0
BBX 16 16 0 -2
BITMAP
1100
191E
2100
47C0
9900
111E
2FE8
6008
A108
27C8
2108
2108
21C8
2728
2010
0000
ENDCHAR
STARTCHAR U+8859
ENCODING 34905
SWIDTH 1000 0
DWIDTH 16 0
BBX 16 16 0 -2
BITMAP
2000
37DE
4200
8200
27C0
325E
6244
AFE4
2004
27C4
2444
2444
2444
27C4
2454
2008
ENDCHAR
STARTCHAR U+885B
ENCODING 34907
SWIDTH 1000 0
DWIDTH 16 0
BBX 16 16 0 -2
BITMAP
2200
323E
4F80
8480
2FC0
203E
4F88
C888
4F88
4208
5FC8
4A08
4A08
5FC8
4228
4210
ENDCHAR
STARTCHAR U+885D
ENCODING 34909
SWIDTH 1000 0
DWIDTH 16 0
BBX 16 16 0 -2
BITMAP
1000
3FDE
2100
4FC0
9100
2FFE
6928
AFE8
2928
2FE8
2108
2FE8
2108
2108
2FE8
2010
ENDCHAR
STARTCHAR U+885E
ENCODING 34910
SWIDTH 1000 0
DWIDTH 16 0
BBX 16 16 0 -2
BITMAP
0200
2FBE
3280
4FC0
9000
1FBE
2888
6F88
A008
3FC8
2208
2F88
2A88
2A88
2228
2210
ENDCHAR
STARTCHAR U+8861
ENCODING 34913
SWIDTH 1000 0
DWIDTH 16 0
BBX 16 16 0 -2
BITMAP
2200
33DE
4440
5880
97C0
255E
67C4
A544
27C4
2104
2FE4
2104
2284
2454
2828
2000
ENDCHAR
STARTCHAR U+8862
ENCODING 34914
SWIDTH 1000 0
DWIDTH 16 0
BBX 16 16 0 -2
BITMAP
2EE0
3ABE
4EE0
8AA0
2EE0
3ABE
2EE4
6504
A484
2FE4
3484
27E4
2484
27E4
2494
27E8
ENDCHAR
STARTCHAR U+8863
ENCODING 34915
SWIDTH 1000 0
DWIDTH 16 0
BBX 16 16 0 -2
BITMAP
0200
0100
FFFE
0100
0100
0308
048C
0890
1860
2840
4820
8820
0810
0A0E
1C04
0800
ENDCHAR
STARTCHAR U+8868
ENCODING 34920
SWIDTH 1000 0
DWIDTH 16 0
BBX 16 16 0 -2
BITMAP
0100
0100
3FFC
0100
1FF8
0100
7FFE
0300
0688
0C8C
3850
C820
0910
0A0E
0C04
0800
ENDCHAR
STARTCHAR U+886B
ENCODING 34923
SWIDTH 1000 0
DWIDTH 16 0
BBX 16 16 0 -2
BITMAP
2008
100C
1010
FE20
0448
088C
1210
3420
5840
9484
1306
120C
1030
10C0
1700
1000
ENDCHAR
STARTCHAR U+8870
ENCODING 34928
SWIDTH 1000 0
DWIDTH 16 0
BBX 16 16 0 -2
BITMAP
0100
7FFE
0000
0FF0
0810
7FFE
0810
0FF0
0100
0288
0C50
3820
C818
0A0E
0C04
0800
ENDCHAR
STARTCHAR U+8872
ENCODING 34930
SWIDTH 1000 0
DWIDTH 16 0
BBX 16 16 0 -2
BITMAP
4040
3040
2040
FBFC
0A44
1244
2244
6A44
AAA4
329C
2B14
2204
2204
2204
2214
2208
ENDCHAR
STARTCHAR U+8875
ENCODING 34933
SWIDTH 1000 0
DWIDTH 16 0
BBX 16 16 0 -2
BITMAP
2000
1800
10FC
FE84
0484
0884
1284
34FC
5884
9484
1284
1084
1084
10FC
1084
1000
ENDCHAR
STARTCHAR U+8877
ENCODING 34935
SWIDTH 1000 0
DWIDTH 16 0
BBX 16 16 0 -2
BITMAP
0200
0100
7FFC
0100
3FF8
2108
2108
3FF8
0100
030C
0CB0
3840
C820
0A18
0C0E
0804
ENDCHAR
STARTCHAR U+887D
ENCODING 34941
SWIDTH 1000 0
DWIDTH 16 0
BBX 16 16 0 -2
BITMAP
2000
181C
11E0
FC20
0420
0820
1220
35FE
5820
9420
1420
1020
1020
13FE
1000
1000
ENDCHAR
STARTCHAR U+887E
ENCODING 34942
SWIDTH 1000 0
DWIDTH 16 0
BBX 16 16 0 -2
BITMAP
0100
0280
0640
0930
308E
DFF4
0210
0120
FFFE
0108
028C
0C50
3420
C518
0E0E
0404
ENDCHAR
STARTCHAR U+887F
ENCODING 34943
SWIDTH 1000 0
DWIDTH 16 0
BBX 16 16 0 -2
BITMAP
4040
3040
10A0
FC90
0908
1246
2424
6820
B3FC
2C08
2808
2010
2010
2020
2020
2040
ENDCHAR
STARTCHAR U+8881
ENCODING 34945
SWIDTH 1000 0
DWIDTH 16 0
BBX 16 16 0 -2
BITMAP
0100
0100
3FF8
0100
FFFE
0000
1FF0
1010
1FF0
0304
0488
0850
3820
CA18
0C0E
0804
ENDCHAR
STARTCHAR U+8882
ENCODING 34946
SWIDTH 1000 0
DWIDTH 16 0
BBX 16 16 0 -2
BITMAP
2040
1040
1040
FBF8
0848
1048
1448
3BFE
5840
94A0
10A0
1110
1110
1208
1206
1404
ENDCHAR
STARTCHAR U+8888
ENCODING 34952
SWIDTH 1000 0
DWIDTH 16 0
BBX 16 16 0 -2
BITMAP
0800
FF7C
0944
1144
1144
257C
4244
0100
FFFE
0300
0498
0860
3820
CA10
0C1C
0808
ENDCHAR
STARTCHAR U+888B
ENCODING 34955
SWIDTH 1000 0
DWIDTH 16 0
BBX 16 16 0 -2
BITMAP
0890
0C88
10BE
37C0
5040
9024
1214
1108
7FFE
0290
0498
0860
3820
CA18
0C0E
0804
ENDCHAR
STARTCHAR U+888D
ENCODING 34957
SWIDTH 1000 0
DWIDTH 16 0
BBX 16 16 0 -2
BITMAP
4080
3080
1080
FDFC
0604
0A04
11E4
3524
5924
99F4
1508
1100
1102
1102
10FE
1000
ENDCHAR
STARTCHAR U+8892
ENCODING 34962
SWIDTH 1000 0
DWIDTH 16 0
BBX 16 16 0 -2
BITMAP
2000
19FC
1104
FD04
0504
09FC
1304
3504
5904
95FC
1504
1000
1000
17FE
1000
1000
ENDCHAR
STARTCHAR U+8896
ENCODING 34966
SWIDTH 1000 0
DWIDTH 16 0
BBX 16 16 0 -2
BITMAP
2020
1820
1020
FC20
05FC
0924
1124
3524
59FC
9924
1524
1124
1124
11FC
1104
1000
ENDCHAR
STARTCHAR U+8897
ENCODING 34967
SWIDTH 1000 0
DWIDTH 16 0
BBX 16 16 0 -2
BITMAP
2040
1840
10A0
FD10
0A0E
0824
1450
3498
5B20
9844
158E
1218
1060
1180
1600
1000
ENDCHAR
STARTCHAR U+8899
ENCODING 34969
SWIDTH 1000 0
DWIDTH 16 0
BBX 16 16 0 -2
BITMAP
4040
2060
1080
FDFC
0504
0904
1304
3504
59FC
9504
1304
1104
1104
1104
11FC
1104
ENDCHAR
STARTCHAR U+889E
ENCODING 34974
SWIDTH 1000 0
DWIDTH 16 0
BBX 16 16 0 -2
BITMAP
0100
7FFE
0240
0430
180E
6FF4
0810
0810
0FF0
0308
0690
0C60
3430
C50E
0E04
0400
ENDCHAR
STARTCHAR U+88A2
ENCODING 34978
SWIDTH 1000 0
DWIDTH 16 0
BBX 16 16 0 -2
BITMAP
2020
1024
1226
FDA4
04A8
0820
13FE
3420
5820
9BFE
1420
1020
1020
1020
1020
1020
ENDCHAR
STARTCHAR U+88A4
ENCODING 34980
SWIDTH 1000 0
DWIDTH 16 0
BBX 16 16 0 -2
BITMAP
0100
7FFC
0000
1FF0
0020
7FFC
0288
0C90
3280
C100
0308
0C90
3860
CA10
0C0E
0804
ENDCHAR
STARTCHAR U+88AB
ENCODING 34987
SWIDTH 1000 0
DWIDTH 16 0
BBX 16 16 0 -2
BITMAP
2020
1020
1020
FFFE
0A24
0A20
12F8
3688
5A88
9650
1250
1220
1250
1248
1286
1504
ENDCHAR
STARTCHAR U+88AE
ENCODING 34990
SWIDTH 1000 0
DWIDTH 16 0
BBX 16 16 0 -2
BITMAP
2080
10C0
1080
FCFE
0504
0A20
1420
34A0
58A8
9524
1524
1222
1422
1020
10A0
1040
ENDCHAR
STARTCHAR U+88B0
ENCODING 34992
SWIDTH 1000 0
DWIDTH 16 0
BBX 16 16 0 -2
BITMAP
1FF8
1208
1108
FFFE
1108
1088
1FFE
0228
0110
7FFE
0488
0850
3820
CA10
0C0E
0804
ENDCHAR
STARTCHAR U+88B1
ENCODING 34993
SWIDTH 1000 0
DWIDTH 16 0
BBX 16 16 0 -2
BITMAP
4090
30D0
2094
FD14
0B7E
0D10
1110
3510
D510
1928
1528
1328
1144
1146
1184
1100
ENDCHAR
STARTCHAR U+88B4
ENCODING 34996
SWIDTH 1000 0
DWIDTH 16 0
BBX 16 16 0 -2
BITMAP
4040
3040
13FE
FCA0
0898
1106
16FC
3800
5BFE
9480
11F8
1088
1008
1008
1078
1010
ENDCHAR
STARTCHAR U+88B5
ENCODING 34997
SWIDTH 1000 0
DWIDTH 16 0
BBX 16 16 0 -2
BITMAP
2080
18C0
108E
FD70
0910
1310
1510
39FE
5510
9310
1110
1110
1110
117E
1100
1100
ENDCHAR
STARTCHAR U+88B7
ENCODING 34999
SWIDTH 1000 0
DWIDTH 16 0
BBX 16 16 0 -2
BITMAP
2040
1040
10A0
FC90
0508
0A06
11F8
3400
5800
99F8
1508
1108
1108
11F8
1108
1000
ENDCHAR
STARTCHAR U+88BF
ENCODING 35007
SWIDTH 1000 0
DWIDTH 16 0
BBX 16 16 0 -2
BITMAP
4000
3020
2020
FDFC
0420
0820
11FE
3400
5820
9420
11FC
1020
1020
1020
13FE
1000
ENDCHAR
STARTCHAR U+88C1
ENCODING 35009
SWIDTH 1000 0
DWIDTH 16 0
BBX 16 16 0 -2
BITMAP
0840
0850
3F48
0840
FFFC
1040
0848
7F4C
0828
1530
3230
D222
1152
188A
1104
0000
ENDCHAR
STARTCHAR U+88C2
ENCODING 35010
SWIDTH 1000 0
DWIDTH 16 0
BBX 16 16 0 -2
BITMAP
7FC4
0824
1FA4
20A4
D924
0624
1914
6088
7FFE
0288
048C
0C50
3420
C510
0E0E
0404
ENDCHAR
STARTCHAR U+88C3
ENCODING 35011
SWIDTH 1000 0
DWIDTH 16 0
BBX 16 16 0 -2
BITMAP
2040
1040
107C
FC40
0440
0BFE
1400
3800
5BFE
9440
1050
104C
1048
1040
1040
1040
ENDCHAR
STARTCHAR U+88C4
ENCODING 35012
SWIDTH 1000 0
DWIDTH 16 0
BBX 16 16 0 -2
BITMAP
2080
10BE
1100
FD00
0680
08FE
1588
3688
5888
9488
1488
1088
1088
1088
10A8
1090
ENDCHAR
STARTCHAR U+88C5
ENCODING 35013
SWIDTH 1000 0
DWIDTH 16 0
BBX 16 16 0 -2
BITMAP
0420
4420
37FE
2420
0C20
35FC
4500
0480
7FFE
0300
0488
0850
3820
CA10
0C0E
0804
ENDCHAR
STARTCHAR U+88CF
ENCODING 35023
SWIDTH 1000 0
DWIDTH 16 0
BBX 16 16 0 -2
BITMAP
0100
FFFE
1110
1FF0
1110
1FF0
0100
3FF8
0100
7FFE
0488
0890
3860
CA20
0C18
0806
ENDCHAR
STARTCHAR U+88D4
ENCODING 35028
SWIDTH 1000 0
DWIDTH 16 0
BBX 16 16 0 -2
BITMAP
0100
7FFE
0108
0290
0C60
751C
0608
3FFC
2244
2434
2FF4
3424
27E4
2424
2014
2008
ENDCHAR
STARTCHAR U+88D5
ENCODING 35029
SWIDTH 1000 0
DWIDTH 16 0
BBX 16 16 0 -2
BITMAP
2110
1188
010C
FA44
0C40
08A0
1090
3508
5A06
99F8
1508
1108
1108
11F8
1108
1000
ENDCHAR
STARTCHAR U+88D8
ENCODING 35032
SWIDTH 1000 0
DWIDTH 16 0
BBX 16 16 0 -2
BITMAP
0120
0110
7FFC
1120
09C0
1130
250C
0200
FFFE
0300
0488
1850
E830
0A18
0C0E
0804
ENDCHAR
STARTCHAR U+88D9
ENCODING 35033
SWIDTH 1000 0
DWIDTH 16 0
BBX 16 16 0 -2
BITMAP
2000
13F8
1088
F888
0FFE
1088
17F8
2888
7100
A9FC
2284
2484
2884
20FC
2084
2000
ENDCHAR
STARTCHAR U+88DC
ENCODING 35036
SWIDTH 1000 0
DWIDTH 16 0
BBX 16 16 0 -2
BITMAP
4020
3028
1024
FDFE
0820
11FC
1524
39FC
5124
9924
15FC
1124
1124
1124
1134
1128
ENDCHAR
STARTCHAR U+88DD
ENCODING 35037
SWIDTH 1000 0
DWIDTH 16 0
BBX 16 16 0 -2
BITMAP
0420
2420
3DFE
0420
3C20
25FC
2600
4100
FFFE
0308
0698
0C60
3420
C518
060E
0404
ENDCHAR
STARTCHAR U+88DF
ENCODING 35039
SWIDTH 1000 0
DWIDTH 16 0
BBX 16 16 0 -2
BITMAP
2040
9148
6946
4242
124C
6030
21C0
2E00
0100
FFFE
0510
0CB8
3440
C530
0E0E
0404
ENDCHAR
STARTCHAR U+88E1
ENCODING 35041
SWIDTH 1000 0
DWIDTH 16 0
BBX 16 16 0 -2
BITMAP
4000
31FC
1124
FD24
09FC
0924
1524
35FC
5924
9420
13FC
1020
1020
1020
17FE
1000
ENDCHAR
STARTCHAR U+88E8
ENCODING 35048
SWIDTH 1000 0
DWIDTH 16 0
BBX 16 16 0 -2
BITMAP
2020
1040
01FC
FD24
09FC
0924
1324
35FC
5840
94A0
13FE
1020
1020
1020
1020
1020
ENDCHAR
STARTCHAR U+88F2
ENCODING 35058
SWIDTH 1000 0
DWIDTH 16 0
BBX 16 16 0 -2
BITMAP
4000
37FE
1020
F820
0BFE
0A22
1332
36AA
5AAA
96AA
1376
1222
1222
1222
122A
1224
ENDCHAR
STARTCHAR U+88F3
ENCODING 35059
SWIDTH 1000 0
DWIDTH 16 0
BBX 16 16 0 -2
BITMAP
1110
0918
0520
7FFE
4004
8FE0
0820
0FE0
0100
FFFE
0688
0C50
3430
C50E
0E04
0400
ENDCHAR
STARTCHAR U+88F4
ENCODING 35060
SWIDTH 1000 0
DWIDTH 16 0
BBX 16 16 0 -2
BITMAP
0440
7C7C
0440
3C7C
0440
7C7E
0640
0100
7FFE
0300
0488
0850
3820
CA10
0C0E
0804
ENDCHAR
STARTCHAR U+88F8
ENCODING 35064
SWIDTH 1000 0
DWIDTH 16 0
BBX 16 16 0 -2
BITMAP
2000
11FC
1124
FDFC
0924
1124
35FC
5820
9BFE
1470
10B0
10A8
1124
1222
1420
1020
ENDCHAR
STARTCHAR U+88F9
ENCODING 35065
SWIDTH 1000 0
DWIDTH 16 0
BBX 16 16 0 -2
BITMAP
0100
7FFE
1110
1FF0
1110
1FF0
0100
7FFE
07C0
1930
628E
0450
1820
6A18
0C06
0800
ENDCHAR
STARTCHAR U+88FC
ENCODING 35068
SWIDTH 1000 0
DWIDTH 16 0
BBX 16 16 0 -2
BITMAP
4000
31FC
2104
FDFC
0504
0904
15FC
3900
59FE
9692
1492
1112
1622
10C2
1314
1008
ENDCHAR
STARTCHAR U+88FD
ENCODING 35069
SWIDTH 1000 0
DWIDTH 16 0
BBX 16 16 0 -2
BITMAP
2404
3F84
4424
FFA4
0424
3FA4
2484
2494
0108
FFFE
0288
0450
1820
2A18
CC0E
0804
ENDCHAR
STARTCHAR U+88FE
ENCODING 35070
SWIDTH 1000 0
DWIDTH 16 0
BBX 16 16 0 -2
BITMAP
4000
31FC
1104
FD04
05FC
0920
1320
35FC
5920
9520
12FC
1284
1284
1284
14FC
1484
ENDCHAR
STARTCHAR U+8902
ENCODING 35074
SWIDTH 1000 0
DWIDTH 16 0
BBX 16 16 0 -2
BITMAP
4108
2108
2108
FBE8
0908
1108
2FE8
690C
B10A
2BEA
2908
2108
21E8
2F08
2008
2008
ENDCHAR
STARTCHAR U+8904
ENCODING 35076
SWIDTH 1000 0
DWIDTH 16 0
BBX 16 16 0 -2
BITMAP
2040
13FE
1040
FDF8
0848
0BFE
1448
39F8
5880
97FE
1088
1190
1060
1090
110C
1208
ENDCHAR
STARTCHAR U+8907
ENCODING 35079
SWIDTH 1000 0
DWIDTH 16 0
BBX 16 16 0 -2
BITMAP
2100
1100
11FE
FA00
09F8
1108
11F8
3508
59F8
9480
10FC
1108
1290
1060
1198
1606
ENDCHAR
STARTCHAR U+890A
ENCODING 35082
SWIDTH 1000 0
DWIDTH 16 0
BBX 16 16 0 -2
BITMAP
2080
1860
1020
FFFC
0A04
0BFC
1200
37FC
5B54
9754
13FC
1554
1954
1154
110C
1000
ENDCHAR
STARTCHAR U+890C
ENCODING 35084
SWIDTH 1000 0
DWIDTH 16 0
BBX 16 16 0 -2
BITMAP
2000
1BDE
1252
FFDE
0400
09FC
1524
39FC
5524
91FC
1020
13FE
1020
1020
1020
1020
ENDCHAR
STARTCHAR U+8910
ENCODING 35088
SWIDTH 1000 0
DWIDTH 16 0
BBX 16 16 0 -2
BITMAP
2000
19FC
1104
FDFC
0504
09FC
1500
39FE
5622
9622
1A52
128A
13FA
1202
100A
1004
ENDCHAR
STARTCHAR U+8912
ENCODING 35090
SWIDTH 1000 0
DWIDTH 16 0
BBX 16 16 0 -2
BITMAP
0100
7FFE
1000
1BF0
3210
63F0
A040
2FFE
20E0
2350
2D4C
0310
0CA0
7860
0C1C
0808
ENDCHAR
STARTCHAR U+8913
ENCODING 35091
SWIDTH 1000 0
DWIDTH 16 0
BBX 16 16 0 -2
BITMAP
4100
31FC
1144
FA44
0A44
167C
1254
2A10
72FE
AA30
2A58
2254
2296
2314
2210
2210
ENDCHAR
STARTCHAR U+891D
ENCODING 35101
SWIDTH 1000 0
DWIDTH 16 0
BBX 16 16 0 -2
BITMAP
4244
3164
1128
FDFC
0924
0924
13FC
3524
5924
95FC
1220
17FE
1020
1020
1020
1020
ENDCHAR
STARTCHAR U+891E
ENCODING 35102
SWIDTH 1000 0
DWIDTH 16 0
BBX 16 16 0 -2
BITMAP
2000
11F8
1108
FDF8
0508
0908
0BF8
1400
3BFC
5694
9294
1294
1294
1294
17FE
1000
ENDCHAR
STARTCHAR U+8925
ENCODING 35109
SWIDTH 1000 0
DWIDTH 16 0
BBX 16 16 0 -2
BITMAP
2000
13FC
1200
FBF8
0A00
13F8
12CC
36B0
5ACE
9688
13FE
1408
1488
1888
1028
1010
ENDCHAR
STARTCHAR U+892A
ENCODING 35114
SWIDTH 1000 0
DWIDTH 16 0
BBX 16 16 0 -2
BITMAP
4000
3478
2248
FB78
0A48
1048
2878
7652
B254
2A48
2254
2262
2240
2580
287E
2000
ENDCHAR
STARTCHAR U+892B
ENCODING 35115
SWIDTH 1000 0
DWIDTH 16 0
BBX 16 16 0 -2
BITMAP
401E
27E0
243C
FC20
15FE
1520
25F8
6D22
B51E
2D00
2578
2548
254A
2A4A
2A86
2900
ENDCHAR
STARTCHAR U+8936
ENCODING 35126
SWIDTH 1000 0
DWIDTH 16 0
BBX 16 16 0 -2
BITMAP
2000
17DC
1264
F954
094C
0A54
1444
3820
55FC
9504
1104
11FC
1104
1104
11FC
1104
ENDCHAR
STARTCHAR U+8938
ENCODING 35128
SWIDTH 1000 0
DWIDTH 16 0
BBX 16 16 0 -2
BITMAP
4040
33F8
1248
FFFE
0A48
13F8
2040
6BF8
B248
2BF8
2080
27FE
2108
2190
2060
279E
ENDCHAR
STARTCHAR U+893B
ENCODING 35131
SWIDTH 1000 0
DWIDTH 16 0
BBX 16 16 0 -2
BITMAP
0100
FFFE
1040
7C40
10F8
FE48
2848
7C48
104A
FE86
1100
7FFE
0488
1850
EA30
0C0E
ENDCHAR
STARTCHAR U+8941
ENCODING 35137
SWIDTH 1000 0
DWIDTH 16 0
BBX 16 16 0 -2
BITMAP
4000
277C
0144
F944
0F7C
1410
247C
6C54
B754
2D54
217C
2110
2114
251E
22E4
2000
ENDCHAR
STARTCHAR U+8943
ENCODING 35139
SWIDTH 1000 0
DWIDTH 16 0
BBX 16 16 0 -2
BITMAP
0100
FFFE
0400
38F8
2088
3CF8
2020
21FC
3C70
01A8
06A4
1848
6850
8A20
0C1C
0808
ENDCHAR
STARTCHAR U+8944
ENCODING 35140
SWIDTH 1000 0
DWIDTH 16 0
BBX 16 16 0 -2
BITMAP
0100
7FFE
1248
1E78
0440
3FFC
0440
3FF8
0440
FFFE
0488
0C50
3420
C518
060E
0404
ENDCHAR
STARTCHAR U+894C
ENCODING 35148
SWIDTH 1000 0
DWIDTH 16 0
BBX 16 16 0 -2
BITMAP
4000
33DE
2252
FBDE
0800
11FC
1524
29FC
7124
A9FC
2420
23FE
2020
2020
2020
2020
ENDCHAR
STARTCHAR U+894D
ENCODING 35149
SWIDTH 1000 0
DWIDTH 16 0
BBX 16 16 0 -2
BITMAP
2120
1920
11FC
FB20
0DFC
1120
15FC
3920
59FE
9420
13FE
1070
10A8
112E
1224
1020
ENDCHAR
STARTCHAR U+8956
ENCODING 35158
SWIDTH 1000 0
DWIDTH 16 0
BBX 16 16 0 -2
BITMAP
4040
3080
13FC
FB2C
0AB4
13FC
1274
2AAC
7324
AA44
2FFE
2040
20A0
2118
220E
2404
ENDCHAR
STARTCHAR U+895E
ENCODING 35166
SWIDTH 1000 0
DWIDTH 16 0
BBX 16 16 0 -2
BITMAP
0020
3EFC
2288
3E50
21FE
7E20
62FC
BF20
00A0
7FFE
0288
045C
1820
EA18
0C0E
0804
ENDCHAR
STARTCHAR U+895F
ENCODING 35167
SWIDTH 1000 0
DWIDTH 16 0
BBX 16 16 0 -2
BITMAP
4110
3110
27BC
F918
0BB6
1554
2110
6800
B3FC
2800
27FE
2020
2128
2226
24A4
2040
ENDCHAR
STARTCHAR U+8960
ENCODING 35168
SWIDTH 1000 0
DWIDTH 16 0
BBX 16 16 0 -2
BITMAP
4222
31A4
1128
FBFE
0A02
15FC
2104
69FC
B000
2BFE
2A22
23FE
2222
2222
23FE
2000
ENDCHAR
STARTCHAR U+8964
ENCODING 35172
SWIDTH 1000 0
DWIDTH 16 0
BBX 16 16 0 -2
BITMAP
43D0
3290
1290
FBDE
0A50
13D4
12A4
3684
5BC0
9400
13F8
12A8
12A8
12A8
1FFE
1000
ENDCHAR
STARTCHAR U+8966
ENCODING 35174
SWIDTH 1000 0
DWIDTH 16 0
BBX 16 16 0 -2
BITMAP
4000
37FE
2040
FBFE
0A42
155C
2040
6800
B7FE
2840
27FC
2294
2294
2294
2294
220C
ENDCHAR
STARTCHAR U+896A
ENCODING 35178
SWIDTH 1000 0
DWIDTH 16 0
BBX 16 16 0 -2
BITMAP
4090
3090
27FE
F890
0BFC
1294
17FC
3828
57FE
9220
1324
12A8
1212
122A
1244
1400
ENDCHAR
STARTCHAR U+896D
ENCODING 35181
SWIDTH 1000 0
DWIDTH 16 0
BBX 16 16 0 -2
BITMAP
4100
213E
3108
27D0
F93E
0922
17FE
2022
6FBE
B4A2
2CBE
2780
24A4
2424
2042
2082
ENDCHAR
STARTCHAR U+896F
ENCODING 35183
SWIDTH 1000 0
DWIDTH 16 0
BBX 16 16 0 -2
BITMAP
4400
337C
2244
FFFC
0CC4
1344
27FC
6A44
B7C4
2A7C
2728
2AA8
32AA
224A
2A4E
2480
ENDCHAR
STARTCHAR U+8972
ENCODING 35186
SWIDTH 1000 0
DWIDTH 16 0
BBX 16 16 0 -2
BITMAP
1040
7E7C
2440
7E7C
0004
7C7C
4440
7C7C
4442
4D7E
0100
7FFE
0488
1850
6A30
0C0C
ENDCHAR
STARTCHAR U+8974
ENCODING 35188
SWIDTH 1000 0
DWIDTH 16 0
BBX 16 16 0 -2
BITMAP
479E
2492
279E
FC92
179E
1442
27FA
6C42
B7FA
2D4A
27FA
24E2
24D2
255A
2652
2446
ENDCHAR
STARTCHAR U+8977
ENCODING 35191
SWIDTH 1000 0
DWIDTH 16 0
BBX 16 16 0 -2
BITMAP
2040
137C
1244
FB7C
0A14
0B5C
1254
37FE
5908
92F6
1444
13FC
1040
13FC
1040
10C0
ENDCHAR
STARTCHAR U+897E
ENCODING 35198
SWIDTH 1000 0
DWIDTH 16 0
BBX 16 16 0 -2
BITMAP
0000
FFFE
0440
0440
0440
7FFC
4444
4444
4444
4444
47C4
4444
4004
4004
0000
0000
ENDCHAR
STARTCHAR U+897F
ENCODING 35199
SWIDTH 1000 0
DWIDTH 16 0
BBX 16 16 0 -2
BITMAP
0000
FFFE
0440
0440
7FFC
4444
4444
4444
4444
483C
5004
6004
4004
7FFC
4004
0000
ENDCHAR
STARTCHAR U+8981
ENCODING 35201
SWIDTH 1000 0
DWIDTH 16 0
BBX 16 16 0 -2
BITMAP
0000
FFFE
0440
3FF8
2448
2448
3FF8
2408
0400
FFFE
0810
0E20
01C0
0630
180C
6008
ENDCHAR
STARTCHAR U+8983
ENCODING 35203
SWIDTH 1000 0
DWIDTH 16 0
BBX 16 16 0 -2
BITMAP
7FFE
0440
3FF8
2448
3FF8
0000
1FF0
1010
1FF0
1010
1FF0
0100
FFFE
0100
0100
0100
ENDCHAR
STARTCHAR U+8986
ENCODING 35206
SWIDTH 1000 0
DWIDTH 16 0
BBX 16 16 0 -2
BITMAP
FFFE
0440
7FFC
4444
7FFC
1200
2BFC
4C00
9BF8
3248
53F8
9100
13FC
1508
10F0
170E
ENDCHAR
STARTCHAR U+8987
ENCODING 35207
SWIDTH 1000 0
DWIDTH 16 0
BBX 16 16 0 -2
BITMAP
FFFE
0240
3FFC
2244
3FFC
2200
FF7C
2244
3E7C
0844
7F7C
4944
7F44
0844
FF94
0888
ENDCHAR
STARTCHAR U+8988
ENCODING 35208
SWIDTH 1000 0
DWIDTH 16 0
BBX 16 16 0 -2
BITMAP
FFFE
0240
3FFC
2244
3FFC
1040
7C40
647E
54C4
7D44
1028
FE28
2010
3C28
4444
8C82
ENDCHAR
STARTCHAR U+898A
ENCODING 35210
SWIDTH 1000 0
DWIDTH 16 0
BBX 16 16 0 -2
BITMAP
7FFE
0240
3FFC
2244
3FFC
2400
7EFC
2490
3CFC
0890
3EFE
2A52
3E52
088A
7F0A
0804
ENDCHAR
STARTCHAR U+898B
ENCODING 35211
SWIDTH 1000 0
DWIDTH 16 0
BBX 16 16 0 -2
BITMAP
0000
1FF0
1010
1FF0
1010
1010
1FF0
1010
1010
1FF0
0440
0440
0844
0846
103C
2000
ENDCHAR
STARTCHAR U+898F
ENCODING 35215
SWIDTH 1000 0
DWIDTH 16 0
BBX 16 16 0 -2
BITMAP
1000
11FC
1104
7DFC
1104
11FC
1104
FF04
11FC
1050
2850
2650
4492
4092
810E
0200
ENDCHAR
STARTCHAR U+8993
ENCODING 35219
SWIDTH 1000 0
DWIDTH 16 0
BBX 16 16 0 -2
BITMAP
00F8
3F10
1118
08A0
1FF0
1010
1FF0
1010
1FF0
1010
1FF0
0440
0440
0444
0844
103C
ENDCHAR
STARTCHAR U+8996
ENCODING 35222
SWIDTH 1000 0
DWIDTH 16 0
BBX 16 16 0 -2
BITMAP
2000
19FC
1104
FDFC
0504
0904
11FC
2904
5504
97FC
1450
1050
1092
1092
110E
1200
ENDCHAR
STARTCHAR U+8997
ENCODING 35223
SWIDTH 1000 0
DWIDTH 16 0
BBX 16 16 0 -2
BITMAP
0000
FDFC
0504
05FC
F504
0504
F5FC
9504
9504
95FC
F450
0450
0492
0492
150E
0A00
ENDCHAR
STARTCHAR U+8998
ENCODING 35224
SWIDTH 1000 0
DWIDTH 16 0
BBX 16 16 0 -2
BITMAP
2000
21F8
2108
3DF8
2108
21F8
2108
FD08
85F8
8400
8490
8490
FC90
8492
010E
0200
ENDCHAR
STARTCHAR U+899A
ENCODING 35226
SWIDTH 1000 0
DWIDTH 16 0
BBX 16 16 0 -2
BITMAP
2208
1988
1110
7FFE
4004
9FF0
1010
1FF0
1010
1FF0
1010
1FF0
0440
0442
0842
103E
ENDCHAR
STARTCHAR U+89A1
ENCODING 35233
SWIDTH 1000 0
DWIDTH 16 0
BBX 16 16 0 -2
BITMAP
0000
FEFC
1084
54FC
5484
5484
54FC
BA84
BA84
10FC
1050
1E50
F092
0092
010E
0200
ENDCHAR
STARTCHAR U+89A6
ENCODING 35238
SWIDTH 1000 0
DWIDTH 16 0
BBX 16 16 0 -2
BITMAP
0800
087C
1444
227C
7DC4
8144
717C
5544
7544
557C
7528
5528
512A
554A
528E
0100
ENDCHAR
STARTCHAR U+89A7
ENCODING 35239
SWIDTH 1000 0
DWIDTH 16 0
BBX 16 16 0 -2
BITMAP
7F20
4820
7E3E
4268
7E44
4884
7F00
0000
1FF0
1010
1FF0
1010
1FF0
0444
0844
303C
ENDCHAR
STARTCHAR U+89A9
ENCODING 35241
SWIDTH 1000 0
DWIDTH 16 0
BBX 16 16 0 -2
BITMAP
1000
12FC
7F84
12FC
1484
FF84
08FC
1084
7EFC
A250
2250
3E52
2252
2292
3F0E
2200
ENDCHAR
STARTCHAR U+89AA
ENCODING 35242
SWIDTH 1000 0
DWIDTH 16 0
BBX 16 16 0 -2
BITMAP
2000
10FC
7E84
00FC
4484
2884
7EFC
0884
7EFC
0848
2C48
2A48
4B4A
8A8A
2886
1100
ENDCHAR
STARTCHAR U+89AC
ENCODING 35244
SWIDTH 1000 0
DWIDTH 16 0
BBX 16 16 0 -2
BITMAP
0800
4AFC
4A84
7EFC
0084
FF84
00FC
7E84
42FC
7E50
4250
2450
2F52
F092
010E
0200
ENDCHAR
STARTCHAR U+89AF
ENCODING 35247
SWIDTH 1000 0
DWIDTH 16 0
BBX 16 16 0 -2
BITMAP
1400
7F7C
1444
7F7C
1444
FF7C
0844
7F44
497C
7F28
4928
FFAA
412A
414A
4546
4280
ENDCHAR
STARTCHAR U+89B2
ENCODING 35250
SWIDTH 1000 0
DWIDTH 16 0
BBX 16 16 0 -2
BITMAP
2400
24FC
FF84
24FC
3C84
0884
7EFC
4A84
7E84
08FC
7E48
0848
7E48
084A
0F8A
F106
ENDCHAR
STARTCHAR U+89B3
ENCODING 35251
SWIDTH 1000 0
DWIDTH 16 0
BBX 16 16 0 -2
BITMAP
2000
207C
3F44
487C
FFC4
1044
287C
7F44
A444
3F7C
2428
3F28
2448
3F4A
208A
0106
ENDCHAR
STARTCHAR U+89BA
ENCODING 35258
SWIDTH 1000 0
DWIDTH 16 0
BBX 16 16 0 -2
BITMAP
3838
2288
3938
2288
7FFE
4004
9FF0
1910
1490
1250
1010
1FF0
0444
0444
0846
303C
ENDCHAR
STARTCHAR U+89BD
ENCODING 35261
SWIDTH 1000 0
DWIDTH 16 0
BBX 16 16 0 -2
BITMAP
7E80
48FE
7C90
45FC
7C94
40FC
7E84
0000
1FF0
1490
1250
1010
1FF0
0242
0442
183E
ENDCHAR
STARTCHAR U+89BF
ENCODING 35263
SWIDTH 1000 0
DWIDTH 16 0
BBX 16 16 0 -2
BITMAP
0800
7F7C
0844
7F7C
0044
7F44
557C
7F44
0044
7F7C
4128
7F28
4128
7F2A
222A
4146
ENDCHAR
STARTCHAR U+89C0
ENCODING 35264
SWIDTH 1000 0
DWIDTH 16 0
BBX 16 16 0 -2
BITMAP
2200
FF7C
2244
777C
5544
7744
087C
2444
3F7C
6428
BF28
2428
3F2A
244A
3F46
2080
ENDCHAR
STARTCHAR U+89D2
ENCODING 35282
SWIDTH 1000 0
DWIDTH 16 0
BBX 16 16 0 -2
BITMAP
0400
07F8
0410
0820
1FFC
3084
5084
1FFC
1084
1084
1FFC
1084
1084
2084
2094
4088
ENDCHAR
STARTCHAR U+89DA
ENCODING 35290
SWIDTH 1000 0
DWIDTH 16 0
BBX 16 16 0 -2
BITMAP
2000
201C
3EE8
44A8
FEA8
52A8
52A8
7EA8
52A8
7EA8
52A8
52B4
52AC
4B7A
852A
0200
ENDCHAR
STARTCHAR U+89DC
ENCODING 35292
SWIDTH 1000 0
DWIDTH 16 0
BBX 16 16 0 -2
BITMAP
0840
084C
2F70
2842
2F42
F43E
07E0
0840
3FF8
C888
0FF8
0888
0FF8
0888
10A8
2090
ENDCHAR
STARTCHAR U+89DD
ENCODING 35293
SWIDTH 1000 0
DWIDTH 16 0
BBX 16 16 0 -2
BITMAP
200E
3EF0
2290
4490
FE90
4A90
4AFE
7E90
4A90
7E90
4A88
4A8A
4AAA
42D6
8A92
8410
ENDCHAR
STARTCHAR U+89E3
ENCODING 35299
SWIDTH 1000 0
DWIDTH 16 0
BBX 16 16 0 -2
BITMAP
2000
21FC
7C44
8844
7E44
4A9C
7F08
4A90
4AFE
7F10
4A10
4BFE
4A10
4210
4A10
8410
ENDCHAR
STARTCHAR U+89E6
ENCODING 35302
SWIDTH 1000 0
DWIDTH 16 0
BBX 16 16 0 -2
BITMAP
2010
3F10
2110
4210
7F7C
C954
7F54
4954
4954
7F7C
4910
4914
4912
491E
85F2
0200
ENDCHAR
STARTCHAR U+89E7
ENCODING 35303
SWIDTH 1000 0
DWIDTH 16 0
BBX 16 16 0 -2
BITMAP
2084
2066
3F48
42FE
7F10
C910
497C
7F10
4910
4910
7FFE
4910
4910
4910
4510
8210
ENDCHAR
STARTCHAR U+89F4
ENCODING 35316
SWIDTH 1000 0
DWIDTH 16 0
BBX 16 16 0 -2
BITMAP
2080
3EFE
4500
FCFC
5484
54FC
7C84
54FC
5480
7CFE
552A
564A
5492
4522
544A
8884
ENDCHAR
STARTCHAR U+89F8
ENCODING 35320
SWIDTH 1000 0
DWIDTH 16 0
BBX 16 16 0 -2
BITMAP
2000
3DFE
454A
89FE
7C80
54FE
5502
7E42
55FA
554A
7DFA
5442
547A
4792
540A
8804
ENDCHAR
STARTCHAR U+8A00
ENCODING 35328
SWIDTH 1000 0
DWIDTH 16 0
BBX 16 16 0 -2
BITMAP
0200
0100
7FFE
0000
0000
1FF0
0000
1FF0
0000
0000
1FF0
1010
1010
1010
1FF0
1010
ENDCHAR
STARTCHAR U+8A02
ENCODING 35330
SWIDTH 1000 0
DWIDTH 16 0
BBX 16 16 0 -2
BITMAP
2000
1000
09FE
FE10
0010
7C10
0010
0010
7C10
0010
7C10
4410
4410
4410
7C50
4420
ENDCHAR
STARTCHAR U+8A03
ENCODING 35331
SWIDTH 1000 0
DWIDTH 16 0
BBX 16 16 0 -2
BITMAP
1020
0C20
0820
7F20
0020
3E30
0028
3E24
0022
0022
3E20
2220
2220
2220
3E20
0020
ENDCHAR
STARTCHAR U+8A08
ENCODING 35336
SWIDTH 1000 0
DWIDTH 16 0
BBX 16 16 0 -2
BITMAP
2010
1810
0810
7F10
0010
3EFE
0010
3E10
0010
3E10
2210
2210
2210
3E10
2210
0010
ENDCHAR
STARTCHAR U+8A0A
ENCODING 35338
SWIDTH 1000 0
DWIDTH 16 0
BBX 16 16 0 -2
BITMAP
2000
1BF8
1048
FC48
0048
7C48
01F8
7C48
0048
7C48
4448
444A
444A
7C46
4442
0040
ENDCHAR
STARTCHAR U+8A0C
ENCODING 35340
SWIDTH 1000 0
DWIDTH 16 0
BBX 16 16 0 -2
BITMAP
2000
1000
FEFC
0020
0020
7C20
0020
0020
7C20
0020
7C20
4420
4420
7FFE
4400
0000
ENDCHAR
STARTCHAR U+8A0E
ENCODING 35342
SWIDTH 1000 0
DWIDTH 16 0
BBX 16 16 0 -2
BITMAP
2008
1808
1008
FE08
01FE
7C08
0008
0108
7C88
00C8
7C88
4408
4408
4408
7C28
4410
ENDCHAR
STARTCHAR U+8A10
ENCODING 35344
SWIDTH 1000 0
DWIDTH 16 0
BBX 16 16 0 -2
BITMAP
2000
1000
FEFC
0020
0020
7C20
0020
7DFE
0020
0020
7C20
4420
4420
4420
7C20
4420
ENDCHAR
STARTCHAR U+8A13
ENCODING 35347
SWIDTH 1000 0
DWIDTH 16 0
BBX 16 16 0 -2
BITMAP
2082
1092
FE92
0092
7C92
0092
0092
7C92
0092
7C92
4492
4492
7C92
4502
4102
0200
ENDCHAR
STARTCHAR U+8A16
ENCODING 35350
SWIDTH 1000 0
DWIDTH 16 0
BBX 16 16 0 -2
BITMAP
2040
1840
1080
FEFE
0100
7C00
01F8
7C08
0010
7C20
4440
4484
4504
7D06
44FC
0000
ENDCHAR
STARTCHAR U+8A17
ENCODING 35351
SWIDTH 1000 0
DWIDTH 16 0
BBX 16 16 0 -2
BITMAP
2000
1038
11C0
FE40
0040
7C40
005C
7DE0
0040
7C40
4440
4444
4444
7C46
443C
0000
ENDCHAR
STARTCHAR U+8A18
ENCODING 35352
SWIDTH 1000 0
DWIDTH 16 0
BBX 16 16 0 -2
BITMAP
2000
10FC
FE04
0004
7C04
0004
00FC
7C80
0080
7C80
4480
4484
4484
7C86
447C
0000
ENDCHAR
STARTCHAR U+8A1B
ENCODING 35355
SWIDTH 1000 0
DWIDTH 16 0
BBX 16 16 0 -2
BITMAP
2090
10D0
FE90
0094
7D16
0118
0310
7D30
0150
7D10
4510
4512
4512
7D12
450E
0000
ENDCHAR
STARTCHAR U+8A1D
ENCODING 35357
SWIDTH 1000 0
DWIDTH 16 0
BBX 16 16 0 -2
BITMAP
2000
19FE
1008
FE88
0088
7C88
01FE
7C18
0028
0028
7C48
4488
4508
7C08
4428
0010
ENDCHAR
STARTCHAR U+8A1F
ENCODING 35359
SWIDTH 1000 0
DWIDTH 16 0
BBX 16 16 0 -2
BITMAP
4010
3090
20D0
FE88
0088
7C88
0104
7E46
0044
7C40
4488
4484
453E
7FE4
4404
0000
ENDCHAR
STARTCHAR U+8A23
ENCODING 35363
SWIDTH 1000 0
DWIDTH 16 0
BBX 16 16 0 -2
BITMAP
4040
3040
1040
FDF8
0048
7848
0048
7BFE
0040
00A0
78A0
4890
4908
790C
4A06
0404
ENDCHAR
STARTCHAR U+8A25
ENCODING 35365
SWIDTH 1000 0
DWIDTH 16 0
BBX 16 16 0 -2
BITMAP
4020
3020
2020
FDFE
0122
7D22
0122
7D52
014A
7D8E
458A
4502
4502
7D02
450A
0104
ENDCHAR
STARTCHAR U+8A2A
ENCODING 35370
SWIDTH 1000 0
DWIDTH 16 0
BBX 16 16 0 -2
BITMAP
2040
1830
1020
FFFE
0040
7C40
0040
7C7C
0044
0044
7C84
4484
4484
7D04
4514
0208
ENDCHAR
STARTCHAR U+8A2D
ENCODING 35373
SWIDTH 1000 0
DWIDTH 16 0
BBX 16 16 0 -2
BITMAP
2000
18F8
1088
FE88
0088
7D06
0200
7CF8
0088
7C88
4450
4420
4450
7C88
4506
0204
ENDCHAR
STARTCHAR U+8A31
ENCODING 35377
SWIDTH 1000 0
DWIDTH 16 0
BBX 16 16 0 -2
BITMAP
2080
10C0
FE80
00FC
0120
7E20
0020
0020
7DFE
0020
7C20
4420
4420
4420
7C20
4420
ENDCHAR
STARTCHAR U+8A33
ENCODING 35379
SWIDTH 1000 0
DWIDTH 16 0
BBX 16 16 0 -2
BITMAP
2000
18FC
1084
FE84
0084
7C84
00FC
7C90
0090
7C90
4488
4488
4488
7D06
4504
0200
ENDCHAR
STARTCHAR U+8A34
ENCODING 35380
SWIDTH 1000 0
DWIDTH 16 0
BBX 16 16 0 -2
BITMAP
2000
181C
10F0
FE80
0080
7CFE
0090
7C90
00B0
7C98
4494
4490
4510
7D10
4210
0410
ENDCHAR
STARTCHAR U+8A36
ENCODING 35382
SWIDTH 1000 0
DWIDTH 16 0
BBX 16 16 0 -2
BITMAP
2000
1000
FFFE
0008
0008
7DE8
0128
7D28
0128
7D28
45E8
4528
4408
7C08
4428
0010
ENDCHAR
STARTCHAR U+8A3A
ENCODING 35386
SWIDTH 1000 0
DWIDTH 16 0
BBX 16 16 0 -2
BITMAP
4040
3040
10A0
FC90
0108
7A46
0464
7890
0118
7A30
48C8
4B0C
4810
7860
4980
0600
ENDCHAR
STARTCHAR U+8A3B
ENCODING 35387
SWIDTH 1000 0
DWIDTH 16 0
BBX 16 16 0 -2
BITMAP
4040
3030
1020
FFFE
0020
7C20
0020
7DFC
0020
0020
7C20
4420
4420
4420
7DFE
0000
ENDCHAR
STARTCHAR U+8A3C
ENCODING 35388
SWIDTH 1000 0
DWIDTH 16 0
BBX 16 16 0 -2
BITMAP
4000
31FE
1010
FE10
0010
7C10
009E
7C90
0090
0090
7C90
4490
4490
4490
7DFE
0000
ENDCHAR
STARTCHAR U+8A41
ENCODING 35393
SWIDTH 1000 0
DWIDTH 16 0
BBX 16 16 0 -2
BITMAP
2020
1820
1020
FFFE
0020
7C20
0020
7C20
01FC
7D04
4504
4504
4504
7DFC
4504
0000
ENDCHAR
STARTCHAR U+8A46
ENCODING 35398
SWIDTH 1000 0
DWIDTH 16 0
BBX 16 16 0 -2
BITMAP
4000
301E
11F0
FF10
0110
7D10
01FE
7D10
0110
0110
7D08
454A
452A
7DB6
4522
0000
ENDCHAR
STARTCHAR U+8A48
ENCODING 35400
SWIDTH 1000 0
DWIDTH 16 0
BBX 16 16 0 -2
BITMAP
3FF8
2448
2448
3FF8
2208
0100
FFFE
0000
1FF0
0000
1FF0
0000
1FF0
1010
1010
1FF0
ENDCHAR
STARTCHAR U+8A50
ENCODING 35408
SWIDTH 1000 0
DWIDTH 16 0
BBX 16 16 0 -2
BITMAP
2040
1860
1080
FEFE
0140
7E40
007E
7C40
0040
0040
7C7E
4440
4440
7C40
4440
0040
ENDCHAR
STARTCHAR U+8A51
ENCODING 35409
SWIDTH 1000 0
DWIDTH 16 0
BBX 16 16 0 -2
BITMAP
2040
1820
11FE
FD04
0200
7C80
0088
7C9C
00B0
00C0
7C80
4484
4484
7C86
447C
0000
ENDCHAR
STARTCHAR U+8A52
ENCODING 35410
SWIDTH 1000 0
DWIDTH 16 0
BBX 16 16 0 -2
BITMAP
4020
3020
1040
FE48
0084
7DFE
0084
7C00
00FC
7C84
4484
4484
4484
7CFC
4484
0000
ENDCHAR
STARTCHAR U+8A54
ENCODING 35412
SWIDTH 1000 0
DWIDTH 16 0
BBX 16 16 0 -2
BITMAP
2000
19FC
1044
FE44
0044
7C84
0094
7D08
0200
7DFC
4504
4504
4504
4504
7DFC
4504
ENDCHAR
STARTCHAR U+8A55
ENCODING 35413
SWIDTH 1000 0
DWIDTH 16 0
BBX 16 16 0 -2
BITMAP
2000
11FE
FE20
0024
0126
7CA4
00A8
7C20
03FE
7C20
4420
4420
4420
7C20
4420
0020
ENDCHAR
STARTCHAR U+8A5B
ENCODING 35419
SWIDTH 1000 0
DWIDTH 16 0
BBX 16 16 0 -2
BITMAP
2000
18FC
1084
FE84
0084
7CFC
0084
7C84
0084
7CFC
4484
4484
4484
4484
7DFE
4400
ENDCHAR
STARTCHAR U+8A5E
ENCODING 35422
SWIDTH 1000 0
DWIDTH 16 0
BBX 16 16 0 -2
BITMAP
2000
1BFC
1004
FC04
01F4
7C04
01F4
7D14
0114
7D14
45F4
4514
4404
7C04
4414
0008
ENDCHAR
STARTCHAR U+8A60
ENCODING 35424
SWIDTH 1000 0
DWIDTH 16 0
BBX 16 16 0 -2
BITMAP
4080
3060
1040
FFE0
0024
7C26
03A8
00B0
7CB0
00A8
7D28
4524
4626
7C24
44A0
0040
ENDCHAR
STARTCHAR U+8A62
ENCODING 35426
SWIDTH 1000 0
DWIDTH 16 0
BBX 16 16 0 -2
BITMAP
4080
3080
1080
FDFC
0204
7DF4
0114
0114
7DF4
0114
7D14
45F4
4514
4404
7C14
0008
ENDCHAR
STARTCHAR U+8A63
ENCODING 35427
SWIDTH 1000 0
DWIDTH 16 0
BBX 16 16 0 -2
BITMAP
4100
3110
1138
FDC0
0104
7D06
00FC
0000
7DFC
0104
7D04
45FC
4504
7D04
45FC
0000
ENDCHAR
STARTCHAR U+8A66
ENCODING 35430
SWIDTH 1000 0
DWIDTH 16 0
BBX 16 16 0 -2
BITMAP
2010
1818
1014
FC10
03FE
7810
0010
7BD0
0090
7890
4888
48EA
4B8A
7806
4802
0000
ENDCHAR
STARTCHAR U+8A69
ENCODING 35433
SWIDTH 1000 0
DWIDTH 16 0
BBX 16 16 0 -2
BITMAP
4020
3020
11FC
FC20
0020
7BFE
0008
7808
03FE
0088
7848
4848
4808
7848
4828
0010
ENDCHAR
STARTCHAR U+8A6B
ENCODING 35435
SWIDTH 1000 0
DWIDTH 16 0
BBX 16 16 0 -2
BITMAP
2040
1820
11FE
FE04
0000
7C38
01C0
7C40
004C
03F0
7C40
4440
4442
7C42
443E
0000
ENDCHAR
STARTCHAR U+8A6C
ENCODING 35436
SWIDTH 1000 0
DWIDTH 16 0
BBX 16 16 0 -2
BITMAP
201C
19E0
1100
FF00
0100
7DFE
0100
7D00
01FC
7984
4984
4984
4A84
7AFC
4A84
0400
ENDCHAR
STARTCHAR U+8A6D
ENCODING 35437
SWIDTH 1000 0
DWIDTH 16 0
BBX 16 16 0 -2
BITMAP
4080
30FC
1088
FD10
03FE
7900
0100
797C
0144
0144
7954
4948
4A42
7A42
443E
0800
ENDCHAR
STARTCHAR U+8A6E
ENCODING 35438
SWIDTH 1000 0
DWIDTH 16 0
BBX 16 16 0 -2
BITMAP
4020
3020
2050
FE88
0104
7E06
01FA
7C40
0040
7DF8
4440
4440
4440
7C40
47FC
0000
ENDCHAR
STARTCHAR U+8A70
ENCODING 35440
SWIDTH 1000 0
DWIDTH 16 0
BBX 16 16 0 -2
BITMAP
4020
3020
2020
FDFE
0020
7C20
00FC
7C00
0000
7CFC
4484
4484
4484
7CFC
4484
0000
ENDCHAR
STARTCHAR U+8A71
ENCODING 35441
SWIDTH 1000 0
DWIDTH 16 0
BBX 16 16 0 -2
BITMAP
2000
183C
11E0
FE20
0020
7DFE
0020
7C20
0020
7DFC
4504
4504
4504
7DFC
4504
0000
ENDCHAR
STARTCHAR U+8A72
ENCODING 35442
SWIDTH 1000 0
DWIDTH 16 0
BBX 16 16 0 -2
BITMAP
2040
1820
11FE
FC20
0040
7C48
008C
7DF0
0028
004C
7C98
4510
4428
7C44
4486
0104
ENDCHAR
STARTCHAR U+8A73
ENCODING 35443
SWIDTH 1000 0
DWIDTH 16 0
BBX 16 16 0 -2
BITMAP
2108
188C
1050
FDFE
0020
7C20
00FC
7C20
0020
0020
7DFE
4420
4420
7C20
4420
0020
ENDCHAR
STARTCHAR U+8A7C
ENCODING 35452
SWIDTH 1000 0
DWIDTH 16 0
BBX 16 16 0 -2
BITMAP
4040
3040
2040
FDFE
0080
78A0
00A4
7926
01A8
7AA0
4C50
4848
488C
7906
4A04
0400
ENDCHAR
STARTCHAR U+8A82
ENCODING 35458
SWIDTH 1000 0
DWIDTH 16 0
BBX 16 16 0 -2
BITMAP
2090
1090
0090
FC90
0296
7998
0090
7890
0198
7A94
4C90
4892
7912
4912
420E
0400
ENDCHAR
STARTCHAR U+8A84
ENCODING 35460
SWIDTH 1000 0
DWIDTH 16 0
BBX 16 16 0 -2
BITMAP
4020
3020
23FE
FC20
01FC
7820
0020
7BFE
0070
0070
78A8
48AC
4926
7A24
4820
0020
ENDCHAR
STARTCHAR U+8A85
ENCODING 35461
SWIDTH 1000 0
DWIDTH 16 0
BBX 16 16 0 -2
BITMAP
2020
1020
1120
FFFC
0120
7E20
03FE
7C70
0070
7CA8
44AC
4526
4524
7E20
4420
0020
ENDCHAR
STARTCHAR U+8A87
ENCODING 35463
SWIDTH 1000 0
DWIDTH 16 0
BBX 16 16 0 -2
BITMAP
4040
3040
23FE
FCA0
0118
7BF6
0400
7800
03FC
7880
48F8
4808
4808
7848
4828
0010
ENDCHAR
STARTCHAR U+8A89
ENCODING 35465
SWIDTH 1000 0
DWIDTH 16 0
BBX 16 16 0 -2
BITMAP
2208
1110
0020
FFFE
0A20
1110
3FFE
4004
8FE0
0000
0FE0
0000
1FF0
1010
1FF0
1010
ENDCHAR
STARTCHAR U+8A8C
ENCODING 35468
SWIDTH 1000 0
DWIDTH 16 0
BBX 16 16 0 -2
BITMAP
2020
1020
0020
FFFE
0020
7C20
01FC
7C00
0040
7828
4AA4
4A82
4A8A
7C8C
4878
0000
ENDCHAR
STARTCHAR U+8A8D
ENCODING 35469
SWIDTH 1000 0
DWIDTH 16 0
BBX 16 16 0 -2
BITMAP
2000
19FC
1024
FE24
0124
7D44
0054
7C88
0140
7828
4AB4
4AA2
4A8A
7C88
4878
0000
ENDCHAR
STARTCHAR U+8A91
ENCODING 35473
SWIDTH 1000 0
DWIDTH 16 0
BBX 16 16 0 -2
BITMAP
4000
3440
22BE
FD90
0310
7D10
0090
79FE
0290
0490
7890
4890
4890
7890
4AFE
0100
ENDCHAR
STARTCHAR U+8A93
ENCODING 35475
SWIDTH 1000 0
DWIDTH 16 0
BBX 16 16 0 -2
BITMAP
100C
FEF0
1080
7CFE
1110
5210
2490
FFFE
0000
1FF0
0000
1FF0
0000
1FF0
1010
1FF0
ENDCHAR
STARTCHAR U+8A95
ENCODING 35477
SWIDTH 1000 0
DWIDTH 16 0
BBX 16 16 0 -2
BITMAP
2000
170C
FD70
0110
7910
015E
0250
7950
0150
7D50
4A7E
4900
7A80
4C40
483E
0000
ENDCHAR
STARTCHAR U+8A98
ENCODING 35480
SWIDTH 1000 0
DWIDTH 16 0
BBX 16 16 0 -2
BITMAP
401C
31E0
2020
FFFE
0070
78AC
0124
7820
03FC
7888
489C
4884
4904
7904
4A28
0410
ENDCHAR
STARTCHAR U+8A9A
ENCODING 35482
SWIDTH 1000 0
DWIDTH 16 0
BBX 16 16 0 -2
BITMAP
2020
1824
1126
FEA8
0020
7DFC
0104
7DFC
0104
7D04
45FC
4504
4504
7D04
4514
0108
ENDCHAR
STARTCHAR U+8A9E
ENCODING 35486
SWIDTH 1000 0
DWIDTH 16 0
BBX 16 16 0 -2
BITMAP
4000
33FC
2040
FC40
01F8
7888
0088
7BFE
0000
79F8
4908
4908
4908
79F8
4908
0000
ENDCHAR
STARTCHAR U+8AA0
ENCODING 35488
SWIDTH 1000 0
DWIDTH 16 0
BBX 16 16 0 -2
BITMAP
4010
3014
2014
FBFE
0210
7A10
03D4
7A56
0254
7A58
4B50
4AAA
7A2A
4C46
4482
0800
ENDCHAR
STARTCHAR U+8AA1
ENCODING 35489
SWIDTH 1000 0
DWIDTH 16 0
BBX 16 16 0 -2
BITMAP
4010
3014
2014
FBFE
0010
7950
0154
7BF6
0154
0154
7948
4A58
4A2A
7C46
4882
0000
ENDCHAR
STARTCHAR U+8AA3
ENCODING 35491
SWIDTH 1000 0
DWIDTH 16 0
BBX 16 16 0 -2
BITMAP
4000
33FE
2020
FC20
0128
7928
0128
7928
02B4
7A62
4C20
4820
4820
7BFE
4800
0000
ENDCHAR
STARTCHAR U+8AA4
ENCODING 35492
SWIDTH 1000 0
DWIDTH 16 0
BBX 16 16 0 -2
BITMAP
2000
11F8
FD08
0108
01F8
7800
03FC
7840
0040
7FFE
4840
48A0
4890
790C
4A06
0404
ENDCHAR
STARTCHAR U+8AA5
ENCODING 35493
SWIDTH 1000 0
DWIDTH 16 0
BBX 16 16 0 -2
BITMAP
2020
1020
1120
FFFC
0120
7E20
03FE
7C00
0000
7DFC
4504
4504
4504
7DFC
4504
0000
ENDCHAR
STARTCHAR U+8AA6
ENCODING 35494
SWIDTH 1000 0
DWIDTH 16 0
BBX 16 16 0 -2
BITMAP
2000
11FC
1088
FE50
0020
7DFC
0124
7DFC
0124
0124
7DFC
4524
4524
7D24
4514
0108
ENDCHAR
STARTCHAR U+8AA8
ENCODING 35496
SWIDTH 1000 0
DWIDTH 16 0
BBX 16 16 0 -2
BITMAP
4100
3100
21FC
FA00
01F8
7908
0148
7928
07FE
0148
7928
4908
4BFE
7908
4828
0010
ENDCHAR
STARTCHAR U+8AAC
ENCODING 35500
SWIDTH 1000 0
DWIDTH 16 0
BBX 16 16 0 -2
BITMAP
2108
10CC
FC90
01FC
0104
7904
0104
79FC
0050
7850
4850
4890
4892
7912
4A0E
0400
ENDCHAR
STARTCHAR U+8AAD
ENCODING 35501
SWIDTH 1000 0
DWIDTH 16 0
BBX 16 16 0 -2
BITMAP
4020
3020
11FC
FC20
00F8
7800
01FE
7904
0290
7890
4890
4890
4892
7912
490E
0200
ENDCHAR
STARTCHAR U+8AB0
ENCODING 35504
SWIDTH 1000 0
DWIDTH 16 0
BBX 16 16 0 -2
BITMAP
2140
1130
FD10
01FE
0310
7D10
01FE
7D10
0110
7DFE
4510
4510
4510
7DFE
4500
0000
ENDCHAR
STARTCHAR U+8AB2
ENCODING 35506
SWIDTH 1000 0
DWIDTH 16 0
BBX 16 16 0 -2
BITMAP
4000
21FC
FD24
01FC
0124
7924
01FC
7820
03FE
7860
48B0
48A8
7926
4A24
4420
0020
ENDCHAR
STARTCHAR U+8AB9
ENCODING 35513
SWIDTH 1000 0
DWIDTH 16 0
BBX 16 16 0 -2
BITMAP
4090
3090
239E
FC90
0090
7890
039E
7890
0090
7890
4B9E
4890
4890
7890
4890
0090
ENDCHAR
STARTCHAR U+8ABC
ENCODING 35516
SWIDTH 1000 0
DWIDTH 16 0
BBX 16 16 0 -2
BITMAP
2080
1040
FFFE
0202
0000
7DF8
0108
7D08
01F8
0108
7D08
45F8
4508
4508
7FFE
4400
ENDCHAR
STARTCHAR U+8ABF
ENCODING 35519
SWIDTH 1000 0
DWIDTH 16 0
BBX 16 16 0 -2
BITMAP
41FC
3124
2124
FDFC
0124
7924
01FC
7904
0174
7954
4954
4974
4954
7A04
4A14
0408
ENDCHAR
STARTCHAR U+8AC2
ENCODING 35522
SWIDTH 1000 0
DWIDTH 16 0
BBX 16 16 0 -2
BITMAP
2040
1040
FE7E
0084
0108
7C00
0040
7D9C
0104
7D04
45DC
4504
4504
7DFC
4504
0000
ENDCHAR
STARTCHAR U+8AC4
ENCODING 35524
SWIDTH 1000 0
DWIDTH 16 0
BBX 16 16 0 -2
BITMAP
2040
1020
FBFE
0000
01F8
7908
01F8
0000
79FC
0008
7850
4BFE
4820
4820
78A0
4840
ENDCHAR
STARTCHAR U+8AC7
ENCODING 35527
SWIDTH 1000 0
DWIDTH 16 0
BBX 16 16 0 -2
BITMAP
4020
3024
2128
FD20
0050
7C88
0124
7A20
0124
7D28
4420
4450
4448
7C8C
4506
0204
ENDCHAR
STARTCHAR U+8ACB
ENCODING 35531
SWIDTH 1000 0
DWIDTH 16 0
BBX 16 16 0 -2
BITMAP
2020
13FE
FC20
01FC
7820
03FE
0000
79FC
0104
79FC
4904
49FC
4904
7904
4914
0108
ENDCHAR
STARTCHAR U+8ACC
ENCODING 35532
SWIDTH 1000 0
DWIDTH 16 0
BBX 16 16 0 -2
BITMAP
2020
1820
11FE
FE20
01FC
7D24
01FC
7D24
01FC
7D24
4470
4468
7CA6
4524
4220
0020
ENDCHAR
STARTCHAR U+8ACD
ENCODING 35533
SWIDTH 1000 0
DWIDTH 16 0
BBX 16 16 0 -2
BITMAP
401C
33E4
2046
FD28
01FC
7824
0024
7BFE
0024
7824
49FC
4820
4820
7820
48A0
0040
ENDCHAR
STARTCHAR U+8ACF
ENCODING 35535
SWIDTH 1000 0
DWIDTH 16 0
BBX 16 16 0 -2
BITMAP
4000
37E0
2280
FABC
03A4
7AA4
02A4
7BA4
0294
7A94
4AC8
4F88
7894
4892
40A2
0040
ENDCHAR
STARTCHAR U+8AD2
ENCODING 35538
SWIDTH 1000 0
DWIDTH 16 0
BBX 16 16 0 -2
BITMAP
2040
1820
11FE
FC00
0000
7CFC
0084
7C84
00FC
7C20
44A8
44A4
4526
7E24
44A0
0040
ENDCHAR
STARTCHAR U+8AD6
ENCODING 35542
SWIDTH 1000 0
DWIDTH 16 0
BBX 16 16 0 -2
BITMAP
4040
3040
20A0
FD10
0208
77F6
0000
7BFC
0294
7A94
4BFC
4A94
4A94
7A84
4A14
0208
ENDCHAR
STARTCHAR U+8ADA
ENCODING 35546
SWIDTH 1000 0
DWIDTH 16 0
BBX 16 16 0 -2
BITMAP
2040
1020
FDFE
0104
0208
79FC
0020
7920
0120
793C
4920
4920
4AA0
7A60
4C3E
0000
ENDCHAR
STARTCHAR U+8ADB
ENCODING 35547
SWIDTH 1000 0
DWIDTH 16 0
BBX 16 16 0 -2
BITMAP
4020
3060
21AC
FD24
0124
79AC
0124
7924
01FC
7D24
4450
4450
4488
7C8C
4506
0204
ENDCHAR
STARTCHAR U+8ADC
ENCODING 35548
SWIDTH 1000 0
DWIDTH 16 0
BBX 16 16 0 -2
BITMAP
4000
3148
2148
FFFE
0148
7978
0100
79FE
0020
7BFE
4870
48B0
48A8
7926
4A24
0020
ENDCHAR
STARTCHAR U+8ADE
ENCODING 35550
SWIDTH 1000 0
DWIDTH 16 0
BBX 16 16 0 -2
BITMAP
4040
3020
23FC
FA04
0204
7BFC
0200
7BFC
0354
0354
7BFC
4B54
4B54
7B54
4D0C
0400
ENDCHAR
STARTCHAR U+8AE0
ENCODING 35552
SWIDTH 1000 0
DWIDTH 16 0
BBX 16 16 0 -2
BITMAP
2040
1020
FFFE
0202
01F8
7800
01F8
7908
01F8
7908
4908
49F8
7800
4800
47FE
0000
ENDCHAR
STARTCHAR U+8AE1
ENCODING 35553
SWIDTH 1000 0
DWIDTH 16 0
BBX 16 16 0 -2
BITMAP
4090
3090
2110
FD08
02F6
7880
00F8
7808
0050
0020
79FC
4954
4954
7954
4FFE
0000
ENDCHAR
STARTCHAR U+8AE2
ENCODING 35554
SWIDTH 1000 0
DWIDTH 16 0
BBX 16 16 0 -2
BITMAP
4000
239C
FA94
039C
0000
7BF8
0248
7BF8
0248
7BF8
4840
4FFE
7840
4840
4040
0040
ENDCHAR
STARTCHAR U+8AE4
ENCODING 35556
SWIDTH 1000 0
DWIDTH 16 0
BBX 16 16 0 -2
BITMAP
4000
31DC
2154
FD54
01DC
7800
01FC
7800
03FE
7880
49F8
4888
4808
7808
4828
0010
ENDCHAR
STARTCHAR U+8AE6
ENCODING 35558
SWIDTH 1000 0
DWIDTH 16 0
BBX 16 16 0 -2
BITMAP
4040
3020
23FE
FC88
0050
7BFE
0224
7820
01FC
7924
4924
4924
7934
4828
4020
0020
ENDCHAR
STARTCHAR U+8AE7
ENCODING 35559
SWIDTH 1000 0
DWIDTH 16 0
BBX 16 16 0 -2
BITMAP
2110
1910
1116
FDD8
0112
7952
018E
7920
0040
79FC
4904
49FC
4904
7904
49FC
0104
ENDCHAR
STARTCHAR U+8AEB
ENCODING 35563
SWIDTH 1000 0
DWIDTH 16 0
BBX 16 16 0 -2
BITMAP
4020
3020
23FE
FC20
03FE
7B2A
02AE
7AB2
03FE
7870
48B0
48A8
492C
7A26
4424
0020
ENDCHAR
STARTCHAR U+8AED
ENCODING 35565
SWIDTH 1000 0
DWIDTH 16 0
BBX 16 16 0 -2
BITMAP
4040
3060
2090
FD08
03FE
7C00
0004
7BD4
0254
03D4
7A54
4BD4
4A44
7A44
4A54
02C8
ENDCHAR
STARTCHAR U+8AEE
ENCODING 35566
SWIDTH 1000 0
DWIDTH 16 0
BBX 16 16 0 -2
BITMAP
2020
1220
FDBE
0154
0094
7890
0128
7924
0046
79FA
4908
4908
4908
79F8
4908
0000
ENDCHAR
STARTCHAR U+8AF1
ENCODING 35569
SWIDTH 1000 0
DWIDTH 16 0
BBX 16 16 0 -2
BITMAP
2040
11F8
FC48
0048
03FE
7C00
01F8
7D08
01F8
7C20
45FC
4520
47FE
7C20
4420
0020
ENDCHAR
STARTCHAR U+8AF3
ENCODING 35571
SWIDTH 1000 0
DWIDTH 16 0
BBX 16 16 0 -2
BITMAP
4040
3020
21FC
FC88
0088
7C50
01FE
7C00
00FC
7C84
44FC
4484
4484
7CFC
4484
0000
ENDCHAR
STARTCHAR U+8AF7
ENCODING 35575
SWIDTH 1000 0
DWIDTH 16 0
BBX 16 16 0 -2
BITMAP
4000
37FC
2434
FFC4
0444
F5F4
0554
F554
05F4
F444
9454
947C
9796
F406
8804
1000
ENDCHAR
STARTCHAR U+8AF8
ENCODING 35576
SWIDTH 1000 0
DWIDTH 16 0
BBX 16 16 0 -2
BITMAP
2040
1848
11FC
FE48
0050
7BFE
0040
79F8
0108
7B08
4DF8
4908
7908
49F8
4108
0000
ENDCHAR
STARTCHAR U+8AFA
ENCODING 35578
SWIDTH 1000 0
DWIDTH 16 0
BBX 16 16 0 -2
BITMAP
2040
1020
FFFE
0108
7890
03FE
0200
7A0C
0230
7ACC
4A18
4A64
7B86
4C18
0460
0980
ENDCHAR
STARTCHAR U+8AFE
ENCODING 35582
SWIDTH 1000 0
DWIDTH 16 0
BBX 16 16 0 -2
BITMAP
2088
1088
FFFE
0088
0040
7840
03FE
7840
0080
78FC
4984
4A84
4C84
78FC
4884
0000
ENDCHAR
STARTCHAR U+8B00
ENCODING 35584
SWIDTH 1000 0
DWIDTH 16 0
BBX 16 16 0 -2
BITMAP
4108
3108
23FE
FD08
01F8
7908
0108
79F8
0040
7FFE
48E0
4950
4948
7A46
4C40
0040
ENDCHAR
STARTCHAR U+8B01
ENCODING 35585
SWIDTH 1000 0
DWIDTH 16 0
BBX 16 16 0 -2
BITMAP
4000
31F8
2108
FDF8
0108
79F8
0100
79FC
0224
7E24
4A54
4A8C
4BF4
7804
4828
0010
ENDCHAR
STARTCHAR U+8B02
ENCODING 35586
SWIDTH 1000 0
DWIDTH 16 0
BBX 16 16 0 -2
BITMAP
2000
11FC
FD24
01FC
0124
79FC
0000
79FC
0104
79FC
4904
49FC
7904
4914
4108
0000
ENDCHAR
STARTCHAR U+8B04
ENCODING 35588
SWIDTH 1000 0
DWIDTH 16 0
BBX 16 16 0 -2
BITMAP
0248
7950
4FFC
4840
7FFE
4910
4A48
4FFE
7800
4BF8
4800
4BF8
4800
4BF8
AA08
93F8
ENDCHAR
STARTCHAR U+8B07
ENCODING 35591
SWIDTH 1000 0
DWIDTH 16 0
BBX 16 16 0 -2
BITMAP
0100
7FFE
4444
9FF8
0440
3FFC
0440
7FFC
0908
3FF6
C004
0FF0
0000
0FF0
0810
0FF0
ENDCHAR
STARTCHAR U+8B0C
ENCODING 35596
SWIDTH 1000 0
DWIDTH 16 0
BBX 16 16 0 -2
BITMAP
43FE
3004
21E4
FD24
0124
7DE4
0000
7DFE
0004
7DE4
4524
4524
45E4
7C04
4014
0008
ENDCHAR
STARTCHAR U+8B0E
ENCODING 35598
SWIDTH 1000 0
DWIDTH 16 0
BBX 16 16 0 -2
BITMAP
2020
1124
FCA4
00A8
0020
78FE
0620
7A70
0268
7AA4
4B24
4A20
7A20
4580
487E
0000
ENDCHAR
STARTCHAR U+8B10
ENCODING 35600
SWIDTH 1000 0
DWIDTH 16 0
BBX 16 16 0 -2
BITMAP
2040
1028
FC8C
0290
02A4
7ACA
0088
7978
0200
79FC
4954
4954
7954
4FFE
4000
0000
ENDCHAR
STARTCHAR U+8B14
ENCODING 35604
SWIDTH 1000 0
DWIDTH 16 0
BBX 16 16 0 -2
BITMAP
2020
103C
FC20
03FE
0224
7A20
02FC
7A20
021E
7A00
4AFC
4A80
7BFE
4A80
44FC
0800
ENDCHAR
STARTCHAR U+8B16
ENCODING 35606
SWIDTH 1000 0
DWIDTH 16 0
BBX 16 16 0 -2
BITMAP
2000
11FC
1124
FDFC
0124
79FC
0090
790C
0284
00F8
7990
4A90
4C60
7898
490E
0204
ENDCHAR
STARTCHAR U+8B17
ENCODING 35607
SWIDTH 1000 0
DWIDTH 16 0
BBX 16 16 0 -2
BITMAP
2040
1020
FDFC
0088
0050
7FFE
0244
7820
03FE
7C80
48FC
4888
7888
4908
4128
0210
ENDCHAR
STARTCHAR U+8B19
ENCODING 35609
SWIDTH 1000 0
DWIDTH 16 0
BBX 16 16 0 -2
BITMAP
4108
3090
23FE
FCA0
03FC
78A4
07FE
78A4
03FC
78A4
49B0
49A8
4AA6
7CA4
48A0
00A0
ENDCHAR
STARTCHAR U+8B1A
ENCODING 35610
SWIDTH 1000 0
DWIDTH 16 0
BBX 16 16 0 -2
BITMAP
4208
318C
2090
FBFC
0000
7890
018C
7A08
0000
03FC
7A94
4A94
4A94
7A94
47FE
0000
ENDCHAR
STARTCHAR U+8B1B
ENCODING 35611
SWIDTH 1000 0
DWIDTH 16 0
BBX 16 16 0 -2
BITMAP
4088
3088
23FE
FC88
01FC
7888
03FE
0020
79FC
0124
79FC
4924
4FFE
4904
7914
4908
ENDCHAR
STARTCHAR U+8B1D
ENCODING 35613
SWIDTH 1000 0
DWIDTH 16 0
BBX 16 16 0 -2
BITMAP
4084
2104
FBC4
0244
03FE
7A44
03C4
7A64
07D4
78D4
4944
4A44
4C44
7844
4954
0088
ENDCHAR
STARTCHAR U+8B20
ENCODING 35616
SWIDTH 1000 0
DWIDTH 16 0
BBX 16 16 0 -2
BITMAP
201C
13E0
FD44
0124
0228
7D00
01FC
7D20
0220
7DFE
4420
4524
7D24
4524
41FC
0000
ENDCHAR
STARTCHAR U+8B21
ENCODING 35617
SWIDTH 1000 0
DWIDTH 16 0
BBX 16 16 0 -2
BITMAP
203C
13C0
1144
FD26
0228
7D00
01FC
7D20
0220
01FC
7C20
4524
4524
7D24
45FC
0000
ENDCHAR
STARTCHAR U+8B26
ENCODING 35622
SWIDTH 1000 0
DWIDTH 16 0
BBX 16 16 0 -2
BITMAP
0878
7F48
0848
3E86
0078
7F48
4930
7F48
4084
5FF8
8000
0FF0
0000
0FF0
0810
0FF0
ENDCHAR
STARTCHAR U+8B28
ENCODING 35624
SWIDTH 1000 0
DWIDTH 16 0
BBX 16 16 0 -2
BITMAP
4090
3090
23FE
FC90
01F8
7908
01F8
7908
01F8
7840
4FFE
4840
48A0
7918
4A0E
0404
ENDCHAR
STARTCHAR U+8B2B
ENCODING 35627
SWIDTH 1000 0
DWIDTH 16 0
BBX 16 16 0 -2
BITMAP
4040
3020
13FE
FC88
0050
7BFE
0222
7A22
02FA
7A22
4AFA
4A8A
4AFA
7A02
4A0A
0204
ENDCHAR
STARTCHAR U+8B2C
ENCODING 35628
SWIDTH 1000 0
DWIDTH 16 0
BBX 16 16 0 -2
BITMAP
43FC
3044
2154
FCCC
0154
7864
0090
7928
0266
0090
7918
4A60
498C
7830
48C0
0300
ENDCHAR
STARTCHAR U+8B33
ENCODING 35635
SWIDTH 1000 0
DWIDTH 16 0
BBX 16 16 0 -2
BITMAP
4000
33FE
2200
FEFC
0284
7A84
02FC
7A00
02EE
7AAA
4AAA
4AEE
4A00
7A00
4BFE
0000
ENDCHAR
STARTCHAR U+8B39
ENCODING 35641
SWIDTH 1000 0
DWIDTH 16 0
BBX 16 16 0 -2
BITMAP
4088
3088
23FE
FC88
00F8
7820
01FC
7924
01FC
7820
4BFE
4820
49FC
7820
4BFE
0000
ENDCHAR
STARTCHAR U+8B3E
ENCODING 35646
SWIDTH 1000 0
DWIDTH 16 0
BBX 16 16 0 -2
BITMAP
41F8
3108
21F8
FD08
01F8
7800
03FE
7A52
03FE
7800
49FC
4888
4850
7820
48D8
0306
ENDCHAR
STARTCHAR U+8B41
ENCODING 35649
SWIDTH 1000 0
DWIDTH 16 0
BBX 16 16 0 -2
BITMAP
2088
1088
FFFE
0088
03FE
7924
03FE
7924
0124
7BFE
4820
4BFE
4820
7820
4820
0020
ENDCHAR
STARTCHAR U+8B49
ENCODING 35657
SWIDTH 1000 0
DWIDTH 16 0
BBX 16 16 0 -2
BITMAP
4012
33D4
2048
FE88
0104
7BFA
0400
79F8
0108
7908
49F8
4800
4888
7850
4BFE
0000
ENDCHAR
STARTCHAR U+8B4C
ENCODING 35660
SWIDTH 1000 0
DWIDTH 16 0
BBX 16 16 0 -2
BITMAP
400E
21F0
FEA4
00A4
0128
7DFE
0102
7DFC
0104
7DFE
4502
4552
4552
7D92
450A
0204
ENDCHAR
STARTCHAR U+8B4E
ENCODING 35662
SWIDTH 1000 0
DWIDTH 16 0
BBX 16 16 0 -2
BITMAP
21FE
1044
FC28
03FE
0034
7850
01B0
7BFE
0252
7A8A
4B76
4A52
7A72
4A52
420A
0204
ENDCHAR
STARTCHAR U+8B4F
ENCODING 35663
SWIDTH 1000 0
DWIDTH 16 0
BBX 16 16 0 -2
BITMAP
4020
3128
226A
FFBC
012A
7ABE
07A2
7910
07FE
0110
7914
4914
4A9A
7CA6
4842
0000
ENDCHAR
STARTCHAR U+8B56
ENCODING 35670
SWIDTH 1000 0
DWIDTH 16 0
BBX 16 16 0 -2
BITMAP
4000
27BE
F928
0528
07FE
7A94
02D4
7AA6
0400
79F8
4908
49F8
4908
7908
49F8
0108
ENDCHAR
STARTCHAR U+8B58
ENCODING 35672
SWIDTH 1000 0
DWIDTH 16 0
BBX 16 16 0 -2
BITMAP
4110
2090
FFF4
0252
0150
7FFE
0010
7BD4
0256
7BD4
4A48
4A5A
7BDA
4A2A
4044
0080
ENDCHAR
STARTCHAR U+8B5A
ENCODING 35674
SWIDTH 1000 0
DWIDTH 16 0
BBX 16 16 0 -2
BITMAP
47FE
3090
23FC
FA94
03FC
7800
03F8
7A08
03F8
7A08
4BF8
4840
4FFE
7840
4840
0040
ENDCHAR
STARTCHAR U+8B5B
ENCODING 35675
SWIDTH 1000 0
DWIDTH 16 0
BBX 16 16 0 -2
BITMAP
4088
3088
21DE
FE88
03FE
7888
0154
7A22
01FC
7904
4904
49FC
4904
7904
49FC
0000
ENDCHAR
STARTCHAR U+8B5C
ENCODING 35676
SWIDTH 1000 0
DWIDTH 16 0
BBX 16 16 0 -2
BITMAP
4104
3088
23FC
FC90
0294
7998
0090
7BFE
0000
79F8
4908
49F8
7908
4908
41F8
0000
ENDCHAR
STARTCHAR U+8B5F
ENCODING 35679
SWIDTH 1000 0
DWIDTH 16 0
BBX 16 16 0 -2
BITMAP
2000
11F8
FD08
01F8
0000
7B9C
0294
7B9C
0020
7BFE
4870
48A8
48A8
7926
4A24
0020
ENDCHAR
STARTCHAR U+8B66
ENCODING 35686
SWIDTH 1000 0
DWIDTH 16 0
BBX 16 16 0 -2
BITMAP
1440
7F40
147E
7F48
61A8
BD10
2528
3D44
0282
FFFE
0000
1FF0
0000
1FF0
1010
1FF0
ENDCHAR
STARTCHAR U+8B6B
ENCODING 35691
SWIDTH 1000 0
DWIDTH 16 0
BBX 16 16 0 -2
BITMAP
2080
10F8
F910
03FE
0250
7AAC
0328
7BFE
0200
7AFC
4A00
4AFC
7A00
4AFC
4484
08FC
ENDCHAR
STARTCHAR U+8B6C
ENCODING 35692
SWIDTH 1000 0
DWIDTH 16 0
BBX 16 16 0 -2
BITMAP
3C40
25FC
3C88
2050
7DFC
A420
3FFE
2420
7FFE
0000
1FF0
0000
1FF0
1010
1FF0
1010
ENDCHAR
STARTCHAR U+8B6F
ENCODING 35695
SWIDTH 1000 0
DWIDTH 16 0
BBX 16 16 0 -2
BITMAP
4000
33FC
2294
FFFC
0020
79FC
0020
7BFE
0088
7850
49FC
4820
7BFE
4820
4020
0020
ENDCHAR
STARTCHAR U+8B70
ENCODING 35696
SWIDTH 1000 0
DWIDTH 16 0
BBX 16 16 0 -2
BITMAP
4108
3090
23FC
FC40
03F8
7840
07FE
78A8
0324
0120
7FFE
4914
4998
7B2A
494A
0304
ENDCHAR
STARTCHAR U+8B71
ENCODING 35697
SWIDTH 1000 0
DWIDTH 16 0
BBX 16 16 0 -2
BITMAP
0820
0440
7FFE
0100
3FFC
0100
FFFE
1110
FDFE
0100
7D7C
0100
7D7C
4544
7D7C
4544
ENDCHAR
STARTCHAR U+8B72
ENCODING 35698
SWIDTH 1000 0
DWIDTH 16 0
BBX 16 16 0 -2
BITMAP
2020
13FE
FC88
0104
7A92
03FC
0090
79FC
0090
7BFE
48A4
4928
4B10
7D4E
4984
0100
ENDCHAR
STARTCHAR U+8B74
ENCODING 35700
SWIDTH 1000 0
DWIDTH 16 0
BBX 16 16 0 -2
BITMAP
4020
30F8
FCA8
02F8
0220
79FE
0600
7AF8
0288
7AF8
4A80
4AF8
7A88
4AF8
4500
08FE
ENDCHAR
STARTCHAR U+8B77
ENCODING 35703
SWIDTH 1000 0
DWIDTH 16 0
BBX 16 16 0 -2
BITMAP
2088
13FE
FE88
0120
01FC
7F20
01FC
7D20
01FE
7D00
45FC
4484
4448
7C30
44C8
0306
ENDCHAR
STARTCHAR U+8B7D
ENCODING 35709
SWIDTH 1000 0
DWIDTH 16 0
BBX 16 16 0 -2
BITMAP
0C00
3238
2388
3A38
2388
3AB8
2288
FFFE
1110
3FF8
C006
0FE0
0000
0FE0
0820
0FE0
ENDCHAR
STARTCHAR U+8B80
ENCODING 35712
SWIDTH 1000 0
DWIDTH 16 0
BBX 16 16 0 -2
BITMAP
4020
33FE
2020
FDFC
0000
7BFE
0252
7BFE
0104
79FC
4904
49FC
4904
79FC
48D8
0306
ENDCHAR
STARTCHAR U+8B83
ENCODING 35715
SWIDTH 1000 0
DWIDTH 16 0
BBX 16 16 0 -2
BITMAP
2108
17BE
F908
07FE
0108
7A94
05FA
7908
01F8
7908
49F8
4908
49F8
7890
490C
0204
ENDCHAR
STARTCHAR U+8B8A
ENCODING 35722
SWIDTH 1000 0
DWIDTH 16 0
BBX 16 16 0 -2
BITMAP
2108
27D2
483C
F3C8
2814
7FFE
0A40
5254
53D4
8400
07F8
1A10
6120
00C0
0730
780E
ENDCHAR
STARTCHAR U+8B8C
ENCODING 35724
SWIDTH 1000 0
DWIDTH 16 0
BBX 16 16 0 -2
BITMAP
4090
3090
27FE
F890
00F0
7A08
02EA
7EAC
02A8
02EA
7EAE
4800
4AA4
7A52
4C52
0000
ENDCHAR
STARTCHAR U+8B8E
ENCODING 35726
SWIDTH 1000 0
DWIDTH 16 0
BBX 16 16 0 -2
BITMAP
2020
2928
2924
7FFE
D028
53A8
7C3E
53A8
5028
7FBE
52A8
52A8
53A8
7EBE
4220
0000
ENDCHAR
STARTCHAR U+8B90
ENCODING 35728
SWIDTH 1000 0
DWIDTH 16 0
BBX 16 16 0 -2
BITMAP
2890
3EFE
6990
BCFC
2890
3EFC
2890
3EFE
0100
7FFC
0000
1FF0
0000
1FF0
1010
1FF0
ENDCHAR
STARTCHAR U+8B92
ENCODING 35730
SWIDTH 1000 0
DWIDTH 16 0
BBX 16 16 0 -2
BITMAP
2100
11FC
FE08
03FC
0204
7BFC
0110
79DE
0110
018E
7BFC
4A44
4BFC
7890
4912
020E
ENDCHAR
STARTCHAR U+8B93
ENCODING 35731
SWIDTH 1000 0
DWIDTH 16 0
BBX 16 16 0 -2
BITMAP
4040
27FE
FA94
0294
039C
7890
03FE
0090
7BFC
0090
7FFE
48A4
4918
7B48
4986
0104
ENDCHAR
STARTCHAR U+8B96
ENCODING 35734
SWIDTH 1000 0
DWIDTH 16 0
BBX 16 16 0 -2
BITMAP
4150
2154
F954
02B0
07FE
F150
0774
F156
0774
F154
9768
9168
F79A
922A
804A
0084
ENDCHAR
STARTCHAR U+8B99
ENCODING 35737
SWIDTH 1000 0
DWIDTH 16 0
BBX 16 16 0 -2
BITMAP
2088
13FE
FE88
01DC
7954
0154
01DC
7920
01FE
7B10
4DFC
4910
49FE
7910
49FE
0100
ENDCHAR
STARTCHAR U+8B9A
ENCODING 35738
SWIDTH 1000 0
DWIDTH 16 0
BBX 16 16 0 -2
BITMAP
4528
27BC
FD28
0FFE
0294
7AD6
04A4
79F8
0108
01F8
7908
49F8
4908
79F8
48D0
030C
ENDCHAR
STARTCHAR U+8C37
ENCODING 35895
SWIDTH 1000 0
DWIDTH 16 0
BBX 16 16 0 -2
BITMAP
0840
0C20
1918
2108
4100
0280
0440
0820
1018
2FF6
C814
0810
0810
0FF0
0810
0000
ENDCHAR
STARTCHAR U+8C3A
ENCODING 35898
SWIDTH 1000 0
DWIDTH 16 0
BBX 16 16 0 -2
BITMAP
2800
24FE
4608
8248
1048
1088
29FE
4418
BE28
2428
2448
2448
3C88
2508
2228
0010
ENDCHAR
STARTCHAR U+8C3F
ENCODING 35903
SWIDTH 1000 0
DWIDTH 16 0
BBX 16 16 0 -2
BITMAP
0750
F868
5246
2A84
2520
4820
7850
2488
7F06
12FC
FF84
1084
2884
26FC
4284
8000
ENDCHAR
STARTCHAR U+8C41
ENCODING 35905
SWIDTH 1000 0
DWIDTH 16 0
BBX 16 16 0 -2
BITMAP
1050
0848
FE84
92A6
7F24
1050
7C50
1088
FE86
117C
7E48
4448
4448
7C78
4448
0000
ENDCHAR
STARTCHAR U+8C46
ENCODING 35910
SWIDTH 1000 0
DWIDTH 16 0
BBX 16 16 0 -2
BITMAP
0000
7FFE
0000
0000
1FF0
1010
1010
1010
1FF0
0020
1030
0820
0440
FFFE
0000
0000
ENDCHAR
STARTCHAR U+8C48
ENCODING 35912
SWIDTH 1000 0
DWIDTH 16 0
BBX 16 16 0 -2
BITMAP
0100
2108
2108
3FF8
0000
7FFC
0000
1FF0
1010
1010
1FF0
0820
0440
0280
7FFE
0000
ENDCHAR
STARTCHAR U+8C4A
ENCODING 35914
SWIDTH 1000 0
DWIDTH 16 0
BBX 16 16 0 -2
BITMAP
0440
0440
3FF8
2448
3FF8
2448
3FF8
0000
7FFC
0000
1FF0
1010
1FF0
0820
0440
FFFE
ENDCHAR
STARTCHAR U+8C4C
ENCODING 35916
SWIDTH 1000 0
DWIDTH 16 0
BBX 16 16 0 -2
BITMAP
0040
FC20
03FE
0204
7900
493C
49A4
7AA4
02A4
8DB4
48A8
5120
3D22
E222
041E
0800
ENDCHAR
STARTCHAR U+8C4E
ENCODING 35918
SWIDTH 1000 0
DWIDTH 16 0
BBX 16 16 0 -2
BITMAP
3EFC
2884
3E48
2248
3E30
2830
3E48
0086
3FF8
0000
1FF0
1010
1FF0
0820
0440
7FFC
ENDCHAR
STARTCHAR U+8C50
ENCODING 35920
SWIDTH 1000 0
DWIDTH 16 0
BBX 16 16 0 -2
BITMAP
0920
5D74
4924
5D74
4924
5D74
4924
7FFC
0000
FFFE
0000
1FF0
1010
1FF0
0440
FFFE
ENDCHAR
STARTCHAR U+8C55
ENCODING 35925
SWIDTH 1000 0
DWIDTH 16 0
BBX 16 16 0 -2
BITMAP
0000
7FFC
0200
0410
0A18
3120
C2C0
05A0
19A0
6250
8448
0846
3044
C040
0280
0100
ENDCHAR
STARTCHAR U+8C5A
ENCODING 35930
SWIDTH 1000 0
DWIDTH 16 0
BBX 16 16 0 -2
BITMAP
0000
7FFE
4840
4888
798C
4E50
48A0
4930
7A70
4CA8
4928
4A26
4C24
4820
A8A0
9040
ENDCHAR
STARTCHAR U+8C61
ENCODING 35937
SWIDTH 1000 0
DWIDTH 16 0
BBX 16 16 0 -2
BITMAP
0800
0FE0
1040
3FF8
5108
1FF8
1210
0518
19A0
E6C0
19A0
6690
188E
6084
0280
0100
ENDCHAR
STARTCHAR U+8C62
ENCODING 35938
SWIDTH 1000 0
DWIDTH 16 0
BBX 16 16 0 -2
BITMAP
1110
0920
3FF8
0100
7FFE
0420
0FF0
310E
C614
1920
66C0
19A0
6698
188C
6288
0100
ENDCHAR
STARTCHAR U+8C6A
ENCODING 35946
SWIDTH 1000 0
DWIDTH 16 0
BBX 16 16 0 -2
BITMAP
0200
0100
7FFC
0820
0FE0
0000
7FFE
4004
BFF8
0600
0910
7320
0CC0
73B0
0C8E
7304
ENDCHAR
STARTCHAR U+8C6B
ENCODING 35947
SWIDTH 1000 0
DWIDTH 16 0
BBX 16 16 0 -2
BITMAP
0080
FCF8
0910
53FC
2524
FDFC
2848
208C
2350
2CA0
2330
2C68
20A6
A324
4CA0
0040
ENDCHAR
STARTCHAR U+8C6C
ENCODING 35948
SWIDTH 1000 0
DWIDTH 16 0
BBX 16 16 0 -2
BITMAP
0040
FE48
11FC
2048
6450
97FE
3820
4CC0
9BF8
2D08
49F8
8908
0908
79F8
1108
0000
ENDCHAR
STARTCHAR U+8C78
ENCODING 35960
SWIDTH 1000 0
DWIDTH 16 0
BBX 16 16 0 -2
BITMAP
0070
0780
3900
088C
0470
0380
7C40
00A0
0310
0C28
30C8
0308
0C08
7110
00A0
0040
ENDCHAR
STARTCHAR U+8C79
ENCODING 35961
SWIDTH 1000 0
DWIDTH 16 0
BBX 16 16 0 -2
BITMAP
0840
0C60
1040
237E
D482
1882
2942
CC22
1232
2622
CA02
1202
2202
C202
1414
0808
ENDCHAR
STARTCHAR U+8C7A
ENCODING 35962
SWIDTH 1000 0
DWIDTH 16 0
BBX 16 16 0 -2
BITMAP
0608
3808
D008
4A08
2BFE
1418
6818
0928
1628
E548
0C88
3508
C408
0408
2828
1010
ENDCHAR
STARTCHAR U+8C7C
ENCODING 35964
SWIDTH 1000 0
DWIDTH 16 0
BBX 16 16 0 -2
BITMAP
0010
1E90
E890
4690
2C90
3096
C8F8
1890
2490
4C90
9490
2490
C4B2
04D2
288E
1000
ENDCHAR
STARTCHAR U+8C82
ENCODING 35970
SWIDTH 1000 0
DWIDTH 16 0
BBX 16 16 0 -2
BITMAP
0000
1DFE
F022
4822
2E42
3042
C89C
1508
24FC
CA84
1284
2284
C284
02FC
1484
0800
ENDCHAR
STARTCHAR U+8C85
ENCODING 35973
SWIDTH 1000 0
DWIDTH 16 0
BBX 16 16 0 -2
BITMAP
1920
E1A0
1520
8A20
57FE
2220
5270
9270
2A68
4AA8
9AA6
2B24
CA20
0A20
2A20
1220
ENDCHAR
STARTCHAR U+8C89
ENCODING 35977
SWIDTH 1000 0
DWIDTH 16 0
BBX 16 16 0 -2
BITMAP
0C80
3080
D0FC
5488
2948
5250
8820
14D0
270E
CDF8
1508
2508
C508
05F8
1508
0800
ENDCHAR
STARTCHAR U+8C8A
ENCODING 35978
SWIDTH 1000 0
DWIDTH 16 0
BBX 16 16 0 -2
BITMAP
0400
1BFE
E820
4440
2880
31FC
C904
0904
3504
C5FC
0D04
3504
C504
05FC
2904
1000
ENDCHAR
STARTCHAR U+8C8C
ENCODING 35980
SWIDTH 1000 0
DWIDTH 16 0
BBX 16 16 0 -2
BITMAP
0C20
F040
11FC
4B04
2D04
31FC
C904
1904
25FC
CC50
1450
2450
C492
0492
290E
1200
ENDCHAR
STARTCHAR U+8C8D
ENCODING 35981
SWIDTH 1000 0
DWIDTH 16 0
BBX 16 16 0 -2
BITMAP
0000
1DFC
E124
4524
29FC
3124
C924
15FC
2420
CC20
15FE
2420
C420
0420
2BFE
1000
ENDCHAR
STARTCHAR U+8C8E
ENCODING 35982
SWIDTH 1000 0
DWIDTH 16 0
BBX 16 16 0 -2
BITMAP
1C40
E19C
1104
5504
49DC
3104
D104
29FC
4954
9450
2450
4490
8492
0512
2A0E
1400
ENDCHAR
STARTCHAR U+8C94
ENCODING 35988
SWIDTH 1000 0
DWIDTH 16 0
BBX 16 16 0 -2
BITMAP
0040
1C80
E9FC
4554
2924
1154
29FC
C800
1510
2512
CD14
15D8
2512
C552
158E
0900
ENDCHAR
STARTCHAR U+8C98
ENCODING 35992
SWIDTH 1000 0
DWIDTH 16 0
BBX 16 16 0 -2
BITMAP
0090
1E90
E5FE
5290
2DFC
3104
C9FC
1904
25FC
CC20
17FE
2420
C450
0488
2906
1204
ENDCHAR
STARTCHAR U+8C9D
ENCODING 35997
SWIDTH 1000 0
DWIDTH 16 0
BBX 16 16 0 -2
BITMAP
1FF0
1010
1010
1FF0
1010
1010
1FF0
1010
1010
1FF0
0000
0440
0620
0830
1018
2010
ENDCHAR
STARTCHAR U+8C9E
ENCODING 35998
SWIDTH 1000 0
DWIDTH 16 0
BBX 16 16 0 -2
BITMAP
0100
0100
01FC
0100
1FF0
1010
1FF0
1010
1FF0
1010
1010
1FF0
0840
0C30
1818
2010
ENDCHAR
STARTCHAR U+8CA0
ENCODING 36000
SWIDTH 1000 0
DWIDTH 16 0
BBX 16 16 0 -2
BITMAP
0400
07F0
0820
1040
3FF0
1010
1FF0
1010
1010
1FF0
1010
1010
1FF0
0440
0830
1010
ENDCHAR
STARTCHAR U+8CA1
ENCODING 36001
SWIDTH 1000 0
DWIDTH 16 0
BBX 16 16 0 -2
BITMAP
0010
7C10
4410
7C10
45FE
4430
7C30
4450
4450
7C90
0110
2A10
2410
4610
8450
0020
ENDCHAR
STARTCHAR U+8CA2
ENCODING 36002
SWIDTH 1000 0
DWIDTH 16 0
BBX 16 16 0 -2
BITMAP
3FF8
0100
0100
FFFE
0000
1FF8
1008
1FF8
1008
1FF8
1008
1FF8
0420
0C10
100C
2008
ENDCHAR
STARTCHAR U+8CA7
ENCODING 36007
SWIDTH 1000 0
DWIDTH 16 0
BBX 16 16 0 -2
BITMAP
0840
0C20
1810
2FEE
4424
0840
3FF0
5010
1FF0
1010
1FF0
1010
1FF0
0440
0830
3010
ENDCHAR
STARTCHAR U+8CA8
ENCODING 36008
SWIDTH 1000 0
DWIDTH 16 0
BBX 16 16 0 -2
BITMAP
1080
189C
37E0
5084
9044
1038
1FF0
1010
1FF0
1010
1FF0
1010
1FF0
0640
1830
6010
ENDCHAR
STARTCHAR U+8CA9
ENCODING 36009
SWIDTH 1000 0
DWIDTH 16 0
BBX 16 16 0 -2
BITMAP
0000
7C1C
45E0
4500
7D00
45F8
4588
7D88
4550
4550
7D50
0120
2950
4E48
8A8E
0504
ENDCHAR
STARTCHAR U+8CAA
ENCODING 36010
SWIDTH 1000 0
DWIDTH 16 0
BBX 16 16 0 -2
BITMAP
0100
0280
0560
0898
3FF6
C020
1FF0
1010
1FF0
1010
1FF0
1010
1FF0
0440
0830
3010
ENDCHAR
STARTCHAR U+8CAB
ENCODING 36011
SWIDTH 1000 0
DWIDTH 16 0
BBX 16 16 0 -2
BITMAP
0FF0
0890
7FFE
0910
0FF0
0000
1FF8
1008
1FF8
1008
1FF8
1008
1FF8
0620
1818
6010
ENDCHAR
STARTCHAR U+8CAC
ENCODING 36012
SWIDTH 1000 0
DWIDTH 16 0
BBX 16 16 0 -2
BITMAP
0100
3FF8
0100
1FF0
0100
7FFC
0000
1FF0
1010
1FF0
1010
1FF0
1010
1FF0
0CC0
7038
ENDCHAR
STARTCHAR U+8CAD
ENCODING 36013
SWIDTH 1000 0
DWIDTH 16 0
BBX 16 16 0 -2
BITMAP
007C
3F80
2080
3FFE
2080
27F8
2408
27F8
2408
27F8
2408
27F8
2220
4310
4408
8808
ENDCHAR
STARTCHAR U+8CAE
ENCODING 36014
SWIDTH 1000 0
DWIDTH 16 0
BBX 16 16 0 -2
BITMAP
0040
3F50
004C
0048
7FFE
0040
3F40
2140
3F20
2120
3F20
2110
3F12
1212
218A
4104
ENDCHAR
STARTCHAR U+8CAF
ENCODING 36015
SWIDTH 1000 0
DWIDTH 16 0
BBX 16 16 0 -2
BITMAP
0040
7C20
45FE
4502
7E04
4400
45FC
7C20
4420
4420
7C20
0020
4820
6620
84A0
0040
ENDCHAR
STARTCHAR U+8CB0
ENCODING 36016
SWIDTH 1000 0
DWIDTH 16 0
BBX 16 16 0 -2
BITMAP
1210
FFFE
1210
13F0
1000
1FFE
0000
1FF8
1008
1FF8
1008
1FF8
1008
1FF8
0C30
300C
ENDCHAR
STARTCHAR U+8CB2
ENCODING 36018
SWIDTH 1000 0
DWIDTH 16 0
BBX 16 16 0 -2
BITMAP
0840
084C
2F70
2844
2F44
F83C
0000
1FF0
1010
1FF0
1010
1FF0
1010
1FF0
0C60
3018
ENDCHAR
STARTCHAR U+8CB3
ENCODING 36019
SWIDTH 1000 0
DWIDTH 16 0
BBX 16 16 0 -2
BITMAP
0050
0048
FFFE
0040
3F40
0040
3F40
2120
3F20
2120
3F10
2112
3F0A
120A
2184
4100
ENDCHAR
STARTCHAR U+8CB4
ENCODING 36020
SWIDTH 1000 0
DWIDTH 16 0
BBX 16 16 0 -2
BITMAP
0100
1FF0
1110
1FF0
0100
FFFE
0000
1FF0
1010
1FF0
1010
1FF0
1010
1FF0
0C60
3018
ENDCHAR
STARTCHAR U+8CB6
ENCODING 36022
SWIDTH 1000 0
DWIDTH 16 0
BBX 16 16 0 -2
BITMAP
000C
7BF0
4880
4860
7840
49FC
4808
7810
4810
4820
7840
0080
5100
4AC0
843E
0000
ENDCHAR
STARTCHAR U+8CB7
ENCODING 36023
SWIDTH 1000 0
DWIDTH 16 0
BBX 16 16 0 -2
BITMAP
3FFC
2244
2244
3FFC
0000
0FF0
0810
0FF0
0810
0FF0
0810
0FF0
0000
0420
0C18
1010
ENDCHAR
STARTCHAR U+8CB8
ENCODING 36024
SWIDTH 1000 0
DWIDTH 16 0
BBX 16 16 0 -2
BITMAP
08A0
0C90
10BE
3FC0
5042
9032
1FFC
1010
1FF0
1010
1FF0
1010
1FF0
0640
1838
6010
ENDCHAR
STARTCHAR U+8CBB
ENCODING 36027
SWIDTH 1000 0
DWIDTH 16 0
BBX 16 16 0 -2
BITMAP
0440
7FFC
0444
3FFC
2440
3FFC
0844
FFF8
1008
1FF8
1008
1FF8
1008
1FF8
0C30
700C
ENDCHAR
STARTCHAR U+8CBC
ENCODING 36028
SWIDTH 1000 0
DWIDTH 16 0
BBX 16 16 0 -2
BITMAP
0020
7C20
4420
443E
7C20
4420
4420
7CFC
4484
4484
7C84
2884
24FC
4684
8484
0000
ENDCHAR
STARTCHAR U+8CBD
ENCODING 36029
SWIDTH 1000 0
DWIDTH 16 0
BBX 16 16 0 -2
BITMAP
0000
7C40
4460
4488
7C84
453E
7FE4
4400
45FC
7D04
0104
4904
6904
45FC
8504
0000
ENDCHAR
STARTCHAR U+8CBF
ENCODING 36031
SWIDTH 1000 0
DWIDTH 16 0
BBX 16 16 0 -2
BITMAP
0E00
31FC
2824
2424
3E54
2488
1FF0
1010
1FF0
1010
1FF0
1010
1FF0
0860
1818
6008
ENDCHAR
STARTCHAR U+8CC0
ENCODING 36032
SWIDTH 1000 0
DWIDTH 16 0
BBX 16 16 0 -2
BITMAP
1000
FE7C
1244
1244
2A7C
4444
9FF0
1010
1FF0
1010
1FF0
1010
1FF0
0660
181C
6008
ENDCHAR
STARTCHAR U+8CC1
ENCODING 36033
SWIDTH 1000 0
DWIDTH 16 0
BBX 16 16 0 -2
BITMAP
0100
3FF8
0920
7FFE
0820
0820
1FF0
1010
1FF0
1010
1FF0
1010
1FF0
0840
1030
6010
ENDCHAR
STARTCHAR U+8CC2
ENCODING 36034
SWIDTH 1000 0
DWIDTH 16 0
BBX 16 16 0 -2
BITMAP
0080
7C80
44FC
4508
7D88
4650
4420
7C58
4586
46FC
7C84
0084
2884
4684
84FC
0084
ENDCHAR
STARTCHAR U+8CC3
ENCODING 36035
SWIDTH 1000 0
DWIDTH 16 0
BBX 16 16 0 -2
BITMAP
103C
17C0
3040
5FFE
9040
17FC
0000
1FF0
1010
1FF0
1010
1FF0
1010
1FF0
0C20
3018
ENDCHAR
STARTCHAR U+8CC4
ENCODING 36036
SWIDTH 1000 0
DWIDTH 16 0
BBX 16 16 0 -2
BITMAP
0040
7C60
4440
45FE
7C40
44FC
4584
7E84
44FC
4484
7CFC
2884
3484
4684
8494
0088
ENDCHAR
STARTCHAR U+8CC7
ENCODING 36039
SWIDTH 1000 0
DWIDTH 16 0
BBX 16 16 0 -2
BITMAP
2080
10FE
1524
0820
7050
108E
1FF4
1010
1FF0
1010
1FF0
1010
1FF0
0460
181C
6008
ENDCHAR
STARTCHAR U+8CC8
ENCODING 36040
SWIDTH 1000 0
DWIDTH 16 0
BBX 16 16 0 -2
BITMAP
7FFE
0440
3FF8
2448
3FF8
0000
1FF0
1010
1FF0
1010
1FF0
1010
1FF0
0460
181C
6008
ENDCHAR
STARTCHAR U+8CCA
ENCODING 36042
SWIDTH 1000 0
DWIDTH 16 0
BBX 16 16 0 -2
BITMAP
0020
7C28
4424
47FE
7C20
4524
4524
7D24
47A8
4528
7D10
011A
522A
4A46
8482
0800
ENDCHAR
STARTCHAR U+8CCD
ENCODING 36045
SWIDTH 1000 0
DWIDTH 16 0
BBX 16 16 0 -2
BITMAP
0040
7C20
45FE
4510
7D10
4510
7D10
457C
4510
7D10
4510
2910
2D10
4AFE
8200
0400
ENDCHAR
STARTCHAR U+8CCE
ENCODING 36046
SWIDTH 1000 0
DWIDTH 16 0
BBX 16 16 0 -2
BITMAP
0040
7850
4848
487C
7BC0
487C
4BC0
787E
4FC0
4824
7828
0030
50D0
4B12
880A
0004
ENDCHAR
STARTCHAR U+8CD1
ENCODING 36049
SWIDTH 1000 0
DWIDTH 16 0
BBX 16 16 0 -2
BITMAP
0000
FBFC
8A00
8A00
FBFC
8A00
8BFE
FAA0
8AA4
FAA8
0290
5290
4AA8
8AC6
8484
0800
ENDCHAR
STARTCHAR U+8CD3
ENCODING 36051
SWIDTH 1000 0
DWIDTH 16 0
BBX 16 16 0 -2
BITMAP
0100
3FFE
4004
5FF8
0500
1938
63C0
1FF8
E810
0FF0
0810
0FF0
0810
0FF0
0660
3818
ENDCHAR
STARTCHAR U+8CDA
ENCODING 36058
SWIDTH 1000 0
DWIDTH 16 0
BBX 16 16 0 -2
BITMAP
0100
7FFC
1110
1128
2BC4
4D30
310E
DFF4
1010
1490
1250
1010
1FF0
0460
181C
6008
ENDCHAR
STARTCHAR U+8CDB
ENCODING 36059
SWIDTH 1000 0
DWIDTH 16 0
BBX 16 16 0 -2
BITMAP
0820
7EFC
0820
7EFC
1850
2488
DFF6
1010
1FF0
1010
1FF0
1010
1FF0
0C60
301C
C008
ENDCHAR
STARTCHAR U+8CDC
ENCODING 36060
SWIDTH 1000 0
DWIDTH 16 0
BBX 16 16 0 -2
BITMAP
0000
7DFC
4504
7DFC
4504
45FC
7C80
44FE
454A
7E4A
2892
2D12
4A22
8442
0194
0008
ENDCHAR
STARTCHAR U+8CDE
ENCODING 36062
SWIDTH 1000 0
DWIDTH 16 0
BBX 16 16 0 -2
BITMAP
1110
0920
7FFE
4004
8FE8
0820
0FE0
0000
1FF0
1010
1490
1250
1010
1FF0
0C60
3018
ENDCHAR
STARTCHAR U+8CE0
ENCODING 36064
SWIDTH 1000 0
DWIDTH 16 0
BBX 16 16 0 -2
BITMAP
0040
7C20
47FE
4408
7D0C
44C8
4490
7FFE
4400
45FC
7D04
0104
4904
67FC
8504
0000
ENDCHAR
STARTCHAR U+8CE2
ENCODING 36066
SWIDTH 1000 0
DWIDTH 16 0
BBX 16 16 0 -2
BITMAP
7EFC
4844
7E48
4230
7E30
4848
7E86
1FF4
1010
1FF0
1010
1FF0
1010
1FF0
0C60
701C
ENDCHAR
STARTCHAR U+8CE3
ENCODING 36067
SWIDTH 1000 0
DWIDTH 16 0
BBX 16 16 0 -2
BITMAP
0100
7FFE
0100
3FF8
0000
7FFC
4444
7FFC
1010
1FF0
1010
1FF0
1010
1FF0
0C60
701C
ENDCHAR
STARTCHAR U+8CE4
ENCODING 36068
SWIDTH 1000 0
DWIDTH 16 0
BBX 16 16 0 -2
BITMAP
00A0
7890
48FC
4B48
7850
48E4
4B1C
7880
489E
4BE0
7848
0050
5062
4892
4D0C
8800
ENDCHAR
STARTCHAR U+8CE6
ENCODING 36070
SWIDTH 1000 0
DWIDTH 16 0
BBX 16 16 0 -2
BITMAP
0010
7818
49D6
4814
7FFE
4890
4890
7890
4AF0
4A90
7A88
0288
52EA
4F06
8802
0000
ENDCHAR
STARTCHAR U+8CEA
ENCODING 36074
SWIDTH 1000 0
DWIDTH 16 0
BBX 16 16 0 -2
BITMAP
061C
38E0
2080
3EFE
2888
4908
9FF0
1010
1FF0
1010
1FF0
1010
1FF0
0820
1018
6008
ENDCHAR
STARTCHAR U+8CED
ENCODING 36077
SWIDTH 1000 0
DWIDTH 16 0
BBX 16 16 0 -2
BITMAP
0040
7840
4844
4BFC
7848
4850
4FFE
7840
49F8
4B08
7D08
01F8
5108
4D08
89F8
0108
ENDCHAR
STARTCHAR U+99DF
ENCODING 39391
SWIDTH 1000 0
DWIDTH 16 0
BBX 16 16 0 -2
BITMAP
0000
7EFE
50AA
7CAA
50AA
7CAA
50AA
50AA
7ECE
0282
AA82
AA82
02FE
1482
0800
0000
ENDCHAR
STARTCHAR U+8CFA
ENCODING 36090
SWIDTH 1000 0
DWIDTH 16 0
BBX 16 16 0 -2
BITMAP
0104
7C88
47FE
7C50
45FC
4454
7FFE
4454
45FC
7C50
00D8
2954
2A56
4454
8450
0050
ENDCHAR
STARTCHAR U+8CFB
ENCODING 36091
SWIDTH 1000 0
DWIDTH 16 0
BBX 16 16 0 -2
BITMAP
0050
7848
4FFE
4840
7BFC
4A44
4BFC
7A44
4BFC
4A54
7FFE
0110
2910
4510
8450
0020
ENDCHAR
STARTCHAR U+8CFC
ENCODING 36092
SWIDTH 1000 0
DWIDTH 16 0
BBX 16 16 0 -2
BITMAP
0088
7FFE
4888
4BFC
7888
4FFE
7820
49FC
4924
79FC
0124
57FE
4904
8904
8114
0108
ENDCHAR
STARTCHAR U+8CFD
ENCODING 36093
SWIDTH 1000 0
DWIDTH 16 0
BBX 16 16 0 -2
BITMAP
0100
7FFE
4444
3FF8
0440
1FF8
0440
7FFE
1808
EFF6
0810
0FF0
0810
0FF0
0660
3818
ENDCHAR
STARTCHAR U+8D04
ENCODING 36100
SWIDTH 1000 0
DWIDTH 16 0
BBX 16 16 0 -2
BITMAP
0820
7E20
08F8
FF28
2248
FF6A
0846
0882
1FF8
1488
1248
1128
1FF8
0630
0C0C
3008
ENDCHAR
STARTCHAR U+8D05
ENCODING 36101
SWIDTH 1000 0
DWIDTH 16 0
BBX 16 16 0 -2
BITMAP
0840
7E40
087E
7EC8
1130
1E30
22CE
DFF4
1010
1FF0
1010
1FF0
1010
1FF0
0C60
3018
ENDCHAR
STARTCHAR U+8D07
ENCODING 36103
SWIDTH 1000 0
DWIDTH 16 0
BBX 16 16 0 -2
BITMAP
1010
FDD4
4814
2BFE
1090
2AF2
4A8A
87F4
0000
1FF0
1490
1250
1FF0
0C60
181C
6008
ENDCHAR
STARTCHAR U+8D08
ENCODING 36104
SWIDTH 1000 0
DWIDTH 16 0
BBX 16 16 0 -2
BITMAP
0104
7888
4BFE
4B26
7AAA
4AB2
7BFE
4800
49FC
7904
01FC
1104
4904
6DFC
8904
0000
ENDCHAR
STARTCHAR U+8D0A
ENCODING 36106
SWIDTH 1000 0
DWIDTH 16 0
BBX 16 16 0 -2
BITMAP
28A0
3EFC
49A0
7EFC
1552
2692
5FEE
9010
1FF0
1010
1FF0
1010
1FF0
0420
0818
3010
ENDCHAR
STARTCHAR U+8D0B
ENCODING 36107
SWIDTH 1000 0
DWIDTH 16 0
BBX 16 16 0 -2
BITMAP
3FFE
28A0
2DFE
2B20
3DFC
2920
29FE
2900
27F8
2408
2648
2528
47F8
4220
8618
0810
ENDCHAR
STARTCHAR U+8D0D
ENCODING 36109
SWIDTH 1000 0
DWIDTH 16 0
BBX 16 16 0 -2
BITMAP
0080
F8F8
8910
FBFE
8AA4
8B12
FAFC
8A00
8A78
FA00
0278
5200
5AFC
9484
84FC
0800
ENDCHAR
STARTCHAR U+8D0F
ENCODING 36111
SWIDTH 1000 0
DWIDTH 16 0
BBX 16 16 0 -2
BITMAP
0100
FFFE
1000
1FF8
0000
3FF8
2008
3FF8
0000
7BBC
4AA4
7BB4
4AAC
7BA6
4AA6
9C46
ENDCHAR
STARTCHAR U+8D10
ENCODING 36112
SWIDTH 1000 0
DWIDTH 16 0
BBX 16 16 0 -2
BITMAP
0040
7BF8
4848
4FFE
7848
4BF8
4840
7FFE
4AA4
4C92
7BFC
0294
5294
4A94
87FE
0000
ENDCHAR
STARTCHAR U+8D13
ENCODING 36115
SWIDTH 1000 0
DWIDTH 16 0
BBX 16 16 0 -2
BITMAP
0018
E014
A3FE
AA10
EBD0
AA90
AE94
E3D6
A254
AFD8
EA88
0A8A
ABD6
AA26
94C2
0800
ENDCHAR
STARTCHAR U+8D14
ENCODING 36116
SWIDTH 1000 0
DWIDTH 16 0
BBX 16 16 0 -2
BITMAP
1FF8
1488
1248
1008
1FF8
0660
1818
7EFC
4284
7EFC
4284
7EFC
4284
7EFC
2458
4286
ENDCHAR
STARTCHAR U+8D16
ENCODING 36118
SWIDTH 1000 0
DWIDTH 16 0
BBX 16 16 0 -2
BITMAP
0020
7BFE
4820
49FC
7800
4BFC
7A94
4BFC
4908
79F8
0108
51F8
6908
4DF8
88D0
030C
ENDCHAR
STARTCHAR U+8D64
ENCODING 36196
SWIDTH 1000 0
DWIDTH 16 0
BBX 16 16 0 -2
BITMAP
0100
0100
3FFC
0100
0100
FFFE
0240
1250
1A48
1244
2446
4442
8840
0840
1140
2080
ENDCHAR
STARTCHAR U+8D66
ENCODING 36198
SWIDTH 1000 0
DWIDTH 16 0
BBX 16 16 0 -2
BITMAP
0840
0840
7E40
0840
087E
FFC4
2484
2448
A628
A510
A510
2428
2428
4444
5486
8904
ENDCHAR
STARTCHAR U+8D67
ENCODING 36199
SWIDTH 1000 0
DWIDTH 16 0
BBX 16 16 0 -2
BITMAP
0800
08FC
7E84
0884
0894
FF88
1480
14BC
56A4
55A4
94A4
9498
2494
24A6
54C4
8880
ENDCHAR
STARTCHAR U+8D6B
ENCODING 36203
SWIDTH 1000 0
DWIDTH 16 0
BBX 16 16 0 -2
BITMAP
1010
1010
7EFC
1010
1010
FEFE
2848
2848
ACCC
AACA
AB4A
2A4A
4848
4888
A8A8
1110
ENDCHAR
STARTCHAR U+8D6D
ENCODING 36205
SWIDTH 1000 0
DWIDTH 16 0
BBX 16 16 0 -2
BITMAP
0820
0820
7EFE
0824
0828
FFFE
2410
2420
A47C
A6C4
A544
247C
2444
5444
887C
0044
ENDCHAR
STARTCHAR U+8D70
ENCODING 36208
SWIDTH 1000 0
DWIDTH 16 0
BBX 16 16 0 -2
BITMAP
0100
0100
3FFC
0100
0100
0100
FFFE
0100
1100
11F8
1100
1100
2900
4500
83FE
0000
ENDCHAR
STARTCHAR U+8D71
ENCODING 36209
SWIDTH 1000 0
DWIDTH 16 0
BBX 16 16 0 -2
BITMAP
0100
0100
0100
3FFC
0100
0100
7FFE
1000
0818
0460
00C0
0700
1800
E600
41FE
0000
ENDCHAR
STARTCHAR U+8D73
ENCODING 36211
SWIDTH 1000 0
DWIDTH 16 0
BBX 16 16 0 -2
BITMAP
0800
0804
0804
7E44
0844
0844
FF44
0844
085C
2F64
2844
2804
5804
4C00
83FE
0000
ENDCHAR
STARTCHAR U+8D74
ENCODING 36212
SWIDTH 1000 0
DWIDTH 16 0
BBX 16 16 0 -2
BITMAP
0420
0420
0420
7FA0
0420
0430
FFAC
0426
2424
27A0
2420
2420
5420
4C20
87FE
0000
ENDCHAR
STARTCHAR U+8D77
ENCODING 36215
SWIDTH 1000 0
DWIDTH 16 0
BBX 16 16 0 -2
BITMAP
0800
0800
08F8
7E08
0808
0808
FEF8
0880
4880
4E84
4884
487C
4800
A800
9FFE
0000
ENDCHAR
STARTCHAR U+8D81
ENCODING 36225
SWIDTH 1000 0
DWIDTH 16 0
BBX 16 16 0 -2
BITMAP
1020
1020
1050
7C88
1116
1024
FEC0
1118
1060
5D8C
5018
5060
5380
B000
8FFE
0000
ENDCHAR
STARTCHAR U+8D85
ENCODING 36229
SWIDTH 1000 0
DWIDTH 16 0
BBX 16 16 0 -2
BITMAP
0800
09FC
0844
7E44
0844
0854
FE88
09FC
4884
4E84
4884
48FC
4884
A800
9FFE
0000
ENDCHAR
STARTCHAR U+8D8A
ENCODING 36234
SWIDTH 1000 0
DWIDTH 16 0
BBX 16 16 0 -2
BITMAP
0828
0824
0820
7DFE
0920
0924
FF26
0914
4918
4F52
49AA
4946
4802
A800
9FFC
0000
ENDCHAR
STARTCHAR U+8D99
ENCODING 36249
SWIDTH 1000 0
DWIDTH 16 0
BBX 16 16 0 -2
BITMAP
1020
1124
11A6
7CA8
11FC
1104
FFFC
1104
5104
5DFC
5104
5114
5108
5000
BFFE
0000
ENDCHAR
STARTCHAR U+8DA3
ENCODING 36259
SWIDTH 1000 0
DWIDTH 16 0
BBX 16 16 0 -2
BITMAP
1000
13F0
1140
7D5E
11E4
1154
FF48
11C8
5148
5D54
51D2
5662
B040
8C00
03FC
0000
ENDCHAR
STARTCHAR U+8DA8
ENCODING 36264
SWIDTH 1000 0
DWIDTH 16 0
BBX 16 16 0 -2
BITMAP
1080
10FC
7D04
1354
11F4
FC84
1118
11FC
5244
5D54
51F4
5044
5094
B108
9FFE
0000
ENDCHAR
STARTCHAR U+8DB3
ENCODING 36275
SWIDTH 1000 0
DWIDTH 16 0
BBX 16 16 0 -2
BITMAP
0000
1FF0
1010
1010
1010
1FF0
1110
0100
0900
09F8
0900
0900
1500
2300
40FE
8000
ENDCHAR
STARTCHAR U+8DBA
ENCODING 36282
SWIDTH 1000 0
DWIDTH 16 0
BBX 16 16 0 -2
BITMAP
0020
7C20
4420
45FC
4420
7C20
1020
13FE
5C20
5020
5050
5050
5C88
6106
8204
0400
ENDCHAR
STARTCHAR U+8DBE
ENCODING 36286
SWIDTH 1000 0
DWIDTH 16 0
BBX 16 16 0 -2
BITMAP
0010
7C10
4410
4410
4410
7C90
549E
1090
5090
5E90
5090
5090
5690
7890
C7FE
0000
ENDCHAR
STARTCHAR U+8DC2
ENCODING 36290
SWIDTH 1000 0
DWIDTH 16 0
BBX 16 16 0 -2
BITMAP
0020
7C20
4420
47FE
4420
7C20
11FC
1104
5C88
5088
5050
5020
5E50
F088
0106
0204
ENDCHAR
STARTCHAR U+8DCB
ENCODING 36299
SWIDTH 1000 0
DWIDTH 16 0
BBX 16 16 0 -2
BITMAP
0040
7C50
4448
4448
47FE
7C40
10FC
1084
5C88
50C8
5150
5D20
7250
C48C
0906
0204
ENDCHAR
STARTCHAR U+8DCC
ENCODING 36300
SWIDTH 1000 0
DWIDTH 16 0
BBX 16 16 0 -2
BITMAP
0020
7D20
4520
45FC
4520
4620
7C20
13FE
5020
5C20
5050
5050
5088
5C8C
E106
0204
ENDCHAR
STARTCHAR U+8DCF
ENCODING 36303
SWIDTH 1000 0
DWIDTH 16 0
BBX 16 16 0 -2
BITMAP
0100
7900
4900
4FDE
4952
7952
1152
5152
5D52
5152
5152
5E52
F25E
0452
0952
1080
ENDCHAR
STARTCHAR U+8DD6
ENCODING 36310
SWIDTH 1000 0
DWIDTH 16 0
BBX 16 16 0 -2
BITMAP
0000
7DFE
4420
4420
4440
7C40
1080
51FC
5E84
5084
5084
5084
5E84
E0FC
0084
0000
ENDCHAR
STARTCHAR U+8DDA
ENCODING 36314
SWIDTH 1000 0
DWIDTH 16 0
BBX 16 16 0 -2
BITMAP
0000
7BBC
4AA4
4AA4
7AA4
12A4
17FE
52A4
5EA4
52A4
52A4
5EA4
72A4
C2A4
04A4
09CC
ENDCHAR
STARTCHAR U+8DDB
ENCODING 36315
SWIDTH 1000 0
DWIDTH 16 0
BBX 16 16 0 -2
BITMAP
0020
7C20
45FE
4524
4528
7D20
5178
1188
5D88
5150
5150
5120
7E50
C288
0506
0A04
ENDCHAR
STARTCHAR U+8DDD
ENCODING 36317
SWIDTH 1000 0
DWIDTH 16 0
BBX 16 16 0 -2
BITMAP
0000
7DFE
4500
4500
4500
7DFC
1104
1104
5D04
51FC
5100
5100
5D00
7100
C1FE
0000
ENDCHAR
STARTCHAR U+8DDF
ENCODING 36319
SWIDTH 1000 0
DWIDTH 16 0
BBX 16 16 0 -2
BITMAP
0000
7DFC
4504
4504
45FC
4504
7D04
11FC
5120
5D24
5118
5110
5108
5D48
E186
0104
ENDCHAR
STARTCHAR U+8DE1
ENCODING 36321
SWIDTH 1000 0
DWIDTH 16 0
BBX 16 16 0 -2
BITMAP
0080
7C60
4420
47FE
4490
7C90
1290
1398
5A94
5496
5094
5110
5D10
E210
0450
0820
ENDCHAR
STARTCHAR U+8DE3
ENCODING 36323
SWIDTH 1000 0
DWIDTH 16 0
BBX 16 16 0 -2
BITMAP
0020
7920
4920
49FC
4A20
7A20
1420
13FE
5C90
5090
5090
5110
5D12
E212
040E
0800
ENDCHAR
STARTCHAR U+8DE8
ENCODING 36328
SWIDTH 1000 0
DWIDTH 16 0
BBX 16 16 0 -2
BITMAP
0040
7840
4BFE
4890
4908
7BFE
1404
1000
5DFE
5080
5080
50F8
5C08
E008
0028
0010
ENDCHAR
STARTCHAR U+8DEA
ENCODING 36330
SWIDTH 1000 0
DWIDTH 16 0
BBX 16 16 0 -2
BITMAP
0080
78FC
4908
4A10
4BFE
7A00
1200
12F8
5A88
5288
52A8
5290
5A82
E482
087E
1000
ENDCHAR
STARTCHAR U+8DEB
ENCODING 36331
SWIDTH 1000 0
DWIDTH 16 0
BBX 16 16 0 -2
BITMAP
3CF0
0890
08D0
08B0
3D12
020E
1FF0
1010
1010
1FF0
0100
09F8
0900
1500
23FE
4000
ENDCHAR
STARTCHAR U+8DEF
ENCODING 36335
SWIDTH 1000 0
DWIDTH 16 0
BBX 16 16 0 -2
BITMAP
0080
7880
48FC
4988
4A48
7C50
5020
1058
5D86
53FC
5108
5108
5D08
E1F8
0108
0000
ENDCHAR
STARTCHAR U+8DF3
ENCODING 36339
SWIDTH 1000 0
DWIDTH 16 0
BBX 16 16 0 -2
BITMAP
00A0
78A0
48A0
4CA4
4AAE
79B0
10A0
51A0
5EB0
54A8
50A4
5120
5D24
E226
043C
0800
ENDCHAR
STARTCHAR U+8DF5
ENCODING 36341
SWIDTH 1000 0
DWIDTH 16 0
BBX 16 16 0 -2
BITMAP
0040
7C50
444C
4448
447E
7DC0
1040
107E
5DC0
5024
5028
5030
5E50
F092
010A
0004
ENDCHAR
STARTCHAR U+8DFC
ENCODING 36348
SWIDTH 1000 0
DWIDTH 16 0
BBX 16 16 0 -2
BITMAP
0000
7DFC
4504
4504
45FC
7D00
11FE
5102
5D7A
514A
514A
527A
7E4A
C202
040A
0804
ENDCHAR
STARTCHAR U+8DFF
ENCODING 36351
SWIDTH 1000 0
DWIDTH 16 0
BBX 16 16 0 -2
BITMAP
0020
7C20
45FC
4420
4420
7C20
53FE
1020
5120
5D3C
5120
5120
5D20
E2A0
047E
0800
ENDCHAR
STARTCHAR U+8E08
ENCODING 36360
SWIDTH 1000 0
DWIDTH 16 0
BBX 16 16 0 -2
BITMAP
0020
7C20
47FE
4420
4420
7DFC
1124
1124
5DFC
5070
5070
50A8
5D28
F226
0424
0020
ENDCHAR
STARTCHAR U+8E09
ENCODING 36361
SWIDTH 1000 0
DWIDTH 16 0
BBX 16 16 0 -2
BITMAP
0040
7C20
45F8
4508
4508
7DF8
1108
1108
5DF8
5144
512C
5110
5D58
F18E
4104
0000
ENDCHAR
STARTCHAR U+8E0A
ENCODING 36362
SWIDTH 1000 0
DWIDTH 16 0
BBX 16 16 0 -2
BITMAP
0000
7DFC
4404
4448
4430
7DFC
1124
1124
51FC
5D24
5124
51FC
5124
5D24
E124
012C
ENDCHAR
STARTCHAR U+8E0F
ENCODING 36367
SWIDTH 1000 0
DWIDTH 16 0
BBX 16 16 0 -2
BITMAP
0020
7C24
47E6
4468
44B0
7CA8
1126
1264
5DFC
5104
5104
51FC
5D04
F104
01FC
0000
ENDCHAR
STARTCHAR U+8E10
ENCODING 36368
SWIDTH 1000 0
DWIDTH 16 0
BBX 16 16 0 -2
BITMAP
0080
7C90
47F8
4440
4454
7CE4
1324
1098
5C9E
57E0
5048
5050
5C62
E192
060C
0000
ENDCHAR
STARTCHAR U+8E1D
ENCODING 36381
SWIDTH 1000 0
DWIDTH 16 0
BBX 16 16 0 -2
BITMAP
0000
7DFC
4524
45FC
4524
7D24
11FC
1020
5FFE
5060
50B0
50A8
7D2C
C226
0424
0020
ENDCHAR
STARTCHAR U+8E1E
ENCODING 36382
SWIDTH 1000 0
DWIDTH 16 0
BBX 16 16 0 -2
BITMAP
0000
7DFC
4504
4504
7DFC
5520
1120
51FE
5D20
5120
51FC
5284
5E84
E284
04FC
0884
ENDCHAR
STARTCHAR U+8E1F
ENCODING 36383
SWIDTH 1000 0
DWIDTH 16 0
BBX 16 16 0 -2
BITMAP
0200
7B00
4A3C
4BE4
4D24
7924
5124
13E4
5D24
5124
5124
52BC
7A64
C464
0820
0000
ENDCHAR
STARTCHAR U+8E2A
ENCODING 36394
SWIDTH 1000 0
DWIDTH 16 0
BBX 16 16 0 -2
BITMAP
0040
7820
4BFE
4A02
7A04
51F8
1000
1C00
53FE
5020
5128
5DA4
7226
C424
00A0
0040
ENDCHAR
STARTCHAR U+8E30
ENCODING 36400
SWIDTH 1000 0
DWIDTH 16 0
BBX 16 16 0 -2
BITMAP
0040
7840
48A0
4918
4AF6
7C00
13C4
1254
5FD4
5254
5254
53D4
5E54
E254
0244
02CC
ENDCHAR
STARTCHAR U+8E34
ENCODING 36404
SWIDTH 1000 0
DWIDTH 16 0
BBX 16 16 0 -2
BITMAP
01FC
7C48
4430
45FC
4524
7DFC
1124
11FC
5D24
5040
51FC
5044
5044
5C84
E094
0108
ENDCHAR
STARTCHAR U+8E35
ENCODING 36405
SWIDTH 1000 0
DWIDTH 16 0
BBX 16 16 0 -2
BITMAP
001C
7DE0
4420
47FE
4420
7DFC
1124
51FC
5D24
51FC
5020
51FC
5020
5C20
E3FE
0000
ENDCHAR
STARTCHAR U+8E42
ENCODING 36418
SWIDTH 1000 0
DWIDTH 16 0
BBX 16 16 0 -2
BITMAP
7DFC
4408
44D0
4420
7FFC
10A8
1120
52A0
5C40
57FE
50E0
5D50
714C
C246
0444
0040
ENDCHAR
STARTCHAR U+8E44
ENCODING 36420
SWIDTH 1000 0
DWIDTH 16 0
BBX 16 16 0 -2
BITMAP
0040
7C20
47FE
4508
4490
7FFE
1222
1224
5DFC
5124
5124
5124
5D34
E128
0020
0020
ENDCHAR
STARTCHAR U+8E47
ENCODING 36423
SWIDTH 1000 0
DWIDTH 16 0
BBX 16 16 0 -2
BITMAP
0100
7FFE
4444
1FF0
0440
1FF8
0440
7FFC
1010
2FE8
4826
8FE0
0100
09F8
0900
37FE
ENDCHAR
STARTCHAR U+8E48
ENCODING 36424
SWIDTH 1000 0
DWIDTH 16 0
BBX 16 16 0 -2
BITMAP
001C
7DE0
4404
4446
4524
7CA8
5440
118E
5D02
5102
51DE
5102
5D02
E1FE
0102
0000
ENDCHAR
STARTCHAR U+8E49
ENCODING 36425
SWIDTH 1000 0
DWIDTH 16 0
BBX 16 16 0 -2
BITMAP
0108
7C90
47FE
4440
45FC
7C40
1040
13FE
5C80
5100
51FC
5220
5420
5820
E3FE
0000
ENDCHAR
STARTCHAR U+8E4A
ENCODING 36426
SWIDTH 1000 0
DWIDTH 16 0
BBX 16 16 0 -2
BITMAP
003C
7FC0
444C
4528
4550
7C88
11F0
1048
5DFC
5024
53FE
5020
5C50
E088
0106
0204
ENDCHAR
STARTCHAR U+8E4C
ENCODING 36428
SWIDTH 1000 0
DWIDTH 16 0
BBX 16 16 0 -2
BITMAP
0020
7C50
4488
4546
4624
7DF8
1108
11F8
5D08
51F8
5100
51FC
5E84
F284
04FC
0884
ENDCHAR
STARTCHAR U+8E50
ENCODING 36432
SWIDTH 1000 0
DWIDTH 16 0
BBX 16 16 0 -2
BITMAP
0040
7A48
4950
4848
4B64
7C90
110E
17FC
5908
51F8
5108
51F8
5D08
E108
0128
0110
ENDCHAR
STARTCHAR U+8E55
ENCODING 36437
SWIDTH 1000 0
DWIDTH 16 0
BBX 16 16 0 -2
BITMAP
0000
7DFC
4524
45FC
4524
45FC
7C20
1124
13FE
5D24
53FE
5020
53FE
5C20
E020
0020
ENDCHAR
STARTCHAR U+8E59
ENCODING 36441
SWIDTH 1000 0
DWIDTH 16 0
BBX 16 16 0 -2
BITMAP
0028
3FFE
2420
2724
2428
3F90
5532
654A
9FF4
1010
1FF0
0100
11F8
1100
2900
47FE
ENDCHAR
STARTCHAR U+8E5F
ENCODING 36447
SWIDTH 1000 0
DWIDTH 16 0
BBX 16 16 0 -2
BITMAP
0020
7DFC
4420
45FC
4420
7FFE
1000
11FC
5D04
51FC
5104
51FC
5D04
E1FC
00D8
0306
ENDCHAR
STARTCHAR U+8E60
ENCODING 36448
SWIDTH 1000 0
DWIDTH 16 0
BBX 16 16 0 -2
BITMAP
0040
7C20
45FE
4500
4548
7D48
11FE
5148
5D48
5178
5100
5200
5B54
E52A
0A2A
1000
ENDCHAR
STARTCHAR U+8E63
ENCODING 36451
SWIDTH 1000 0
DWIDTH 16 0
BBX 16 16 0 -2
BITMAP
0088
7C88
47FE
4488
44F8
7C20
13FE
1222
5F32
52AA
52AA
5376
5E22
E222
022A
0224
ENDCHAR
STARTCHAR U+8E64
ENCODING 36452
SWIDTH 1000 0
DWIDTH 16 0
BBX 16 16 0 -2
BITMAP
0248
FB48
8A48
8CA8
8934
FB16
2200
2610
BA50
A25E
A250
A250
BA50
E2B0
030E
0200
ENDCHAR
STARTCHAR U+8E72
ENCODING 36466
SWIDTH 1000 0
DWIDTH 16 0
BBX 16 16 0 -2
BITMAP
0108
7C90
47FE
4450
45FC
7D54
119C
1174
5D04
51FC
5008
51FE
5C88
E088
0028
0010
ENDCHAR
STARTCHAR U+8E74
ENCODING 36468
SWIDTH 1000 0
DWIDTH 16 0
BBX 16 16 0 -2
BITMAP
0210
F114
9FD4
9014
97FE
F490
2490
3790
A228
A228
AB28
BAA8
CA4A
124A
0A86
0500
ENDCHAR
STARTCHAR U+8E76
ENCODING 36470
SWIDTH 1000 0
DWIDTH 16 0
BBX 16 16 0 -2
BITMAP
0000
F7FE
9410
9690
951E
F7D2
2520
2548
BD48
A7C8
A548
A514
B514
CA22
0A42
1482
ENDCHAR
STARTCHAR U+8E7C
ENCODING 36476
SWIDTH 1000 0
DWIDTH 16 0
BBX 16 16 0 -2
BITMAP
0090
7A94
4998
4890
4FFE
7890
13FC
5040
5DFC
5040
57FE
5040
5CA0
E118
060E
1804
ENDCHAR
STARTCHAR U+8E81
ENCODING 36481
SWIDTH 1000 0
DWIDTH 16 0
BBX 16 16 0 -2
BITMAP
01FC
7904
4904
49FC
4800
7BDE
1252
1FDE
5020
53FE
5070
50A8
5D28
E226
0424
0020
ENDCHAR
STARTCHAR U+8E84
ENCODING 36484
SWIDTH 1000 0
DWIDTH 16 0
BBX 16 16 0 -2
BITMAP
0020
7FFC
4488
7C50
43FE
7C20
A5FC
BC20
1FF0
1010
1FF0
0100
11F8
1100
2900
C7FC
ENDCHAR
STARTCHAR U+8E85
ENCODING 36485
SWIDTH 1000 0
DWIDTH 16 0
BBX 16 16 0 -2
BITMAP
0000
7BFC
4A94
4A94
4BFC
7900
11FE
5242
5DFA
514A
51FA
504A
5C7E
E3CA
000A
0004
ENDCHAR
ENDFONT
